   0
SECTION
 2
HEADER
   0
ENDSEC
   0
SECTION
   2
TABLES
   0
TABLE
   2
LTYPE
  70
40
   0
LTYPE
   2
CONTINUOUS
  70
64
   3
___________________________
  72
65
  73
0
  40
0
   0
ENDTAB
   0
TABLE
   2
LAYER
  70
2
   0
LAYER
   2
0
  62
7
   6
CONTINUOUS
  70
0
   0
LAYER
   2
1
  62
7
6
CONTINUOUS
  70
0
   0
ENDTAB
   0
ENDSEC
   0
SECTION
   2
BLOCKS
   0
ENDSEC
   0
SECTION
   2
ENTITIES
   0
POINT
  8
1
  6
CONTINUOUS
  62
  7
 10
3.07894
 20
4.24779
 30
1.42883
  0
POINT
  8
1
  6
CONTINUOUS
  62
  7
 10
3.08433
 20
4.24782
 30
1.42883
  0
POINT
  8
1
  6
CONTINUOUS
  62
  7
 10
3.08976
 20
4.24802
 30
1.42883
  0
POINT
  8
1
  6
CONTINUOUS
  62
  7
 10
3.09519
 20
4.24803
 30
1.42883
  0
POINT
  8
1
  6
CONTINUOUS
  62
  7
 10
3.10060
 20
4.24790
 30
1.42883
  0
POINT
  8
1
  6
CONTINUOUS
  62
  7
 10
3.10710
 20
4.24801
 30
1.42883
  0
POINT
  8
1
  6
CONTINUOUS
  62
  7
 10
3.11144
 20
4.24800
 30
1.42883
  0
POINT
  8
1
  6
CONTINUOUS
  62
  7
 10
3.11686
 20
4.24787
 30
1.42883
  0
POINT
  8
1
  6
CONTINUOUS
  62
  7
 10
3.12227
 20
4.24775
 30
1.42883
  0
POINT
  8
1
  6
CONTINUOUS
  62
  7
 10
3.12769
 20
4.24767
 30
1.42883
  0
POINT
  8
1
  6
CONTINUOUS
  62
  7
 10
3.13311
 20
4.24756
 30
1.42883
  0
POINT
  8
1
  6
CONTINUOUS
  62
  7
 10
3.13852
 20
4.24753
 30
1.42883
  0
POINT
  8
1
  6
CONTINUOUS
  62
  7
 10
3.14394
 20
4.24722
 30
1.42883
  0
POINT
  8
1
  6
CONTINUOUS
  62
  7
 10
3.15044
 20
4.24719
 30
1.42883
  0
POINT
  8
1
  6
CONTINUOUS
  62
  7
 10
3.15477
 20
4.24705
 30
1.42883
  0
POINT
  8
1
  6
CONTINUOUS
  62
  7
 10
3.16021
 20
4.24698
 30
1.42883
  0
POINT
  8
1
  6
CONTINUOUS
  62
  7
 10
3.16564
 20
4.24668
 30
1.42883
  0
POINT
  8
1
  6
CONTINUOUS
  62
  7
 10
3.17104
 20
4.24657
 30
1.42883
  0
POINT
  8
1
  6
CONTINUOUS
  62
  7
 10
3.17646
 20
4.24639
 30
1.42883
  0
POINT
  8
1
  6
CONTINUOUS
  62
  7
 10
3.18296
 20
4.24617
 30
1.42883
  0
POINT
  8
1
  6
CONTINUOUS
  62
  7
 10
3.18836
 20
4.24610
 30
1.42883
  0
POINT
  8
1
  6
CONTINUOUS
  62
  7
 10
3.19270
 20
4.24605
 30
1.42883
  0
POINT
  8
1
  6
CONTINUOUS
  62
  7
 10
3.19813
 20
4.24593
 30
1.42883
  0
POINT
  8
1
  6
CONTINUOUS
  62
  7
 10
3.20353
 20
4.24569
 30
1.42883
  0
POINT
  8
1
  6
CONTINUOUS
  62
  7
 10
3.20893
 20
4.24562
 30
1.42883
  0
POINT
  8
1
  6
CONTINUOUS
  62
  7
 10
3.21436
 20
4.24606
 30
1.42883
  0
POINT
  8
1
  6
CONTINUOUS
  62
  7
 10
3.21990
 20
4.24546
 30
1.42883
  0
POINT
  8
1
  6
CONTINUOUS
  62
  7
 10
3.22285
 20
4.24461
 30
1.42883
  0
POINT
  8
1
  6
CONTINUOUS
  62
  7
 10
3.23072
 20
4.24105
 30
1.42883
  0
POINT
  8
1
  6
CONTINUOUS
  62
  7
 10
3.23059
 20
4.23519
 30
1.42883
  0
POINT
  8
1
  6
CONTINUOUS
  62
  7
 10
3.23055
 20
4.22978
 30
1.42883
  0
POINT
  8
1
  6
CONTINUOUS
  62
  7
 10
3.23080
 20
4.22438
 30
1.42883
  0
POINT
  8
1
  6
CONTINUOUS
  62
  7
 10
3.23110
 20
4.21890
 30
1.42883
  0
POINT
  8
1
  6
CONTINUOUS
  62
  7
 10
3.23151
 20
4.21353
 30
1.42883
  0
POINT
  8
1
  6
CONTINUOUS
  62
  7
 10
3.23154
 20
4.20866
 30
1.42883
  0
POINT
  8
1
  6
CONTINUOUS
  62
  7
 10
3.23186
 20
4.20271
 30
1.42883
  0
POINT
  8
1
  6
CONTINUOUS
  62
  7
 10
3.23183
 20
4.19783
 30
1.42883
  0
POINT
  8
1
  6
CONTINUOUS
  62
  7
 10
3.23203
 20
4.19189
 30
1.42883
  0
POINT
  8
1
  6
CONTINUOUS
  62
  7
 10
3.23208
 20
4.18646
 30
1.42883
  0
POINT
  8
1
  6
CONTINUOUS
  62
  7
 10
3.23216
 20
4.18160
 30
1.42883
  0
POINT
  8
1
  6
CONTINUOUS
  62
  7
 10
3.23245
 20
4.17562
 30
1.42883
  0
POINT
  8
1
  6
CONTINUOUS
  62
  7
 10
3.23260
 20
4.17077
 30
1.42883
  0
POINT
  8
1
  6
CONTINUOUS
  62
  7
 10
3.23247
 20
4.16480
 30
1.42883
  0
POINT
  8
1
  6
CONTINUOUS
  62
  7
 10
3.23251
 20
4.15994
 30
1.42883
  0
POINT
  8
1
  6
CONTINUOUS
  62
  7
 10
3.23275
 20
4.15397
 30
1.42883
  0
POINT
  8
1
  6
CONTINUOUS
  62
  7
 10
3.23302
 20
4.14857
 30
1.42883
  0
POINT
  8
1
  6
CONTINUOUS
  62
  7
 10
3.23284
 20
4.14313
 30
1.42883
  0
POINT
  8
1
  6
CONTINUOUS
  62
  7
 10
3.23297
 20
4.13773
 30
1.42883
  0
POINT
  8
1
  6
CONTINUOUS
  62
  7
 10
3.23301
 20
4.13230
 30
1.42883
  0
POINT
  8
1
  6
CONTINUOUS
  62
  7
 10
3.23305
 20
4.12690
 30
1.42883
  0
POINT
  8
1
  6
CONTINUOUS
  62
  7
 10
3.23308
 20
4.12088
 30
1.42883
  0
POINT
  8
1
  6
CONTINUOUS
  62
  7
 10
3.23529
 20
4.11686
 30
1.42885
  0
POINT
  8
1
  6
CONTINUOUS
  62
  7
 10
3.23325
 20
4.11074
 30
1.42885
  0
POINT
  8
1
  6
CONTINUOUS
  62
  7
 10
3.23309
 20
4.10540
 30
1.42885
  0
POINT
  8
1
  6
CONTINUOUS
  62
  7
 10
3.23340
 20
4.09998
 30
1.42885
  0
POINT
  8
1
  6
CONTINUOUS
  62
  7
 10
3.23399
 20
4.09461
 30
1.42885
  0
POINT
  8
1
  6
CONTINUOUS
  62
  7
 10
3.23448
 20
4.09017
 30
1.42885
  0
POINT
  8
1
  6
CONTINUOUS
  62
  7
 10
3.23429
 20
4.08435
 30
1.42885
  0
POINT
  8
1
  6
CONTINUOUS
  62
  7
 10
3.23362
 20
4.07838
 30
1.42885
  0
POINT
  8
1
  6
CONTINUOUS
  62
  7
 10
3.23352
 20
4.07287
 30
1.42885
  0
POINT
  8
1
  6
CONTINUOUS
  62
  7
 10
3.23349
 20
4.06760
 30
1.42885
  0
POINT
  8
1
  6
CONTINUOUS
  62
  7
 10
3.23341
 20
4.06203
 30
1.42885
  0
POINT
  8
1
  6
CONTINUOUS
  62
  7
 10
3.23364
 20
4.05723
 30
1.42885
  0
POINT
  8
1
  6
CONTINUOUS
  62
  7
 10
3.23330
 20
4.05193
 30
1.42885
  0
POINT
  8
1
  6
CONTINUOUS
  62
  7
 10
3.23309
 20
4.04588
 30
1.42885
  0
POINT
  8
1
  6
CONTINUOUS
  62
  7
 10
3.23358
 20
4.04099
 30
1.42885
  0
POINT
  8
1
  6
CONTINUOUS
  62
  7
 10
3.23300
 20
4.03625
 30
1.42885
  0
POINT
  8
1
  6
CONTINUOUS
  62
  7
 10
3.23217
 20
4.02963
 30
1.42885
  0
POINT
  8
1
  6
CONTINUOUS
  62
  7
 10
3.23271
 20
4.02419
 30
1.42885
  0
POINT
  8
1
  6
CONTINUOUS
  62
  7
 10
3.23244
 20
4.01933
 30
1.42885
  0
POINT
  8
1
  6
CONTINUOUS
  62
  7
 10
3.23231
 20
4.01393
 30
1.42885
  0
POINT
  8
1
  6
CONTINUOUS
  62
  7
 10
3.23222
 20
4.00850
 30
1.42885
  0
POINT
  8
1
  6
CONTINUOUS
  62
  7
 10
3.23219
 20
4.00301
 30
1.42885
  0
POINT
  8
1
  6
CONTINUOUS
  62
  7
 10
3.23142
 20
3.99777
 30
1.42885
  0
POINT
  8
1
  6
CONTINUOUS
  62
  7
 10
3.23142
 20
3.99225
 30
1.42885
  0
POINT
  8
1
  6
CONTINUOUS
  62
  7
 10
3.23149
 20
3.98684
 30
1.42885
  0
POINT
  8
1
  6
CONTINUOUS
  62
  7
 10
3.23105
 20
3.98091
 30
1.42885
  0
POINT
  8
1
  6
CONTINUOUS
  62
  7
 10
3.23011
 20
3.96573
 30
1.42885
  0
POINT
  8
1
  6
CONTINUOUS
  62
  7
 10
3.23000
 20
3.95974
 30
1.42885
  0
POINT
  8
1
  6
CONTINUOUS
  62
  7
 10
3.23007
 20
3.95432
 30
1.42885
  0
POINT
  8
1
  6
CONTINUOUS
  62
  7
 10
3.23022
 20
3.94887
 30
1.42885
  0
POINT
  8
1
  6
CONTINUOUS
  62
  7
 10
3.23127
 20
3.94506
 30
1.42885
  0
POINT
  8
1
  6
CONTINUOUS
  62
  7
 10
3.23252
 20
3.93890
 30
1.42885
  0
POINT
  8
1
  6
CONTINUOUS
  62
  7
 10
3.23757
 20
3.93243
 30
1.42885
  0
POINT
  8
1
  6
CONTINUOUS
  62
  7
 10
3.23726
 20
3.92736
 30
1.42885
  0
POINT
  8
1
  6
CONTINUOUS
  62
  7
 10
3.24164
 20
3.92436
 30
1.42885
  0
POINT
  8
1
  6
CONTINUOUS
  62
  7
 10
3.24477
 20
3.92209
 30
1.42885
  0
POINT
  8
1
  6
CONTINUOUS
  62
  7
 10
3.25100
 20
3.91883
 30
1.42885
  0
POINT
  8
1
  6
CONTINUOUS
  62
  7
 10
3.25644
 20
3.91703
 30
1.42885
  0
POINT
  8
1
  6
CONTINUOUS
  62
  7
 10
3.26088
 20
3.91690
 30
1.42885
  0
POINT
  8
1
  6
CONTINUOUS
  62
  7
 10
3.26731
 20
3.91768
 30
1.42885
  0
POINT
  8
1
  6
CONTINUOUS
  62
  7
 10
3.27277
 20
3.91905
 30
1.42885
  0
POINT
  8
1
  6
CONTINUOUS
  62
  7
 10
3.27698
 20
3.91851
 30
1.42885
  0
POINT
  8
1
  6
CONTINUOUS
  62
  7
 10
3.28260
 20
3.91915
 30
1.42885
  0
POINT
  8
1
  6
CONTINUOUS
  62
  7
 10
3.28801
 20
3.91951
 30
1.42885
  0
POINT
  8
1
  6
CONTINUOUS
  62
  7
 10
3.29424
 20
3.91822
 30
1.42885
  0
POINT
  8
1
  6
CONTINUOUS
  62
  7
 10
3.29885
 20
3.91756
 30
1.42885
  0
POINT
  8
1
  6
CONTINUOUS
  62
  7
 10
3.30419
 20
3.91850
 30
1.42885
  0
POINT
  8
1
  6
CONTINUOUS
  62
  7
 10
3.30966
 20
3.91813
 30
1.42885
  0
POINT
  8
1
  6
CONTINUOUS
  62
  7
 10
3.31394
 20
3.91792
 30
1.42885
  0
POINT
  8
1
  6
CONTINUOUS
  62
  7
 10
3.32042
 20
3.91867
 30
1.42885
  0
POINT
  8
1
  6
CONTINUOUS
  62
  7
 10
3.32597
 20
3.91856
 30
1.42885
  0
POINT
  8
1
  6
CONTINUOUS
  62
  7
 10
3.33124
 20
3.91911
 30
1.42885
  0
POINT
  8
1
  6
CONTINUOUS
  62
  7
 10
3.33559
 20
3.91831
 30
1.42885
  0
POINT
  8
1
  6
CONTINUOUS
  62
  7
 10
3.34102
 20
3.91807
 30
1.42885
  0
POINT
  8
1
  6
CONTINUOUS
  62
  7
 10
3.34753
 20
3.91813
 30
1.42885
  0
POINT
  8
1
  6
CONTINUOUS
  62
  7
 10
3.35404
 20
3.91838
 30
1.42885
  0
POINT
  8
1
  6
CONTINUOUS
  62
  7
 10
3.35838
 20
3.91858
 30
1.42885
  0
POINT
  8
1
  6
CONTINUOUS
  62
  7
 10
3.36375
 20
3.91823
 30
1.42885
  0
POINT
  8
1
  6
CONTINUOUS
  62
  7
 10
3.36919
 20
3.91828
 30
1.42885
  0
POINT
  8
1
  6
CONTINUOUS
  62
  7
 10
3.37461
 20
3.91831
 30
1.42885
  0
POINT
  8
1
  6
CONTINUOUS
  62
  7
 10
3.38003
 20
3.91823
 30
1.42885
  0
POINT
  8
1
  6
CONTINUOUS
  62
  7
 10
3.38545
 20
3.91826
 30
1.42885
  0
POINT
  8
1
  6
CONTINUOUS
  62
  7
 10
3.39086
 20
3.91809
 30
1.42885
  0
POINT
  8
1
  6
CONTINUOUS
  62
  7
 10
3.39735
 20
3.91831
 30
1.42885
  0
POINT
  8
1
  6
CONTINUOUS
  62
  7
 10
3.40168
 20
3.91818
 30
1.42883
  0
POINT
  8
1
  6
CONTINUOUS
  62
  7
 10
3.40712
 20
3.91826
 30
1.42883
  0
POINT
  8
1
  6
CONTINUOUS
  62
  7
 10
3.41248
 20
3.91832
 30
1.42883
  0
POINT
  8
1
  6
CONTINUOUS
  62
  7
 10
3.41902
 20
3.91869
 30
1.42883
  0
POINT
  8
1
  6
CONTINUOUS
  62
  7
 10
3.42230
 20
3.91839
 30
1.42883
  0
POINT
  8
1
  6
CONTINUOUS
  62
  7
 10
3.42876
 20
3.91819
 30
1.42883
  0
POINT
  8
1
  6
CONTINUOUS
  62
  7
 10
3.43418
 20
3.91811
 30
1.42883
  0
POINT
  8
1
  6
CONTINUOUS
  62
  7
 10
3.44068
 20
3.91806
 30
1.42883
  0
POINT
  8
1
  6
CONTINUOUS
  62
  7
 10
3.44501
 20
3.91794
 30
1.42883
  0
POINT
  8
1
  6
CONTINUOUS
  62
  7
 10
3.45043
 20
3.91802
 30
1.42883
  0
POINT
  8
1
  6
CONTINUOUS
  62
  7
 10
3.45584
 20
3.91804
 30
1.42883
  0
POINT
  8
1
  6
CONTINUOUS
  62
  7
 10
3.46126
 20
3.91794
 30
1.42883
  0
POINT
  8
1
  6
CONTINUOUS
  62
  7
 10
3.46668
 20
3.91849
 30
1.42883
  0
POINT
  8
1
  6
CONTINUOUS
  62
  7
 10
3.47210
 20
3.91794
 30
1.42883
  0
POINT
  8
1
  6
CONTINUOUS
  62
  7
 10
3.47748
 20
3.91807
 30
1.42883
  0
POINT
  8
1
  6
CONTINUOUS
  62
  7
 10
3.48295
 20
3.91824
 30
1.42883
  0
POINT
  8
1
  6
CONTINUOUS
  62
  7
 10
3.48834
 20
3.91781
 30
1.42883
  0
POINT
  8
1
  6
CONTINUOUS
  62
  7
 10
3.49375
 20
3.91804
 30
1.42883
  0
POINT
  8
1
  6
CONTINUOUS
  62
  7
 10
3.49918
 20
3.91830
 30
1.42883
  0
POINT
  8
1
  6
CONTINUOUS
  62
  7
 10
3.50459
 20
3.91817
 30
1.42883
  0
POINT
  8
1
  6
CONTINUOUS
  62
  7
 10
3.51002
 20
3.91793
 30
1.42883
  0
POINT
  8
1
  6
CONTINUOUS
  62
  7
 10
3.51545
 20
3.91792
 30
1.42883
  0
POINT
  8
1
  6
CONTINUOUS
  62
  7
 10
3.52085
 20
3.91761
 30
1.42883
  0
POINT
  8
1
  6
CONTINUOUS
  62
  7
 10
3.52627
 20
3.91791
 30
1.42883
  0
POINT
  8
1
  6
CONTINUOUS
  62
  7
 10
3.53169
 20
3.91763
 30
1.42883
  0
POINT
  8
1
  6
CONTINUOUS
  62
  7
 10
3.53710
 20
3.91729
 30
1.42883
  0
POINT
  8
1
  6
CONTINUOUS
  62
  7
 10
3.54252
 20
3.91709
 30
1.42883
  0
POINT
  8
1
  6
CONTINUOUS
  62
  7
 10
3.54904
 20
3.91753
 30
1.42883
  0
POINT
  8
1
  6
CONTINUOUS
  62
  7
 10
3.55335
 20
3.91707
 30
1.42883
  0
POINT
  8
1
  6
CONTINUOUS
  62
  7
 10
3.55769
 20
3.91717
 30
1.42883
  0
POINT
  8
1
  6
CONTINUOUS
  62
  7
 10
3.56419
 20
3.91716
 30
1.42883
  0
POINT
  8
1
  6
CONTINUOUS
  62
  7
 10
3.56960
 20
3.91691
 30
1.42883
  0
POINT
  8
1
  6
CONTINUOUS
  62
  7
 10
3.57502
 20
3.91710
 30
1.42883
  0
POINT
  8
1
  6
CONTINUOUS
  62
  7
 10
3.58045
 20
3.91695
 30
1.42883
  0
POINT
  8
1
  6
CONTINUOUS
  62
  7
 10
3.58585
 20
3.91673
 30
1.42883
  0
POINT
  8
1
  6
CONTINUOUS
  62
  7
 10
3.59129
 20
3.91659
 30
1.42883
  0
POINT
  8
1
  6
CONTINUOUS
  62
  7
 10
3.59669
 20
3.91619
 30
1.42883
  0
POINT
  8
1
  6
CONTINUOUS
  62
  7
 10
3.60209
 20
3.91637
 30
1.42883
  0
POINT
  8
1
  6
CONTINUOUS
  62
  7
 10
3.60752
 20
3.91631
 30
1.42883
  0
POINT
  8
1
  6
CONTINUOUS
  62
  7
 10
3.61294
 20
3.91610
 30
1.42883
  0
POINT
  8
1
  6
CONTINUOUS
  62
  7
 10
3.61836
 20
3.91581
 30
1.42883
  0
POINT
  8
1
  6
CONTINUOUS
  62
  7
 10
3.62370
 20
3.91593
 30
1.42883
  0
POINT
  8
1
  6
CONTINUOUS
  62
  7
 10
3.62912
 20
3.91660
 30
1.42883
  0
POINT
  8
1
  6
CONTINUOUS
  62
  7
 10
3.63452
 20
3.91810
 30
1.42883
  0
POINT
  8
1
  6
CONTINUOUS
  62
  7
 10
3.63865
 20
3.91961
 30
1.42883
  0
POINT
  8
1
  6
CONTINUOUS
  62
  7
 10
3.64408
 20
3.92258
 30
1.42883
  0
POINT
  8
1
  6
CONTINUOUS
  62
  7
 10
3.64841
 20
3.92626
 30
1.42883
  0
POINT
  8
1
  6
CONTINUOUS
  62
  7
 10
3.65252
 20
3.93045
 30
1.42883
  0
POINT
  8
1
  6
CONTINUOUS
  62
  7
 10
3.65720
 20
3.93259
 30
1.42883
  0
POINT
  8
1
  6
CONTINUOUS
  62
  7
 10
3.66331
 20
3.93344
 30
1.42883
  0
POINT
  8
1
  6
CONTINUOUS
  62
  7
 10
3.66761
 20
3.93366
 30
1.42883
  0
POINT
  8
1
  6
CONTINUOUS
  62
  7
 10
3.67304
 20
3.93388
 30
1.42883
  0
POINT
  8
1
  6
CONTINUOUS
  62
  7
 10
3.67953
 20
3.93425
 30
1.42883
  0
POINT
  8
1
  6
CONTINUOUS
  62
  7
 10
3.68389
 20
3.93433
 30
1.42883
  0
POINT
  8
1
  6
CONTINUOUS
  62
  7
 10
3.68930
 20
3.93435
 30
1.42883
  0
POINT
  8
1
  6
CONTINUOUS
  62
  7
 10
3.69581
 20
3.93463
 30
1.42883
  0
POINT
  8
1
  6
CONTINUOUS
  62
  7
 10
3.70123
 20
3.93466
 30
1.42883
  0
POINT
  8
1
  6
CONTINUOUS
  62
  7
 10
3.70556
 20
3.93462
 30
1.42883
  0
POINT
  8
1
  6
CONTINUOUS
  62
  7
 10
3.71097
 20
3.93474
 30
1.42883
  0
POINT
  8
1
  6
CONTINUOUS
  62
  7
 10
3.71747
 20
3.93477
 30
1.42883
  0
POINT
  8
1
  6
CONTINUOUS
  62
  7
 10
3.72179
 20
3.93497
 30
1.42883
  0
POINT
  8
1
  6
CONTINUOUS
  62
  7
 10
3.72723
 20
3.93514
 30
1.42883
  0
POINT
  8
1
  6
CONTINUOUS
  62
  7
 10
3.73372
 20
3.93512
 30
1.42883
  0
POINT
  8
1
  6
CONTINUOUS
  62
  7
 10
3.73914
 20
3.93511
 30
1.42883
  0
POINT
  8
1
  6
CONTINUOUS
  62
  7
 10
3.74348
 20
3.93519
 30
1.42883
  0
POINT
  8
1
  6
CONTINUOUS
  62
  7
 10
3.74889
 20
3.93527
 30
1.42883
  0
POINT
  8
1
  6
CONTINUOUS
  62
  7
 10
3.75538
 20
3.93553
 30
1.42883
  0
POINT
  8
1
  6
CONTINUOUS
  62
  7
 10
3.75971
 20
3.93567
 30
1.42883
  0
POINT
  8
1
  6
CONTINUOUS
  62
  7
 10
3.76514
 20
3.93580
 30
1.42883
  0
POINT
  8
1
  6
CONTINUOUS
  62
  7
 10
3.77163
 20
3.93552
 30
1.42883
  0
POINT
  8
1
  6
CONTINUOUS
  62
  7
 10
3.77707
 20
3.93602
 30
1.42883
  0
POINT
  8
1
  6
CONTINUOUS
  62
  7
 10
3.78141
 20
3.93548
 30
1.42883
  0
POINT
  8
1
  6
CONTINUOUS
  62
  7
 10
3.78682
 20
3.93559
 30
1.42883
  0
POINT
  8
1
  6
CONTINUOUS
  62
  7
 10
3.79333
 20
3.93540
 30
1.42883
  0
POINT
  8
1
  6
CONTINUOUS
  62
  7
 10
3.79867
 20
3.93615
 30
1.42883
  0
POINT
  8
1
  6
CONTINUOUS
  62
  7
 10
3.80308
 20
3.93650
 30
1.42883
  0
POINT
  8
1
  6
CONTINUOUS
  62
  7
 10
3.80851
 20
3.93546
 30
1.42883
  0
POINT
  8
1
  6
CONTINUOUS
  62
  7
 10
3.81498
 20
3.93545
 30
1.42883
  0
POINT
  8
1
  6
CONTINUOUS
  62
  7
 10
3.81932
 20
3.93546
 30
1.42883
  0
POINT
  8
1
  6
CONTINUOUS
  62
  7
 10
3.82474
 20
3.93548
 30
1.42883
  0
POINT
  8
1
  6
CONTINUOUS
  62
  7
 10
3.83122
 20
3.93573
 30
1.42883
  0
POINT
  8
1
  6
CONTINUOUS
  62
  7
 10
3.83557
 20
3.93580
 30
1.42883
  0
POINT
  8
1
  6
CONTINUOUS
  62
  7
 10
3.84097
 20
3.93570
 30
1.42883
  0
POINT
  8
1
  6
CONTINUOUS
  62
  7
 10
3.84748
 20
3.93542
 30
1.42883
  0
POINT
  8
1
  6
CONTINUOUS
  62
  7
 10
3.85290
 20
3.93563
 30
1.42883
  0
POINT
  8
1
  6
CONTINUOUS
  62
  7
 10
3.85724
 20
3.93556
 30
1.42883
  0
POINT
  8
1
  6
CONTINUOUS
  62
  7
 10
3.86266
 20
3.93557
 30
1.42883
  0
POINT
  8
1
  6
CONTINUOUS
  62
  7
 10
3.86915
 20
3.93545
 30
1.42883
  0
POINT
  8
1
  6
CONTINUOUS
  62
  7
 10
3.87348
 20
3.93546
 30
1.42883
  0
POINT
  8
1
  6
CONTINUOUS
  62
  7
 10
3.87890
 20
3.93535
 30
1.42883
  0
POINT
  8
1
  6
CONTINUOUS
  62
  7
 10
3.88540
 20
3.93539
 30
1.42883
  0
POINT
  8
1
  6
CONTINUOUS
  62
  7
 10
3.89082
 20
3.93538
 30
1.42883
  0
POINT
  8
1
  6
CONTINUOUS
  62
  7
 10
3.89516
 20
3.93521
 30
1.42883
  0
POINT
  8
1
  6
CONTINUOUS
  62
  7
 10
3.90057
 20
3.93523
 30
1.42883
  0
POINT
  8
1
  6
CONTINUOUS
  62
  7
 10
3.90598
 20
3.93537
 30
1.42883
  0
POINT
  8
1
  6
CONTINUOUS
  62
  7
 10
3.91140
 20
3.93534
 30
1.42883
  0
POINT
  8
1
  6
CONTINUOUS
  62
  7
 10
3.91712
 20
3.93582
 30
1.42885
  0
POINT
  8
1
  6
CONTINUOUS
  62
  7
 10
3.92253
 20
3.93539
 30
1.42885
  0
POINT
  8
1
  6
CONTINUOUS
  62
  7
 10
3.92795
 20
3.93553
 30
1.42885
  0
POINT
  8
1
  6
CONTINUOUS
  62
  7
 10
3.93444
 20
3.93519
 30
1.42885
  0
POINT
  8
1
  6
CONTINUOUS
  62
  7
 10
3.93770
 20
3.93508
 30
1.42885
  0
POINT
  8
1
  6
CONTINUOUS
  62
  7
 10
3.94420
 20
3.93515
 30
1.42885
  0
POINT
  8
1
  6
CONTINUOUS
  62
  7
 10
3.94962
 20
3.93514
 30
1.42885
  0
POINT
  8
1
  6
CONTINUOUS
  62
  7
 10
3.95504
 20
3.93545
 30
1.42885
  0
POINT
  8
1
  6
CONTINUOUS
  62
  7
 10
3.96044
 20
3.93523
 30
1.42885
  0
POINT
  8
1
  6
CONTINUOUS
  62
  7
 10
3.96587
 20
3.93508
 30
1.42885
  0
POINT
  8
1
  6
CONTINUOUS
  62
  7
 10
3.97129
 20
3.93528
 30
1.42885
  0
POINT
  8
1
  6
CONTINUOUS
  62
  7
 10
3.97671
 20
3.93512
 30
1.42885
  0
POINT
  8
1
  6
CONTINUOUS
  62
  7
 10
3.98213
 20
3.93515
 30
1.42885
  0
POINT
  8
1
  6
CONTINUOUS
  62
  7
 10
3.98754
 20
3.93506
 30
1.42885
  0
POINT
  8
1
  6
CONTINUOUS
  62
  7
 10
3.99294
 20
3.93530
 30
1.42885
  0
POINT
  8
1
  6
CONTINUOUS
  62
  7
 10
3.99839
 20
3.93525
 30
1.42885
  0
POINT
  8
1
  6
CONTINUOUS
  62
  7
 10
4.00379
 20
3.93507
 30
1.42885
  0
POINT
  8
1
  6
CONTINUOUS
  62
  7
 10
4.00920
 20
3.93506
 30
1.42885
  0
POINT
  8
1
  6
CONTINUOUS
  62
  7
 10
4.01462
 20
3.93514
 30
1.42885
  0
POINT
  8
1
  6
CONTINUOUS
  62
  7
 10
4.02005
 20
3.93509
 30
1.42885
  0
POINT
  8
1
  6
CONTINUOUS
  62
  7
 10
4.02546
 20
3.93504
 30
1.42885
  0
POINT
  8
1
  6
CONTINUOUS
  62
  7
 10
4.03089
 20
3.93498
 30
1.42885
  0
POINT
  8
1
  6
CONTINUOUS
  62
  7
 10
4.03629
 20
3.93481
 30
1.42885
  0
POINT
  8
1
  6
CONTINUOUS
  62
  7
 10
4.04171
 20
3.93495
 30
1.42885
  0
POINT
  8
1
  6
CONTINUOUS
  62
  7
 10
4.04713
 20
3.93484
 30
1.42885
  0
POINT
  8
1
  6
CONTINUOUS
  62
  7
 10
4.05254
 20
3.93496
 30
1.42885
  0
POINT
  8
1
  6
CONTINUOUS
  62
  7
 10
4.05797
 20
3.93496
 30
1.42885
  0
POINT
  8
1
  6
CONTINUOUS
  62
  7
 10
4.06338
 20
3.93477
 30
1.42885
  0
POINT
  8
1
  6
CONTINUOUS
  62
  7
 10
4.06880
 20
3.93478
 30
1.42885
  0
POINT
  8
1
  6
CONTINUOUS
  62
  7
 10
4.07421
 20
3.93504
 30
1.42885
  0
POINT
  8
1
  6
CONTINUOUS
  62
  7
 10
4.07963
 20
3.93496
 30
1.42885
  0
POINT
  8
1
  6
CONTINUOUS
  62
  7
 10
4.08505
 20
3.93507
 30
1.42885
  0
POINT
  8
1
  6
CONTINUOUS
  62
  7
 10
4.09046
 20
3.93479
 30
1.42885
  0
POINT
  8
1
  6
CONTINUOUS
  62
  7
 10
4.09589
 20
3.93483
 30
1.42885
  0
POINT
  8
1
  6
CONTINUOUS
  62
  7
 10
4.10131
 20
3.93461
 30
1.42885
  0
POINT
  8
1
  6
CONTINUOUS
  62
  7
 10
4.10671
 20
3.93447
 30
1.42885
  0
POINT
  8
1
  6
CONTINUOUS
  62
  7
 10
4.11213
 20
3.93458
 30
1.42885
  0
POINT
  8
1
  6
CONTINUOUS
  62
  7
 10
4.11756
 20
3.93455
 30
1.42885
  0
POINT
  8
1
  6
CONTINUOUS
  62
  7
 10
4.12297
 20
3.93448
 30
1.42885
  0
POINT
  8
1
  6
CONTINUOUS
  62
  7
 10
4.12838
 20
3.93445
 30
1.42885
  0
POINT
  8
1
  6
CONTINUOUS
  62
  7
 10
4.13379
 20
3.93448
 30
1.42885
  0
POINT
  8
1
  6
CONTINUOUS
  62
  7
 10
4.13922
 20
3.93457
 30
1.42885
  0
POINT
  8
1
  6
CONTINUOUS
  62
  7
 10
4.14463
 20
3.93438
 30
1.42885
  0
POINT
  8
1
  6
CONTINUOUS
  62
  7
 10
4.15005
 20
3.93457
 30
1.42885
  0
POINT
  8
1
  6
CONTINUOUS
  62
  7
 10
4.15546
 20
3.93451
 30
1.42885
  0
POINT
  8
1
  6
CONTINUOUS
  62
  7
 10
4.16089
 20
3.93466
 30
1.42885
  0
POINT
  8
1
  6
CONTINUOUS
  62
  7
 10
4.16630
 20
3.93464
 30
1.42885
  0
POINT
  8
1
  6
CONTINUOUS
  62
  7
 10
4.17172
 20
3.93455
 30
1.42885
  0
POINT
  8
1
  6
CONTINUOUS
  62
  7
 10
4.17690
 20
3.93464
 30
1.42885
  0
POINT
  8
1
  6
CONTINUOUS
  62
  7
 10
4.18338
 20
3.93460
 30
1.42885
  0
POINT
  8
1
  6
CONTINUOUS
  62
  7
 10
4.18773
 20
3.93477
 30
1.42885
  0
POINT
  8
1
  6
CONTINUOUS
  62
  7
 10
4.19315
 20
3.93465
 30
1.42885
  0
POINT
  8
1
  6
CONTINUOUS
  62
  7
 10
4.19858
 20
3.93481
 30
1.42885
  0
POINT
  8
1
  6
CONTINUOUS
  62
  7
 10
4.20504
 20
3.93502
 30
1.42885
  0
POINT
  8
1
  6
CONTINUOUS
  62
  7
 10
4.20946
 20
3.93505
 30
1.42885
  0
POINT
  8
1
  6
CONTINUOUS
  62
  7
 10
4.21482
 20
3.93460
 30
1.42885
  0
POINT
  8
1
  6
CONTINUOUS
  62
  7
 10
4.22132
 20
3.93447
 30
1.42885
  0
POINT
  8
1
  6
CONTINUOUS
  62
  7
 10
4.22565
 20
3.93438
 30
1.42885
  0
POINT
  8
1
  6
CONTINUOUS
  62
  7
 10
4.23107
 20
3.93458
 30
1.42885
  0
POINT
  8
1
  6
CONTINUOUS
  62
  7
 10
4.23758
 20
3.93456
 30
1.42885
  0
POINT
  8
1
  6
CONTINUOUS
  62
  7
 10
4.24299
 20
3.93453
 30
1.42885
  0
POINT
  8
1
  6
CONTINUOUS
  62
  7
 10
4.24732
 20
3.93454
 30
1.42885
  0
POINT
  8
1
  6
CONTINUOUS
  62
  7
 10
4.25273
 20
3.93456
 30
1.42885
  0
POINT
  8
1
  6
CONTINUOUS
  62
  7
 10
4.25816
 20
3.93444
 30
1.42885
  0
POINT
  8
1
  6
CONTINUOUS
  62
  7
 10
4.26357
 20
3.93445
 30
1.42885
  0
POINT
  8
1
  6
CONTINUOUS
  62
  7
 10
4.26898
 20
3.93455
 30
1.42885
  0
POINT
  8
1
  6
CONTINUOUS
  62
  7
 10
4.27440
 20
3.93455
 30
1.42885
  0
POINT
  8
1
  6
CONTINUOUS
  62
  7
 10
4.27982
 20
3.93459
 30
1.42885
  0
POINT
  8
1
  6
CONTINUOUS
  62
  7
 10
4.28525
 20
3.93450
 30
1.42885
  0
POINT
  8
1
  6
CONTINUOUS
  62
  7
 10
4.29065
 20
3.93441
 30
1.42885
  0
POINT
  8
1
  6
CONTINUOUS
  62
  7
 10
4.29714
 20
3.93452
 30
1.42885
  0
POINT
  8
1
  6
CONTINUOUS
  62
  7
 10
4.30151
 20
3.93466
 30
1.42885
  0
POINT
  8
1
  6
CONTINUOUS
  62
  7
 10
4.30691
 20
3.93429
 30
1.42885
  0
POINT
  8
1
  6
CONTINUOUS
  62
  7
 10
4.31341
 20
3.93444
 30
1.42885
  0
POINT
  8
1
  6
CONTINUOUS
  62
  7
 10
4.31775
 20
3.93442
 30
1.42885
  0
POINT
  8
1
  6
CONTINUOUS
  62
  7
 10
4.32316
 20
3.93427
 30
1.42885
  0
POINT
  8
1
  6
CONTINUOUS
  62
  7
 10
4.32886
 20
3.93461
 30
1.42885
  0
POINT
  8
1
  6
CONTINUOUS
  62
  7
 10
4.33435
 20
3.93616
 30
1.42885
  0
POINT
  8
1
  6
CONTINUOUS
  62
  7
 10
4.33939
 20
3.93430
 30
1.42885
  0
POINT
  8
1
  6
CONTINUOUS
  62
  7
 10
4.34485
 20
3.93395
 30
1.42885
  0
POINT
  8
1
  6
CONTINUOUS
  62
  7
 10
4.35025
 20
3.93401
 30
1.42885
  0
POINT
  8
1
  6
CONTINUOUS
  62
  7
 10
4.35458
 20
3.93411
 30
1.42885
  0
POINT
  8
1
  6
CONTINUOUS
  62
  7
 10
4.36108
 20
3.93408
 30
1.42885
  0
POINT
  8
1
  6
CONTINUOUS
  62
  7
 10
4.36649
 20
3.93415
 30
1.42885
  0
POINT
  8
1
  6
CONTINUOUS
  62
  7
 10
4.37191
 20
3.93393
 30
1.42885
  0
POINT
  8
1
  6
CONTINUOUS
  62
  7
 10
4.37733
 20
3.93403
 30
1.42885
  0
POINT
  8
1
  6
CONTINUOUS
  62
  7
 10
4.38274
 20
3.93416
 30
1.42885
  0
POINT
  8
1
  6
CONTINUOUS
  62
  7
 10
4.38816
 20
3.93396
 30
1.42885
  0
POINT
  8
1
  6
CONTINUOUS
  62
  7
 10
4.39358
 20
3.93390
 30
1.42885
  0
POINT
  8
1
  6
CONTINUOUS
  62
  7
 10
4.39900
 20
3.93376
 30
1.42885
  0
POINT
  8
1
  6
CONTINUOUS
  62
  7
 10
4.40437
 20
3.93381
 30
1.42885
  0
POINT
  8
1
  6
CONTINUOUS
  62
  7
 10
4.40983
 20
3.93401
 30
1.42885
  0
POINT
  8
1
  6
CONTINUOUS
  62
  7
 10
4.41525
 20
3.93393
 30
1.42885
  0
POINT
  8
1
  6
CONTINUOUS
  62
  7
 10
4.42068
 20
3.93384
 30
1.42885
  0
POINT
  8
1
  6
CONTINUOUS
  62
  7
 10
4.42608
 20
3.93386
 30
1.42885
  0
POINT
  8
1
  6
CONTINUOUS
  62
  7
 10
4.43080
 20
3.93388
 30
1.42885
  0
POINT
  8
1
  6
CONTINUOUS
  62
  7
 10
4.43730
 20
3.93393
 30
1.42885
  0
POINT
  8
1
  6
CONTINUOUS
  62
  7
 10
4.44162
 20
3.93381
 30
1.42885
  0
POINT
  8
1
  6
CONTINUOUS
  62
  7
 10
4.44704
 20
3.93383
 30
1.42885
  0
POINT
  8
1
  6
CONTINUOUS
  62
  7
 10
4.45354
 20
3.93376
 30
1.42885
  0
POINT
  8
1
  6
CONTINUOUS
  62
  7
 10
4.45896
 20
3.93390
 30
1.42885
  0
POINT
  8
1
  6
CONTINUOUS
  62
  7
 10
4.46329
 20
3.93377
 30
1.42885
  0
POINT
  8
1
  6
CONTINUOUS
  62
  7
 10
4.46870
 20
3.93403
 30
1.42885
  0
POINT
  8
1
  6
CONTINUOUS
  62
  7
 10
4.47521
 20
3.93382
 30
1.42885
  0
POINT
  8
1
  6
CONTINUOUS
  62
  7
 10
4.47954
 20
3.93378
 30
1.42885
  0
POINT
  8
1
  6
CONTINUOUS
  62
  7
 10
4.48496
 20
3.93392
 30
1.42885
  0
POINT
  8
1
  6
CONTINUOUS
  62
  7
 10
4.49141
 20
3.93409
 30
1.42885
  0
POINT
  8
1
  6
CONTINUOUS
  62
  7
 10
4.49682
 20
3.93473
 30
1.42885
  0
POINT
  8
1
  6
CONTINUOUS
  62
  7
 10
4.50119
 20
3.93516
 30
1.42885
  0
POINT
  8
1
  6
CONTINUOUS
  62
  7
 10
4.50659
 20
3.93494
 30
1.42885
  0
POINT
  8
1
  6
CONTINUOUS
  62
  7
 10
4.51190
 20
3.93562
 30
1.42885
  0
POINT
  8
1
  6
CONTINUOUS
  62
  7
 10
4.51739
 20
3.93389
 30
1.42885
  0
POINT
  8
1
  6
CONTINUOUS
  62
  7
 10
4.52401
 20
3.93392
 30
1.42885
  0
POINT
  8
1
  6
CONTINUOUS
  62
  7
 10
4.52936
 20
3.93379
 30
1.42885
  0
POINT
  8
1
  6
CONTINUOUS
  62
  7
 10
4.53478
 20
3.93368
 30
1.42885
  0
POINT
  8
1
  6
CONTINUOUS
  62
  7
 10
4.54024
 20
3.93372
 30
1.42885
  0
POINT
  8
1
  6
CONTINUOUS
  62
  7
 10
4.54563
 20
3.93377
 30
1.42885
  0
POINT
  8
1
  6
CONTINUOUS
  62
  7
 10
4.55107
 20
3.93386
 30
1.42885
  0
POINT
  8
1
  6
CONTINUOUS
  62
  7
 10
4.55646
 20
3.93391
 30
1.42885
  0
POINT
  8
1
  6
CONTINUOUS
  62
  7
 10
4.56189
 20
3.93380
 30
1.42885
  0
POINT
  8
1
  6
CONTINUOUS
  62
  7
 10
4.56621
 20
3.93365
 30
1.42885
  0
POINT
  8
1
  6
CONTINUOUS
  62
  7
 10
4.57271
 20
3.93359
 30
1.42885
  0
POINT
  8
1
  6
CONTINUOUS
  62
  7
 10
4.57813
 20
3.93381
 30
1.42885
  0
POINT
  8
1
  6
CONTINUOUS
  62
  7
 10
4.58355
 20
3.93366
 30
1.42885
  0
POINT
  8
1
  6
CONTINUOUS
  62
  7
 10
4.58788
 20
3.93366
 30
1.42885
  0
POINT
  8
1
  6
CONTINUOUS
  62
  7
 10
4.59438
 20
3.93347
 30
1.42885
  0
POINT
  8
1
  6
CONTINUOUS
  62
  7
 10
4.59979
 20
3.93367
 30
1.42885
  0
POINT
  8
1
  6
CONTINUOUS
  62
  7
 10
4.60522
 20
3.93363
 30
1.42885
  0
POINT
  8
1
  6
CONTINUOUS
  62
  7
 10
4.61064
 20
3.93374
 30
1.42885
  0
POINT
  8
1
  6
CONTINUOUS
  62
  7
 10
4.61603
 20
3.93373
 30
1.42885
  0
POINT
  8
1
  6
CONTINUOUS
  62
  7
 10
4.62148
 20
3.93398
 30
1.42885
  0
POINT
  8
1
  6
CONTINUOUS
  62
  7
 10
4.62688
 20
3.93353
 30
1.42885
  0
POINT
  8
1
  6
CONTINUOUS
  62
  7
 10
4.63230
 20
3.93358
 30
1.42885
  0
POINT
  8
1
  6
CONTINUOUS
  62
  7
 10
4.63773
 20
3.93382
 30
1.42885
  0
POINT
  8
1
  6
CONTINUOUS
  62
  7
 10
4.64205
 20
3.93365
 30
1.42885
  0
POINT
  8
1
  6
CONTINUOUS
  62
  7
 10
4.64747
 20
3.93362
 30
1.42885
  0
POINT
  8
1
  6
CONTINUOUS
  62
  7
 10
4.65396
 20
3.93336
 30
1.42885
  0
POINT
  8
1
  6
CONTINUOUS
  62
  7
 10
4.65939
 20
3.93331
 30
1.42885
  0
POINT
  8
1
  6
CONTINUOUS
  62
  7
 10
4.66372
 20
3.93333
 30
1.42885
  0
POINT
  8
1
  6
CONTINUOUS
  62
  7
 10
4.66914
 20
3.93339
 30
1.42885
  0
POINT
  8
1
  6
CONTINUOUS
  62
  7
 10
4.67564
 20
3.93321
 30
1.42885
  0
POINT
  8
1
  6
CONTINUOUS
  62
  7
 10
4.68105
 20
3.93319
 30
1.42885
  0
POINT
  8
1
  6
CONTINUOUS
  62
  7
 10
4.68647
 20
3.93311
 30
1.42885
  0
POINT
  8
1
  6
CONTINUOUS
  62
  7
 10
4.69187
 20
3.93325
 30
1.42885
  0
POINT
  8
1
  6
CONTINUOUS
  62
  7
 10
4.69729
 20
3.93332
 30
1.42885
  0
POINT
  8
1
  6
CONTINUOUS
  62
  7
 10
4.70269
 20
3.93329
 30
1.42885
  0
POINT
  8
1
  6
CONTINUOUS
  62
  7
 10
4.70812
 20
3.93318
 30
1.42885
  0
POINT
  8
1
  6
CONTINUOUS
  62
  7
 10
4.71356
 20
3.93322
 30
1.42885
  0
POINT
  8
1
  6
CONTINUOUS
  62
  7
 10
4.71787
 20
3.93346
 30
1.42885
  0
POINT
  8
1
  6
CONTINUOUS
  62
  7
 10
4.72329
 20
3.93347
 30
1.42885
  0
POINT
  8
1
  6
CONTINUOUS
  62
  7
 10
4.72979
 20
3.93314
 30
1.42885
  0
POINT
  8
1
  6
CONTINUOUS
  62
  7
 10
4.73520
 20
3.93326
 30
1.42885
  0
POINT
  8
1
  6
CONTINUOUS
  62
  7
 10
4.73955
 20
3.93321
 30
1.42885
  0
POINT
  8
1
  6
CONTINUOUS
  62
  7
 10
4.74496
 20
3.93313
 30
1.42885
  0
POINT
  8
1
  6
CONTINUOUS
  62
  7
 10
4.75145
 20
3.93322
 30
1.42885
  0
POINT
  8
1
  6
CONTINUOUS
  62
  7
 10
4.75579
 20
3.93324
 30
1.42885
  0
POINT
  8
1
  6
CONTINUOUS
  62
  7
 10
4.76121
 20
3.93336
 30
1.42885
  0
POINT
  8
1
  6
CONTINUOUS
  62
  7
 10
4.76770
 20
3.93309
 30
1.42885
  0
POINT
  8
1
  6
CONTINUOUS
  62
  7
 10
4.77312
 20
3.93319
 30
1.42885
  0
POINT
  8
1
  6
CONTINUOUS
  62
  7
 10
4.77855
 20
3.93311
 30
1.42885
  0
POINT
  8
1
  6
CONTINUOUS
  62
  7
 10
4.78288
 20
3.93305
 30
1.42885
  0
POINT
  8
1
  6
CONTINUOUS
  62
  7
 10
4.78938
 20
3.93295
 30
1.42885
  0
POINT
  8
1
  6
CONTINUOUS
  62
  7
 10
4.79371
 20
3.93273
 30
1.42885
  0
POINT
  8
1
  6
CONTINUOUS
  62
  7
 10
4.80020
 20
3.93293
 30
1.42885
  0
POINT
  8
1
  6
CONTINUOUS
  62
  7
 10
4.80563
 20
3.93303
 30
1.42885
  0
POINT
  8
1
  6
CONTINUOUS
  62
  7
 10
4.81104
 20
3.93307
 30
1.42885
  0
POINT
  8
1
  6
CONTINUOUS
  62
  7
 10
4.81539
 20
3.93299
 30
1.42885
  0
POINT
  8
1
  6
CONTINUOUS
  62
  7
 10
4.82079
 20
3.93313
 30
1.42885
  0
POINT
  8
1
  6
CONTINUOUS
  62
  7
 10
4.82730
 20
3.93299
 30
1.42885
  0
POINT
  8
1
  6
CONTINUOUS
  62
  7
 10
4.83162
 20
3.93301
 30
1.42885
  0
POINT
  8
1
  6
CONTINUOUS
  62
  7
 10
4.83813
 20
3.93318
 30
1.42885
  0
POINT
  8
1
  6
CONTINUOUS
  62
  7
 10
4.84356
 20
3.93323
 30
1.42885
  0
POINT
  8
1
  6
CONTINUOUS
  62
  7
 10
4.84897
 20
3.93285
 30
1.42885
  0
POINT
  8
1
  6
CONTINUOUS
  62
  7
 10
4.85330
 20
3.93270
 30
1.42885
  0
POINT
  8
1
  6
CONTINUOUS
  62
  7
 10
4.85979
 20
3.93300
 30
1.42885
  0
POINT
  8
1
  6
CONTINUOUS
  62
  7
 10
4.86521
 20
3.93327
 30
1.42885
  0
POINT
  8
1
  6
CONTINUOUS
  62
  7
 10
4.86957
 20
3.93308
 30
1.42885
  0
POINT
  8
1
  6
CONTINUOUS
  62
  7
 10
4.87497
 20
3.93278
 30
1.42885
  0
POINT
  8
1
  6
CONTINUOUS
  62
  7
 10
4.88146
 20
3.93300
 30
1.42885
  0
POINT
  8
1
  6
CONTINUOUS
  62
  7
 10
4.88688
 20
3.93299
 30
1.42885
  0
POINT
  8
1
  6
CONTINUOUS
  62
  7
 10
4.89122
 20
3.93301
 30
1.42885
  0
POINT
  8
1
  6
CONTINUOUS
  62
  7
 10
4.89772
 20
3.93311
 30
1.42885
  0
POINT
  8
1
  6
CONTINUOUS
  62
  7
 10
4.90313
 20
3.93289
 30
1.42885
  0
POINT
  8
1
  6
CONTINUOUS
  62
  7
 10
4.90747
 20
3.93290
 30
1.42885
  0
POINT
  8
1
  6
CONTINUOUS
  62
  7
 10
4.91397
 20
3.93293
 30
1.42885
  0
POINT
  8
1
  6
CONTINUOUS
  62
  7
 10
4.91939
 20
3.93301
 30
1.42885
  0
POINT
  8
1
  6
CONTINUOUS
  62
  7
 10
4.92373
 20
3.93292
 30
1.42885
  0
POINT
  8
1
  6
CONTINUOUS
  62
  7
 10
4.92913
 20
3.93310
 30
1.42885
  0
POINT
  8
1
  6
CONTINUOUS
  62
  7
 10
4.93453
 20
3.93278
 30
1.42885
  0
POINT
  8
1
  6
CONTINUOUS
  62
  7
 10
4.94105
 20
3.93294
 30
1.42885
  0
POINT
  8
1
  6
CONTINUOUS
  62
  7
 10
4.94540
 20
3.93296
 30
1.42885
  0
POINT
  8
1
  6
CONTINUOUS
  62
  7
 10
4.95131
 20
3.93297
 30
1.42883
  0
POINT
  8
1
  6
CONTINUOUS
  62
  7
 10
4.95565
 20
3.93300
 30
1.42883
  0
POINT
  8
1
  6
CONTINUOUS
  62
  7
 10
4.96215
 20
3.93313
 30
1.42883
  0
POINT
  8
1
  6
CONTINUOUS
  62
  7
 10
4.96758
 20
3.93307
 30
1.42883
  0
POINT
  8
1
  6
CONTINUOUS
  62
  7
 10
4.97190
 20
3.93287
 30
1.42883
  0
POINT
  8
1
  6
CONTINUOUS
  62
  7
 10
4.97731
 20
3.93301
 30
1.42883
  0
POINT
  8
1
  6
CONTINUOUS
  62
  7
 10
4.98382
 20
3.93306
 30
1.42883
  0
POINT
  8
1
  6
CONTINUOUS
  62
  7
 10
4.98922
 20
3.93288
 30
1.42883
  0
POINT
  8
1
  6
CONTINUOUS
  62
  7
 10
4.99359
 20
3.93275
 30
1.42883
  0
POINT
  8
1
  6
CONTINUOUS
  62
  7
 10
4.99898
 20
3.93269
 30
1.42883
  0
POINT
  8
1
  6
CONTINUOUS
  62
  7
 10
5.00549
 20
3.93266
 30
1.42883
  0
POINT
  8
1
  6
CONTINUOUS
  62
  7
 10
5.00982
 20
3.93266
 30
1.42883
  0
POINT
  8
1
  6
CONTINUOUS
  62
  7
 10
5.01524
 20
3.93268
 30
1.42883
  0
POINT
  8
1
  6
CONTINUOUS
  62
  7
 10
5.02174
 20
3.93280
 30
1.42883
  0
POINT
  8
1
  6
CONTINUOUS
  62
  7
 10
5.02714
 20
3.93284
 30
1.42883
  0
POINT
  8
1
  6
CONTINUOUS
  62
  7
 10
5.03150
 20
3.93314
 30
1.42883
  0
POINT
  8
1
  6
CONTINUOUS
  62
  7
 10
5.03693
 20
3.93277
 30
1.42883
  0
POINT
  8
1
  6
CONTINUOUS
  62
  7
 10
5.04340
 20
3.93262
 30
1.42883
  0
POINT
  8
1
  6
CONTINUOUS
  62
  7
 10
5.04773
 20
3.93262
 30
1.42883
  0
POINT
  8
1
  6
CONTINUOUS
  62
  7
 10
5.05316
 20
3.93254
 30
1.42883
  0
POINT
  8
1
  6
CONTINUOUS
  62
  7
 10
5.05965
 20
3.93265
 30
1.42883
  0
POINT
  8
1
  6
CONTINUOUS
  62
  7
 10
5.06507
 20
3.93257
 30
1.42883
  0
POINT
  8
1
  6
CONTINUOUS
  62
  7
 10
5.06942
 20
3.93253
 30
1.42883
  0
POINT
  8
1
  6
CONTINUOUS
  62
  7
 10
5.07483
 20
3.93232
 30
1.42883
  0
POINT
  8
1
  6
CONTINUOUS
  62
  7
 10
5.08133
 20
3.93254
 30
1.42883
  0
POINT
  8
1
  6
CONTINUOUS
  62
  7
 10
5.08674
 20
3.93257
 30
1.42883
  0
POINT
  8
1
  6
CONTINUOUS
  62
  7
 10
5.09216
 20
3.93235
 30
1.42883
  0
POINT
  8
1
  6
CONTINUOUS
  62
  7
 10
5.09758
 20
3.93220
 30
1.42883
  0
POINT
  8
1
  6
CONTINUOUS
  62
  7
 10
5.10299
 20
3.93225
 30
1.42883
  0
POINT
  8
1
  6
CONTINUOUS
  62
  7
 10
5.10841
 20
3.93223
 30
1.42883
  0
POINT
  8
1
  6
CONTINUOUS
  62
  7
 10
5.11384
 20
3.93212
 30
1.42883
  0
POINT
  8
1
  6
CONTINUOUS
  62
  7
 10
5.11924
 20
3.93199
 30
1.42883
  0
POINT
  8
1
  6
CONTINUOUS
  62
  7
 10
5.12466
 20
3.93220
 30
1.42883
  0
POINT
  8
1
  6
CONTINUOUS
  62
  7
 10
5.13008
 20
3.93227
 30
1.42883
  0
POINT
  8
1
  6
CONTINUOUS
  62
  7
 10
5.13550
 20
3.93222
 30
1.42883
  0
POINT
  8
1
  6
CONTINUOUS
  62
  7
 10
5.14091
 20
3.93213
 30
1.42883
  0
POINT
  8
1
  6
CONTINUOUS
  62
  7
 10
5.14633
 20
3.93210
 30
1.42883
  0
POINT
  8
1
  6
CONTINUOUS
  62
  7
 10
5.15175
 20
3.93212
 30
1.42883
  0
POINT
  8
1
  6
CONTINUOUS
  62
  7
 10
5.15717
 20
3.93205
 30
1.42883
  0
POINT
  8
1
  6
CONTINUOUS
  62
  7
 10
5.16259
 20
3.93235
 30
1.42883
  0
POINT
  8
1
  6
CONTINUOUS
  62
  7
 10
5.16799
 20
3.93204
 30
1.42883
  0
POINT
  8
1
  6
CONTINUOUS
  62
  7
 10
5.17341
 20
3.93204
 30
1.42883
  0
POINT
  8
1
  6
CONTINUOUS
  62
  7
 10
5.17883
 20
3.93202
 30
1.42883
  0
POINT
  8
1
  6
CONTINUOUS
  62
  7
 10
5.18426
 20
3.93197
 30
1.42883
  0
POINT
  8
1
  6
CONTINUOUS
  62
  7
 10
5.18965
 20
3.93210
 30
1.42883
  0
POINT
  8
1
  6
CONTINUOUS
  62
  7
 10
5.19508
 20
3.93200
 30
1.42883
  0
POINT
  8
1
  6
CONTINUOUS
  62
  7
 10
5.20050
 20
3.93210
 30
1.42883
  0
POINT
  8
1
  6
CONTINUOUS
  62
  7
 10
5.20593
 20
3.93213
 30
1.42883
  0
POINT
  8
1
  6
CONTINUOUS
  62
  7
 10
5.21135
 20
3.93220
 30
1.42883
  0
POINT
  8
1
  6
CONTINUOUS
  62
  7
 10
5.21568
 20
3.93225
 30
1.42883
  0
POINT
  8
1
  6
CONTINUOUS
  62
  7
 10
5.22220
 20
3.93232
 30
1.42883
  0
POINT
  8
1
  6
CONTINUOUS
  62
  7
 10
5.22869
 20
3.93200
 30
1.42883
  0
POINT
  8
1
  6
CONTINUOUS
  62
  7
 10
5.23301
 20
3.93205
 30
1.42883
  0
POINT
  8
1
  6
CONTINUOUS
  62
  7
 10
5.23844
 20
3.93228
 30
1.42883
  0
POINT
  8
1
  6
CONTINUOUS
  62
  7
 10
5.24382
 20
3.93230
 30
1.42883
  0
POINT
  8
1
  6
CONTINUOUS
  62
  7
 10
5.24928
 20
3.93254
 30
1.42883
  0
POINT
  8
1
  6
CONTINUOUS
  62
  7
 10
5.25468
 20
3.93229
 30
1.42883
  0
POINT
  8
1
  6
CONTINUOUS
  62
  7
 10
5.26014
 20
3.93229
 30
1.42883
  0
POINT
  8
1
  6
CONTINUOUS
  62
  7
 10
5.26553
 20
3.93194
 30
1.42883
  0
POINT
  8
1
  6
CONTINUOUS
  62
  7
 10
5.26986
 20
3.93205
 30
1.42883
  0
POINT
  8
1
  6
CONTINUOUS
  62
  7
 10
5.27637
 20
3.93204
 30
1.42883
  0
POINT
  8
1
  6
CONTINUOUS
  62
  7
 10
5.28177
 20
3.93184
 30
1.42883
  0
POINT
  8
1
  6
CONTINUOUS
  62
  7
 10
5.28611
 20
3.93193
 30
1.42883
  0
POINT
  8
1
  6
CONTINUOUS
  62
  7
 10
5.29261
 20
3.93179
 30
1.42883
  0
POINT
  8
1
  6
CONTINUOUS
  62
  7
 10
5.29802
 20
3.93189
 30
1.42883
  0
POINT
  8
1
  6
CONTINUOUS
  62
  7
 10
5.30344
 20
3.93191
 30
1.42883
  0
POINT
  8
1
  6
CONTINUOUS
  62
  7
 10
5.30886
 20
3.93202
 30
1.42883
  0
POINT
  8
1
  6
CONTINUOUS
  62
  7
 10
5.31428
 20
3.93181
 30
1.42883
  0
POINT
  8
1
  6
CONTINUOUS
  62
  7
 10
5.31969
 20
3.93195
 30
1.42883
  0
POINT
  8
1
  6
CONTINUOUS
  62
  7
 10
5.32511
 20
3.93192
 30
1.42883
  0
POINT
  8
1
  6
CONTINUOUS
  62
  7
 10
5.33052
 20
3.93185
 30
1.42883
  0
POINT
  8
1
  6
CONTINUOUS
  62
  7
 10
5.33593
 20
3.93186
 30
1.42883
  0
POINT
  8
1
  6
CONTINUOUS
  62
  7
 10
5.34137
 20
3.93188
 30
1.42883
  0
POINT
  8
1
  6
CONTINUOUS
  62
  7
 10
5.34678
 20
3.93165
 30
1.42883
  0
POINT
  8
1
  6
CONTINUOUS
  62
  7
 10
5.35112
 20
3.93166
 30
1.42883
  0
POINT
  8
1
  6
CONTINUOUS
  62
  7
 10
5.35761
 20
3.93156
 30
1.42883
  0
POINT
  8
1
  6
CONTINUOUS
  62
  7
 10
5.36302
 20
3.93159
 30
1.42883
  0
POINT
  8
1
  6
CONTINUOUS
  62
  7
 10
5.36844
 20
3.93165
 30
1.42883
  0
POINT
  8
1
  6
CONTINUOUS
  62
  7
 10
5.37386
 20
3.93176
 30
1.42883
  0
POINT
  8
1
  6
CONTINUOUS
  62
  7
 10
5.37929
 20
3.93155
 30
1.42883
  0
POINT
  8
1
  6
CONTINUOUS
  62
  7
 10
5.38470
 20
3.93147
 30
1.42883
  0
POINT
  8
1
  6
CONTINUOUS
  62
  7
 10
5.39012
 20
3.93138
 30
1.42883
  0
POINT
  8
1
  6
CONTINUOUS
  62
  7
 10
5.39552
 20
3.93138
 30
1.42883
  0
POINT
  8
1
  6
CONTINUOUS
  62
  7
 10
5.40095
 20
3.93138
 30
1.42883
  0
POINT
  8
1
  6
CONTINUOUS
  62
  7
 10
5.40636
 20
3.93132
 30
1.42883
  0
POINT
  8
1
  6
CONTINUOUS
  62
  7
 10
5.41178
 20
3.93141
 30
1.42883
  0
POINT
  8
1
  6
CONTINUOUS
  62
  7
 10
5.41718
 20
3.93164
 30
1.42883
  0
POINT
  8
1
  6
CONTINUOUS
  62
  7
 10
5.42261
 20
3.93156
 30
1.42883
  0
POINT
  8
1
  6
CONTINUOUS
  62
  7
 10
5.42804
 20
3.93120
 30
1.42883
  0
POINT
  8
1
  6
CONTINUOUS
  62
  7
 10
5.43344
 20
3.93145
 30
1.42883
  0
POINT
  8
1
  6
CONTINUOUS
  62
  7
 10
5.43887
 20
3.93133
 30
1.42883
  0
POINT
  8
1
  6
CONTINUOUS
  62
  7
 10
5.44428
 20
3.93144
 30
1.42883
  0
POINT
  8
1
  6
CONTINUOUS
  62
  7
 10
5.44973
 20
3.93144
 30
1.42883
  0
POINT
  8
1
  6
CONTINUOUS
  62
  7
 10
5.45512
 20
3.93112
 30
1.42883
  0
POINT
  8
1
  6
CONTINUOUS
  62
  7
 10
5.46052
 20
3.93144
 30
1.42883
  0
POINT
  8
1
  6
CONTINUOUS
  62
  7
 10
5.46581
 20
3.93147
 30
1.42883
  0
POINT
  8
1
  6
CONTINUOUS
  62
  7
 10
5.47120
 20
3.93170
 30
1.42883
  0
POINT
  8
1
  6
CONTINUOUS
  62
  7
 10
5.47664
 20
3.93174
 30
1.42883
  0
POINT
  8
1
  6
CONTINUOUS
  62
  7
 10
5.48208
 20
3.93162
 30
1.42883
  0
POINT
  8
1
  6
CONTINUOUS
  62
  7
 10
5.48748
 20
3.93152
 30
1.42883
  0
POINT
  8
1
  6
CONTINUOUS
  62
  7
 10
5.49290
 20
3.93144
 30
1.42883
  0
POINT
  8
1
  6
CONTINUOUS
  62
  7
 10
5.49830
 20
3.93146
 30
1.42883
  0
POINT
  8
1
  6
CONTINUOUS
  62
  7
 10
5.50373
 20
3.93150
 30
1.42883
  0
POINT
  8
1
  6
CONTINUOUS
  62
  7
 10
5.51023
 20
3.93148
 30
1.42883
  0
POINT
  8
1
  6
CONTINUOUS
  62
  7
 10
5.51457
 20
3.93140
 30
1.42883
  0
POINT
  8
1
  6
CONTINUOUS
  62
  7
 10
5.51998
 20
3.93134
 30
1.42883
  0
POINT
  8
1
  6
CONTINUOUS
  62
  7
 10
5.52540
 20
3.93153
 30
1.42883
  0
POINT
  8
1
  6
CONTINUOUS
  62
  7
 10
5.53082
 20
3.93142
 30
1.42883
  0
POINT
  8
1
  6
CONTINUOUS
  62
  7
 10
5.53624
 20
3.93154
 30
1.42883
  0
POINT
  8
1
  6
CONTINUOUS
  62
  7
 10
5.54165
 20
3.93128
 30
1.42883
  0
POINT
  8
1
  6
CONTINUOUS
  62
  7
 10
5.54707
 20
3.93145
 30
1.42883
  0
POINT
  8
1
  6
CONTINUOUS
  62
  7
 10
5.55249
 20
3.93139
 30
1.42883
  0
POINT
  8
1
  6
CONTINUOUS
  62
  7
 10
5.55790
 20
3.93127
 30
1.42883
  0
POINT
  8
1
  6
CONTINUOUS
  62
  7
 10
5.56330
 20
3.93136
 30
1.42883
  0
POINT
  8
1
  6
CONTINUOUS
  62
  7
 10
5.56872
 20
3.93160
 30
1.42883
  0
POINT
  8
1
  6
CONTINUOUS
  62
  7
 10
5.57418
 20
3.93160
 30
1.42883
  0
POINT
  8
1
  6
CONTINUOUS
  62
  7
 10
5.57956
 20
3.93131
 30
1.42883
  0
POINT
  8
1
  6
CONTINUOUS
  62
  7
 10
5.58499
 20
3.93145
 30
1.42883
  0
POINT
  8
1
  6
CONTINUOUS
  62
  7
 10
5.59041
 20
3.93140
 30
1.42883
  0
POINT
  8
1
  6
CONTINUOUS
  62
  7
 10
5.59580
 20
3.93155
 30
1.42883
  0
POINT
  8
1
  6
CONTINUOUS
  62
  7
 10
5.60127
 20
3.93161
 30
1.42883
  0
POINT
  8
1
  6
CONTINUOUS
  62
  7
 10
5.60667
 20
3.93113
 30
1.42883
  0
POINT
  8
1
  6
CONTINUOUS
  62
  7
 10
5.61205
 20
3.93110
 30
1.42883
  0
POINT
  8
1
  6
CONTINUOUS
  62
  7
 10
5.61752
 20
3.93139
 30
1.42883
  0
POINT
  8
1
  6
CONTINUOUS
  62
  7
 10
5.62290
 20
3.93101
 30
1.42883
  0
POINT
  8
1
  6
CONTINUOUS
  62
  7
 10
5.62832
 20
3.93139
 30
1.42883
  0
POINT
  8
1
  6
CONTINUOUS
  62
  7
 10
5.63374
 20
3.93125
 30
1.42883
  0
POINT
  8
1
  6
CONTINUOUS
  62
  7
 10
5.63916
 20
3.93134
 30
1.42883
  0
POINT
  8
1
  6
CONTINUOUS
  62
  7
 10
5.64458
 20
3.93117
 30
1.42883
  0
POINT
  8
1
  6
CONTINUOUS
  62
  7
 10
5.64999
 20
3.93129
 30
1.42883
  0
POINT
  8
1
  6
CONTINUOUS
  62
  7
 10
5.65541
 20
3.93108
 30
1.42883
  0
POINT
  8
1
  6
CONTINUOUS
  62
  7
 10
5.66083
 20
3.93115
 30
1.42883
  0
POINT
  8
1
  6
CONTINUOUS
  62
  7
 10
5.66625
 20
3.93101
 30
1.42883
  0
POINT
  8
1
  6
CONTINUOUS
  62
  7
 10
5.67166
 20
3.93105
 30
1.42883
  0
POINT
  8
1
  6
CONTINUOUS
  62
  7
 10
5.67708
 20
3.93108
 30
1.42883
  0
POINT
  8
1
  6
CONTINUOUS
  62
  7
 10
5.68250
 20
3.93098
 30
1.42883
  0
POINT
  8
1
  6
CONTINUOUS
  62
  7
 10
5.68791
 20
3.93089
 30
1.42883
  0
POINT
  8
1
  6
CONTINUOUS
  62
  7
 10
5.69331
 20
3.93099
 30
1.42883
  0
POINT
  8
1
  6
CONTINUOUS
  62
  7
 10
5.69983
 20
3.93097
 30
1.42883
  0
POINT
  8
1
  6
CONTINUOUS
  62
  7
 10
5.70418
 20
3.93102
 30
1.42883
  0
POINT
  8
1
  6
CONTINUOUS
  62
  7
 10
5.70960
 20
3.93079
 30
1.42883
  0
POINT
  8
1
  6
CONTINUOUS
  62
  7
 10
5.71500
 20
3.93085
 30
1.42883
  0
POINT
  8
1
  6
CONTINUOUS
  62
  7
 10
5.72044
 20
3.93095
 30
1.42883
  0
POINT
  8
1
  6
CONTINUOUS
  62
  7
 10
5.72585
 20
3.93082
 30
1.42883
  0
POINT
  8
1
  6
CONTINUOUS
  62
  7
 10
5.73126
 20
3.93091
 30
1.42883
  0
POINT
  8
1
  6
CONTINUOUS
  62
  7
 10
5.73665
 20
3.93120
 30
1.42883
  0
POINT
  8
1
  6
CONTINUOUS
  62
  7
 10
5.74210
 20
3.93112
 30
1.42883
  0
POINT
  8
1
  6
CONTINUOUS
  62
  7
 10
5.74752
 20
3.93104
 30
1.42883
  0
POINT
  8
1
  6
CONTINUOUS
  62
  7
 10
5.75294
 20
3.93094
 30
1.42883
  0
POINT
  8
1
  6
CONTINUOUS
  62
  7
 10
5.75836
 20
3.93095
 30
1.42883
  0
POINT
  8
1
  6
CONTINUOUS
  62
  7
 10
5.76376
 20
3.93089
 30
1.42883
  0
POINT
  8
1
  6
CONTINUOUS
  62
  7
 10
5.76918
 20
3.93106
 30
1.42883
  0
POINT
  8
1
  6
CONTINUOUS
  62
  7
 10
5.77461
 20
3.93090
 30
1.42883
  0
POINT
  8
1
  6
CONTINUOUS
  62
  7
 10
5.78110
 20
3.93110
 30
1.42883
  0
POINT
  8
1
  6
CONTINUOUS
  62
  7
 10
5.78543
 20
3.93090
 30
1.42883
  0
POINT
  8
1
  6
CONTINUOUS
  62
  7
 10
5.79086
 20
3.93071
 30
1.42883
  0
POINT
  8
1
  6
CONTINUOUS
  62
  7
 10
5.79626
 20
3.93081
 30
1.42883
  0
POINT
  8
1
  6
CONTINUOUS
  62
  7
 10
5.80173
 20
3.93094
 30
1.42883
  0
POINT
  8
1
  6
CONTINUOUS
  62
  7
 10
5.80711
 20
3.93051
 30
1.42883
  0
POINT
  8
1
  6
CONTINUOUS
  62
  7
 10
5.81248
 20
3.93062
 30
1.42883
  0
POINT
  8
1
  6
CONTINUOUS
  62
  7
 10
5.81793
 20
3.93087
 30
1.42883
  0
POINT
  8
1
  6
CONTINUOUS
  62
  7
 10
5.82335
 20
3.93114
 30
1.42883
  0
POINT
  8
1
  6
CONTINUOUS
  62
  7
 10
5.82874
 20
3.93128
 30
1.42883
  0
POINT
  8
1
  6
CONTINUOUS
  62
  7
 10
5.83420
 20
3.93162
 30
1.42883
  0
POINT
  8
1
  6
CONTINUOUS
  62
  7
 10
5.83960
 20
3.93095
 30
1.42883
  0
POINT
  8
1
  6
CONTINUOUS
  62
  7
 10
5.84393
 20
3.93057
 30
1.42883
  0
POINT
  8
1
  6
CONTINUOUS
  62
  7
 10
5.85044
 20
3.93057
 30
1.42883
  0
POINT
  8
1
  6
CONTINUOUS
  62
  7
 10
5.85586
 20
3.93061
 30
1.42883
  0
POINT
  8
1
  6
CONTINUOUS
  62
  7
 10
5.86127
 20
3.93071
 30
1.42883
  0
POINT
  8
1
  6
CONTINUOUS
  62
  7
 10
5.86670
 20
3.93081
 30
1.42883
  0
POINT
  8
1
  6
CONTINUOUS
  62
  7
 10
5.87212
 20
3.93058
 30
1.42883
  0
POINT
  8
1
  6
CONTINUOUS
  62
  7
 10
5.87752
 20
3.93065
 30
1.42883
  0
POINT
  8
1
  6
CONTINUOUS
  62
  7
 10
5.88294
 20
3.93090
 30
1.42883
  0
POINT
  8
1
  6
CONTINUOUS
  62
  7
 10
5.88836
 20
3.93072
 30
1.42883
  0
POINT
  8
1
  6
CONTINUOUS
  62
  7
 10
5.89377
 20
3.93094
 30
1.42883
  0
POINT
  8
1
  6
CONTINUOUS
  62
  7
 10
5.89920
 20
3.93080
 30
1.42883
  0
POINT
  8
1
  6
CONTINUOUS
  62
  7
 10
5.90460
 20
3.93087
 30
1.42883
  0
POINT
  8
1
  6
CONTINUOUS
  62
  7
 10
5.91004
 20
3.93093
 30
1.42883
  0
POINT
  8
1
  6
CONTINUOUS
  62
  7
 10
5.91545
 20
3.93058
 30
1.42883
  0
POINT
  8
1
  6
CONTINUOUS
  62
  7
 10
5.92086
 20
3.93050
 30
1.42883
  0
POINT
  8
1
  6
CONTINUOUS
  62
  7
 10
5.92627
 20
3.93076
 30
1.42883
  0
POINT
  8
1
  6
CONTINUOUS
  62
  7
 10
5.93061
 20
3.93077
 30
1.42883
  0
POINT
  8
1
  6
CONTINUOUS
  62
  7
 10
5.93602
 20
3.93097
 30
1.42883
  0
POINT
  8
1
  6
CONTINUOUS
  62
  7
 10
5.94254
 20
3.93104
 30
1.42883
  0
POINT
  8
1
  6
CONTINUOUS
  62
  7
 10
5.94796
 20
3.93080
 30
1.42883
  0
POINT
  8
1
  6
CONTINUOUS
  62
  7
 10
5.95341
 20
3.93030
 30
1.42883
  0
POINT
  8
1
  6
CONTINUOUS
  62
  7
 10
5.95879
 20
3.92976
 30
1.42883
  0
POINT
  8
1
  6
CONTINUOUS
  62
  7
 10
5.96421
 20
3.92966
 30
1.42883
  0
POINT
  8
1
  6
CONTINUOUS
  62
  7
 10
5.96962
 20
3.92943
 30
1.42883
  0
POINT
  8
1
  6
CONTINUOUS
  62
  7
 10
5.97503
 20
3.92930
 30
1.42883
  0
POINT
  8
1
  6
CONTINUOUS
  62
  7
 10
5.98033
 20
3.92950
 30
1.42881
  0
POINT
  8
1
  6
CONTINUOUS
  62
  7
 10
5.98570
 20
3.92903
 30
1.42881
  0
POINT
  8
1
  6
CONTINUOUS
  62
  7
 10
5.99114
 20
3.92901
 30
1.42881
  0
POINT
  8
1
  6
CONTINUOUS
  62
  7
 10
5.99546
 20
3.92910
 30
1.42881
  0
POINT
  8
1
  6
CONTINUOUS
  62
  7
 10
6.00197
 20
3.92888
 30
1.42881
  0
POINT
  8
1
  6
CONTINUOUS
  62
  7
 10
6.00740
 20
3.92843
 30
1.42881
  0
POINT
  8
1
  6
CONTINUOUS
  62
  7
 10
6.01175
 20
3.92818
 30
1.42881
  0
POINT
  8
1
  6
CONTINUOUS
  62
  7
 10
6.01819
 20
3.92829
 30
1.42881
  0
POINT
  8
1
  6
CONTINUOUS
  62
  7
 10
6.02484
 20
3.92842
 30
1.42881
  0
POINT
  8
1
  6
CONTINUOUS
  62
  7
 10
6.02900
 20
3.92771
 30
1.42881
  0
POINT
  8
1
  6
CONTINUOUS
  62
  7
 10
6.03338
 20
3.92711
 30
1.42881
  0
POINT
  8
1
  6
CONTINUOUS
  62
  7
 10
6.03864
 20
3.92703
 30
1.42881
  0
POINT
  8
1
  6
CONTINUOUS
  62
  7
 10
6.04427
 20
3.92629
 30
1.42881
  0
POINT
  8
1
  6
CONTINUOUS
  62
  7
 10
6.04725
 20
3.92054
 30
1.42881
  0
POINT
  8
1
  6
CONTINUOUS
  62
  7
 10
6.04807
 20
3.91511
 30
1.42881
  0
POINT
  8
1
  6
CONTINUOUS
  62
  7
 10
6.04812
 20
3.90974
 30
1.42881
  0
POINT
  8
1
  6
CONTINUOUS
  62
  7
 10
6.04815
 20
3.90431
 30
1.42881
  0
POINT
  8
1
  6
CONTINUOUS
  62
  7
 10
6.04870
 20
3.89892
 30
1.42881
  0
POINT
  8
1
  6
CONTINUOUS
  62
  7
 10
6.04894
 20
3.89349
 30
1.42881
  0
POINT
  8
1
  6
CONTINUOUS
  62
  7
 10
6.04887
 20
3.88810
 30
1.42881
  0
POINT
  8
1
  6
CONTINUOUS
  62
  7
 10
6.04879
 20
3.88267
 30
1.42881
  0
POINT
  8
1
  6
CONTINUOUS
  62
  7
 10
6.04859
 20
3.87725
 30
1.42881
  0
POINT
  8
1
  6
CONTINUOUS
  62
  7
 10
6.04826
 20
3.87129
 30
1.42881
  0
POINT
  8
1
  6
CONTINUOUS
  62
  7
 10
6.04842
 20
3.86645
 30
1.42881
  0
POINT
  8
1
  6
CONTINUOUS
  62
  7
 10
6.04794
 20
3.86099
 30
1.42881
  0
POINT
  8
1
  6
CONTINUOUS
  62
  7
 10
6.05084
 20
3.85503
 30
1.42881
  0
POINT
  8
1
  6
CONTINUOUS
  62
  7
 10
6.05408
 20
3.82318
 30
1.42881
  0
POINT
  8
1
  6
CONTINUOUS
  62
  7
 10
6.05691
 20
3.81803
 30
1.42881
  0
POINT
  8
1
  6
CONTINUOUS
  62
  7
 10
6.05972
 20
3.81364
 30
1.42881
  0
POINT
  8
1
  6
CONTINUOUS
  62
  7
 10
6.06413
 20
3.81138
 30
1.42881
  0
POINT
  8
1
  6
CONTINUOUS
  62
  7
 10
6.07413
 20
3.80580
 30
1.42881
  0
POINT
  8
1
  6
CONTINUOUS
  62
  7
 10
6.07999
 20
3.80540
 30
1.42881
  0
POINT
  8
1
  6
CONTINUOUS
  62
  7
 10
6.08534
 20
3.80443
 30
1.42881
  0
POINT
  8
1
  6
CONTINUOUS
  62
  7
 10
6.09080
 20
3.80497
 30
1.42881
  0
POINT
  8
1
  6
CONTINUOUS
  62
  7
 10
6.09563
 20
3.80425
 30
1.42881
  0
POINT
  8
1
  6
CONTINUOUS
  62
  7
 10
6.10163
 20
3.80471
 30
1.42881
  0
POINT
  8
1
  6
CONTINUOUS
  62
  7
 10
6.10605
 20
3.80458
 30
1.42881
  0
POINT
  8
1
  6
CONTINUOUS
  62
  7
 10
6.11128
 20
3.80593
 30
1.42881
  0
POINT
  8
1
  6
CONTINUOUS
  62
  7
 10
6.11681
 20
3.80529
 30
1.42881
  0
POINT
  8
1
  6
CONTINUOUS
  62
  7
 10
6.12331
 20
3.80542
 30
1.42881
  0
POINT
  8
1
  6
CONTINUOUS
  62
  7
 10
6.12872
 20
3.80504
 30
1.42881
  0
POINT
  8
1
  6
CONTINUOUS
  62
  7
 10
6.13411
 20
3.80560
 30
1.42881
  0
POINT
  8
1
  6
CONTINUOUS
  62
  7
 10
6.13953
 20
3.80544
 30
1.42881
  0
POINT
  8
1
  6
CONTINUOUS
  62
  7
 10
6.14483
 20
3.80656
 30
1.42881
  0
POINT
  8
1
  6
CONTINUOUS
  62
  7
 10
6.15038
 20
3.80661
 30
1.42881
  0
POINT
  8
1
  6
CONTINUOUS
  62
  7
 10
6.15471
 20
3.80643
 30
1.42881
  0
POINT
  8
1
  6
CONTINUOUS
  62
  7
 10
6.16014
 20
3.80666
 30
1.42881
  0
POINT
  8
1
  6
CONTINUOUS
  62
  7
 10
6.16663
 20
3.80625
 30
1.42881
  0
POINT
  8
1
  6
CONTINUOUS
  62
  7
 10
6.17205
 20
3.80605
 30
1.42881
  0
POINT
  8
1
  6
CONTINUOUS
  62
  7
 10
6.17747
 20
3.80606
 30
1.42881
  0
POINT
  8
1
  6
CONTINUOUS
  62
  7
 10
6.18179
 20
3.80630
 30
1.42881
  0
POINT
  8
1
  6
CONTINUOUS
  62
  7
 10
6.18832
 20
3.80611
 30
1.42881
  0
POINT
  8
1
  6
CONTINUOUS
  62
  7
 10
6.19263
 20
3.80608
 30
1.42881
  0
POINT
  8
1
  6
CONTINUOUS
  62
  7
 10
6.19914
 20
3.80583
 30
1.42881
  0
POINT
  8
1
  6
CONTINUOUS
  62
  7
 10
6.20456
 20
3.80592
 30
1.42881
  0
POINT
  8
1
  6
CONTINUOUS
  62
  7
 10
6.20998
 20
3.80624
 30
1.42881
  0
POINT
  8
1
  6
CONTINUOUS
  62
  7
 10
6.21541
 20
3.80603
 30
1.42881
  0
POINT
  8
1
  6
CONTINUOUS
  62
  7
 10
6.21972
 20
3.80585
 30
1.42881
  0
POINT
  8
1
  6
CONTINUOUS
  62
  7
 10
6.22623
 20
3.80727
 30
1.42881
  0
POINT
  8
1
  6
CONTINUOUS
  62
  7
 10
6.23057
 20
3.80636
 30
1.42881
  0
POINT
  8
1
  6
CONTINUOUS
  62
  7
 10
6.23654
 20
3.80596
 30
1.42883
  0
POINT
  8
1
  6
CONTINUOUS
  62
  7
 10
6.24088
 20
3.80587
 30
1.42883
  0
POINT
  8
1
  6
CONTINUOUS
  62
  7
 10
6.24734
 20
3.80676
 30
1.42883
  0
POINT
  8
1
  6
CONTINUOUS
  62
  7
 10
6.25285
 20
3.80622
 30
1.42883
  0
POINT
  8
1
  6
CONTINUOUS
  62
  7
 10
6.25820
 20
3.80563
 30
1.42883
  0
POINT
  8
1
  6
CONTINUOUS
  62
  7
 10
6.26255
 20
3.80552
 30
1.42883
  0
POINT
  8
1
  6
CONTINUOUS
  62
  7
 10
6.26904
 20
3.80560
 30
1.42883
  0
POINT
  8
1
  6
CONTINUOUS
  62
  7
 10
6.27447
 20
3.80581
 30
1.42883
  0
POINT
  8
1
  6
CONTINUOUS
  62
  7
 10
6.27989
 20
3.80583
 30
1.42883
  0
POINT
  8
1
  6
CONTINUOUS
  62
  7
 10
6.28528
 20
3.80570
 30
1.42883
  0
POINT
  8
1
  6
CONTINUOUS
  62
  7
 10
6.29074
 20
3.80591
 30
1.42883
  0
POINT
  8
1
  6
CONTINUOUS
  62
  7
 10
6.29505
 20
3.80543
 30
1.42883
  0
POINT
  8
1
  6
CONTINUOUS
  62
  7
 10
6.30155
 20
3.80543
 30
1.42883
  0
POINT
  8
1
  6
CONTINUOUS
  62
  7
 10
6.30697
 20
3.80557
 30
1.42883
  0
POINT
  8
1
  6
CONTINUOUS
  62
  7
 10
6.31238
 20
3.80535
 30
1.42883
  0
POINT
  8
1
  6
CONTINUOUS
  62
  7
 10
6.31779
 20
3.80541
 30
1.42883
  0
POINT
  8
1
  6
CONTINUOUS
  62
  7
 10
6.32322
 20
3.80541
 30
1.42883
  0
POINT
  8
1
  6
CONTINUOUS
  62
  7
 10
6.32863
 20
3.80520
 30
1.42883
  0
POINT
  8
1
  6
CONTINUOUS
  62
  7
 10
6.33406
 20
3.80537
 30
1.42883
  0
POINT
  8
1
  6
CONTINUOUS
  62
  7
 10
6.33839
 20
3.80507
 30
1.42883
  0
POINT
  8
1
  6
CONTINUOUS
  62
  7
 10
6.34489
 20
3.80499
 30
1.42883
  0
POINT
  8
1
  6
CONTINUOUS
  62
  7
 10
6.35030
 20
3.80502
 30
1.42883
  0
POINT
  8
1
  6
CONTINUOUS
  62
  7
 10
6.35572
 20
3.80493
 30
1.42883
  0
POINT
  8
1
  6
CONTINUOUS
  62
  7
 10
6.36005
 20
3.80510
 30
1.42883
  0
POINT
  8
1
  6
CONTINUOUS
  62
  7
 10
6.36655
 20
3.80497
 30
1.42883
  0
POINT
  8
1
  6
CONTINUOUS
  62
  7
 10
6.37089
 20
3.80497
 30
1.42883
  0
POINT
  8
1
  6
CONTINUOUS
  62
  7
 10
6.37739
 20
3.80501
 30
1.42883
  0
POINT
  8
1
  6
CONTINUOUS
  62
  7
 10
6.38172
 20
3.80483
 30
1.42883
  0
POINT
  8
1
  6
CONTINUOUS
  62
  7
 10
6.38821
 20
3.80499
 30
1.42883
  0
POINT
  8
1
  6
CONTINUOUS
  62
  7
 10
6.39367
 20
3.80526
 30
1.42883
  0
POINT
  8
1
  6
CONTINUOUS
  62
  7
 10
6.39906
 20
3.80475
 30
1.42883
  0
POINT
  8
1
  6
CONTINUOUS
  62
  7
 10
6.40447
 20
3.80490
 30
1.42883
  0
POINT
  8
1
  6
CONTINUOUS
  62
  7
 10
6.40989
 20
3.80498
 30
1.42883
  0
POINT
  8
1
  6
CONTINUOUS
  62
  7
 10
6.41531
 20
3.80474
 30
1.42883
  0
POINT
  8
1
  6
CONTINUOUS
  62
  7
 10
6.42073
 20
3.80495
 30
1.42883
  0
POINT
  8
1
  6
CONTINUOUS
  62
  7
 10
6.42615
 20
3.80465
 30
1.42883
  0
POINT
  8
1
  6
CONTINUOUS
  62
  7
 10
6.43156
 20
3.80474
 30
1.42883
  0
POINT
  8
1
  6
CONTINUOUS
  62
  7
 10
6.43590
 20
3.80468
 30
1.42883
  0
POINT
  8
1
  6
CONTINUOUS
  62
  7
 10
6.44240
 20
3.80460
 30
1.42883
  0
POINT
  8
1
  6
CONTINUOUS
  62
  7
 10
6.44672
 20
3.80465
 30
1.42883
  0
POINT
  8
1
  6
CONTINUOUS
  62
  7
 10
6.45323
 20
3.80461
 30
1.42883
  0
POINT
  8
1
  6
CONTINUOUS
  62
  7
 10
6.45756
 20
3.80461
 30
1.42883
  0
POINT
  8
1
  6
CONTINUOUS
  62
  7
 10
6.46408
 20
3.80472
 30
1.42883
  0
POINT
  8
1
  6
CONTINUOUS
  62
  7
 10
6.46948
 20
3.80445
 30
1.42883
  0
POINT
  8
1
  6
CONTINUOUS
  62
  7
 10
6.47382
 20
3.80441
 30
1.42883
  0
POINT
  8
1
  6
CONTINUOUS
  62
  7
 10
6.48031
 20
3.80417
 30
1.42883
  0
POINT
  8
1
  6
CONTINUOUS
  62
  7
 10
6.48569
 20
3.80448
 30
1.42883
  0
POINT
  8
1
  6
CONTINUOUS
  62
  7
 10
6.49115
 20
3.80447
 30
1.42883
  0
POINT
  8
1
  6
CONTINUOUS
  62
  7
 10
6.49603
 20
3.80450
 30
1.42883
  0
POINT
  8
1
  6
CONTINUOUS
  62
  7
 10
6.50140
 20
3.80472
 30
1.42883
  0
POINT
  8
1
  6
CONTINUOUS
  62
  7
 10
6.50797
 20
3.80495
 30
1.42883
  0
POINT
  8
1
  6
CONTINUOUS
  62
  7
 10
6.51229
 20
3.80465
 30
1.42883
  0
POINT
  8
1
  6
CONTINUOUS
  62
  7
 10
6.51771
 20
3.80457
 30
1.42883
  0
POINT
  8
1
  6
CONTINUOUS
  62
  7
 10
6.52421
 20
3.80459
 30
1.42883
  0
POINT
  8
1
  6
CONTINUOUS
  62
  7
 10
6.52854
 20
3.80468
 30
1.42883
  0
POINT
  8
1
  6
CONTINUOUS
  62
  7
 10
6.53397
 20
3.80488
 30
1.42883
  0
POINT
  8
1
  6
CONTINUOUS
  62
  7
 10
6.54046
 20
3.80461
 30
1.42883
  0
POINT
  8
1
  6
CONTINUOUS
  62
  7
 10
6.54479
 20
3.80463
 30
1.42883
  0
POINT
  8
1
  6
CONTINUOUS
  62
  7
 10
6.55019
 20
3.80472
 30
1.42883
  0
POINT
  8
1
  6
CONTINUOUS
  62
  7
 10
6.55563
 20
3.80480
 30
1.42883
  0
POINT
  8
1
  6
CONTINUOUS
  62
  7
 10
6.56213
 20
3.80445
 30
1.42883
  0
POINT
  8
1
  6
CONTINUOUS
  62
  7
 10
6.56645
 20
3.80451
 30
1.42883
  0
POINT
  8
1
  6
CONTINUOUS
  62
  7
 10
6.57188
 20
3.80458
 30
1.42883
  0
POINT
  8
1
  6
CONTINUOUS
  62
  7
 10
6.57838
 20
3.80448
 30
1.42883
  0
POINT
  8
1
  6
CONTINUOUS
  62
  7
 10
6.58271
 20
3.80444
 30
1.42883
  0
POINT
  8
1
  6
CONTINUOUS
  62
  7
 10
6.58921
 20
3.80443
 30
1.42883
  0
POINT
  8
1
  6
CONTINUOUS
  62
  7
 10
6.59463
 20
3.80443
 30
1.42883
  0
POINT
  8
1
  6
CONTINUOUS
  62
  7
 10
6.60004
 20
3.80439
 30
1.42883
  0
POINT
  8
1
  6
CONTINUOUS
  62
  7
 10
6.60437
 20
3.80451
 30
1.42883
  0
POINT
  8
1
  6
CONTINUOUS
  62
  7
 10
6.60980
 20
3.80456
 30
1.42883
  0
POINT
  8
1
  6
CONTINUOUS
  62
  7
 10
6.61630
 20
3.80471
 30
1.42883
  0
POINT
  8
1
  6
CONTINUOUS
  62
  7
 10
6.62063
 20
3.80452
 30
1.42883
  0
POINT
  8
1
  6
CONTINUOUS
  62
  7
 10
6.62604
 20
3.80462
 30
1.42883
  0
POINT
  8
1
  6
CONTINUOUS
  62
  7
 10
6.63255
 20
3.80460
 30
1.42883
  0
POINT
  8
1
  6
CONTINUOUS
  62
  7
 10
6.63797
 20
3.80455
 30
1.42883
  0
POINT
  8
1
  6
CONTINUOUS
  62
  7
 10
6.64338
 20
3.80445
 30
1.42883
  0
POINT
  8
1
  6
CONTINUOUS
  62
  7
 10
6.64880
 20
3.80463
 30
1.42883
  0
POINT
  8
1
  6
CONTINUOUS
  62
  7
 10
6.65321
 20
3.80453
 30
1.42883
  0
POINT
  8
1
  6
CONTINUOUS
  62
  7
 10
6.65711
 20
3.80568
 30
1.42883
  0
POINT
  8
1
  6
CONTINUOUS
  62
  7
 10
6.66505
 20
3.80472
 30
1.42883
  0
POINT
  8
1
  6
CONTINUOUS
  62
  7
 10
6.67047
 20
3.80421
 30
1.42883
  0
POINT
  8
1
  6
CONTINUOUS
  62
  7
 10
6.67589
 20
3.80428
 30
1.42883
  0
POINT
  8
1
  6
CONTINUOUS
  62
  7
 10
6.68022
 20
3.80429
 30
1.42883
  0
POINT
  8
1
  6
CONTINUOUS
  62
  7
 10
6.68563
 20
3.80432
 30
1.42883
  0
POINT
  8
1
  6
CONTINUOUS
  62
  7
 10
6.69214
 20
3.80419
 30
1.42883
  0
POINT
  8
1
  6
CONTINUOUS
  62
  7
 10
6.69647
 20
3.80404
 30
1.42883
  0
POINT
  8
1
  6
CONTINUOUS
  62
  7
 10
6.70188
 20
3.80402
 30
1.42883
  0
POINT
  8
1
  6
CONTINUOUS
  62
  7
 10
6.70839
 20
3.80409
 30
1.42883
  0
POINT
  8
1
  6
CONTINUOUS
  62
  7
 10
6.71380
 20
3.80395
 30
1.42883
  0
POINT
  8
1
  6
CONTINUOUS
  62
  7
 10
6.71814
 20
3.80391
 30
1.42883
  0
POINT
  8
1
  6
CONTINUOUS
  62
  7
 10
6.72356
 20
3.80406
 30
1.42883
  0
POINT
  8
1
  6
CONTINUOUS
  62
  7
 10
6.73006
 20
3.80383
 30
1.42883
  0
POINT
  8
1
  6
CONTINUOUS
  62
  7
 10
6.73438
 20
3.80390
 30
1.42883
  0
POINT
  8
1
  6
CONTINUOUS
  62
  7
 10
6.73980
 20
3.80405
 30
1.42883
  0
POINT
  8
1
  6
CONTINUOUS
  62
  7
 10
6.74631
 20
3.80399
 30
1.42883
  0
POINT
  8
1
  6
CONTINUOUS
  62
  7
 10
6.75059
 20
3.80407
 30
1.42883
  0
POINT
  8
1
  6
CONTINUOUS
  62
  7
 10
6.75600
 20
3.80400
 30
1.42883
  0
POINT
  8
1
  6
CONTINUOUS
  62
  7
 10
6.76142
 20
3.80402
 30
1.42883
  0
POINT
  8
1
  6
CONTINUOUS
  62
  7
 10
6.76793
 20
3.80408
 30
1.42883
  0
POINT
  8
1
  6
CONTINUOUS
  62
  7
 10
6.77336
 20
3.80370
 30
1.42883
  0
POINT
  8
1
  6
CONTINUOUS
  62
  7
 10
6.77763
 20
3.80454
 30
1.42883
  0
POINT
  8
1
  6
CONTINUOUS
  62
  7
 10
6.78414
 20
3.80363
 30
1.42883
  0
POINT
  8
1
  6
CONTINUOUS
  62
  7
 10
6.78958
 20
3.80441
 30
1.42883
  0
POINT
  8
1
  6
CONTINUOUS
  62
  7
 10
6.79498
 20
3.80400
 30
1.42883
  0
POINT
  8
1
  6
CONTINUOUS
  62
  7
 10
6.79934
 20
3.80388
 30
1.42883
  0
POINT
  8
1
  6
CONTINUOUS
  62
  7
 10
6.80476
 20
3.80395
 30
1.42883
  0
POINT
  8
1
  6
CONTINUOUS
  62
  7
 10
6.81018
 20
3.80390
 30
1.42883
  0
POINT
  8
1
  6
CONTINUOUS
  62
  7
 10
6.81559
 20
3.80387
 30
1.42883
  0
POINT
  8
1
  6
CONTINUOUS
  62
  7
 10
6.82209
 20
3.80374
 30
1.42883
  0
POINT
  8
1
  6
CONTINUOUS
  62
  7
 10
6.82752
 20
3.80377
 30
1.42883
  0
POINT
  8
1
  6
CONTINUOUS
  62
  7
 10
6.83185
 20
3.80371
 30
1.42883
  0
POINT
  8
1
  6
CONTINUOUS
  62
  7
 10
6.83726
 20
3.80400
 30
1.42883
  0
POINT
  8
1
  6
CONTINUOUS
  62
  7
 10
6.84268
 20
3.80375
 30
1.42883
  0
POINT
  8
1
  6
CONTINUOUS
  62
  7
 10
6.84810
 20
3.80382
 30
1.42883
  0
POINT
  8
1
  6
CONTINUOUS
  62
  7
 10
6.85351
 20
3.80371
 30
1.42883
  0
POINT
  8
1
  6
CONTINUOUS
  62
  7
 10
6.86001
 20
3.80366
 30
1.42883
  0
POINT
  8
1
  6
CONTINUOUS
  62
  7
 10
6.86542
 20
3.80367
 30
1.42883
  0
POINT
  8
1
  6
CONTINUOUS
  62
  7
 10
6.86977
 20
3.80370
 30
1.42883
  0
POINT
  8
1
  6
CONTINUOUS
  62
  7
 10
6.87518
 20
3.80369
 30
1.42883
  0
POINT
  8
1
  6
CONTINUOUS
  62
  7
 10
6.88168
 20
3.80347
 30
1.42883
  0
POINT
  8
1
  6
CONTINUOUS
  62
  7
 10
6.88601
 20
3.80351
 30
1.42883
  0
POINT
  8
1
  6
CONTINUOUS
  62
  7
 10
6.89143
 20
3.80365
 30
1.42883
  0
POINT
  8
1
  6
CONTINUOUS
  62
  7
 10
6.89794
 20
3.80365
 30
1.42883
  0
POINT
  8
1
  6
CONTINUOUS
  62
  7
 10
6.90227
 20
3.80365
 30
1.42883
  0
POINT
  8
1
  6
CONTINUOUS
  62
  7
 10
6.90769
 20
3.80361
 30
1.42883
  0
POINT
  8
1
  6
CONTINUOUS
  62
  7
 10
6.91310
 20
3.80359
 30
1.42883
  0
POINT
  8
1
  6
CONTINUOUS
  62
  7
 10
6.91961
 20
3.80357
 30
1.42883
  0
POINT
  8
1
  6
CONTINUOUS
  62
  7
 10
6.92393
 20
3.80346
 30
1.42883
  0
POINT
  8
1
  6
CONTINUOUS
  62
  7
 10
6.92934
 20
3.80352
 30
1.42883
  0
POINT
  8
1
  6
CONTINUOUS
  62
  7
 10
6.93477
 20
3.80346
 30
1.42883
  0
POINT
  8
1
  6
CONTINUOUS
  62
  7
 10
6.94128
 20
3.80331
 30
1.42883
  0
POINT
  8
1
  6
CONTINUOUS
  62
  7
 10
6.94560
 20
3.80326
 30
1.42883
  0
POINT
  8
1
  6
CONTINUOUS
  62
  7
 10
6.95102
 20
3.80340
 30
1.42883
  0
POINT
  8
1
  6
CONTINUOUS
  62
  7
 10
6.95752
 20
3.80349
 30
1.42883
  0
POINT
  8
1
  6
CONTINUOUS
  62
  7
 10
6.96184
 20
3.80342
 30
1.42883
  0
POINT
  8
1
  6
CONTINUOUS
  62
  7
 10
6.96727
 20
3.80341
 30
1.42883
  0
POINT
  8
1
  6
CONTINUOUS
  62
  7
 10
6.97273
 20
3.80336
 30
1.42883
  0
POINT
  8
1
  6
CONTINUOUS
  62
  7
 10
6.97811
 20
3.80362
 30
1.42883
  0
POINT
  8
1
  6
CONTINUOUS
  62
  7
 10
6.98352
 20
3.80337
 30
1.42883
  0
POINT
  8
1
  6
CONTINUOUS
  62
  7
 10
6.98895
 20
3.80309
 30
1.42883
  0
POINT
  8
1
  6
CONTINUOUS
  62
  7
 10
6.99435
 20
3.80299
 30
1.42883
  0
POINT
  8
1
  6
CONTINUOUS
  62
  7
 10
6.99977
 20
3.80317
 30
1.42883
  0
POINT
  8
1
  6
CONTINUOUS
  62
  7
 10
7.00519
 20
3.80312
 30
1.42883
  0
POINT
  8
1
  6
CONTINUOUS
  62
  7
 10
7.00997
 20
3.80326
 30
1.42885
  0
POINT
  8
1
  6
CONTINUOUS
  62
  7
 10
7.01647
 20
3.80333
 30
1.42885
  0
POINT
  8
1
  6
CONTINUOUS
  62
  7
 10
7.02188
 20
3.80334
 30
1.42885
  0
POINT
  8
1
  6
CONTINUOUS
  62
  7
 10
7.02620
 20
3.80357
 30
1.42885
  0
POINT
  8
1
  6
CONTINUOUS
  62
  7
 10
7.03163
 20
3.80349
 30
1.42885
  0
POINT
  8
1
  6
CONTINUOUS
  62
  7
 10
7.03814
 20
3.80347
 30
1.42885
  0
POINT
  8
1
  6
CONTINUOUS
  62
  7
 10
7.04355
 20
3.80334
 30
1.42885
  0
POINT
  8
1
  6
CONTINUOUS
  62
  7
 10
7.04788
 20
3.80354
 30
1.42885
  0
POINT
  8
1
  6
CONTINUOUS
  62
  7
 10
7.05330
 20
3.80334
 30
1.42885
  0
POINT
  8
1
  6
CONTINUOUS
  62
  7
 10
7.05980
 20
3.80321
 30
1.42885
  0
POINT
  8
1
  6
CONTINUOUS
  62
  7
 10
7.06522
 20
3.80335
 30
1.42885
  0
POINT
  8
1
  6
CONTINUOUS
  62
  7
 10
7.06955
 20
3.80322
 30
1.42885
  0
POINT
  8
1
  6
CONTINUOUS
  62
  7
 10
7.07603
 20
3.80358
 30
1.42885
  0
POINT
  8
1
  6
CONTINUOUS
  62
  7
 10
7.08148
 20
3.80398
 30
1.42885
  0
POINT
  8
1
  6
CONTINUOUS
  62
  7
 10
7.08692
 20
3.80343
 30
1.42885
  0
POINT
  8
1
  6
CONTINUOUS
  62
  7
 10
7.09122
 20
3.80312
 30
1.42885
  0
POINT
  8
1
  6
CONTINUOUS
  62
  7
 10
7.09772
 20
3.80313
 30
1.42885
  0
POINT
  8
1
  6
CONTINUOUS
  62
  7
 10
7.10206
 20
3.80315
 30
1.42885
  0
POINT
  8
1
  6
CONTINUOUS
  62
  7
 10
7.10747
 20
3.80312
 30
1.42885
  0
POINT
  8
1
  6
CONTINUOUS
  62
  7
 10
7.11400
 20
3.80313
 30
1.42885
  0
POINT
  8
1
  6
CONTINUOUS
  62
  7
 10
7.11940
 20
3.80290
 30
1.42885
  0
POINT
  8
1
  6
CONTINUOUS
  62
  7
 10
7.12372
 20
3.80265
 30
1.42885
  0
POINT
  8
1
  6
CONTINUOUS
  62
  7
 10
7.12913
 20
3.80303
 30
1.42885
  0
POINT
  8
1
  6
CONTINUOUS
  62
  7
 10
7.13565
 20
3.80283
 30
1.42885
  0
POINT
  8
1
  6
CONTINUOUS
  62
  7
 10
7.13998
 20
3.80268
 30
1.42885
  0
POINT
  8
1
  6
CONTINUOUS
  62
  7
 10
7.14539
 20
3.80277
 30
1.42885
  0
POINT
  8
1
  6
CONTINUOUS
  62
  7
 10
7.15190
 20
3.80277
 30
1.42885
  0
POINT
  8
1
  6
CONTINUOUS
  62
  7
 10
7.15731
 20
3.80274
 30
1.42885
  0
POINT
  8
1
  6
CONTINUOUS
  62
  7
 10
7.16164
 20
3.80264
 30
1.42885
  0
POINT
  8
1
  6
CONTINUOUS
  62
  7
 10
7.16705
 20
3.80284
 30
1.42885
  0
POINT
  8
1
  6
CONTINUOUS
  62
  7
 10
7.17356
 20
3.80280
 30
1.42885
  0
POINT
  8
1
  6
CONTINUOUS
  62
  7
 10
7.17790
 20
3.80274
 30
1.42885
  0
POINT
  8
1
  6
CONTINUOUS
  62
  7
 10
7.18331
 20
3.80261
 30
1.42885
  0
POINT
  8
1
  6
CONTINUOUS
  62
  7
 10
7.18981
 20
3.80266
 30
1.42885
  0
POINT
  8
1
  6
CONTINUOUS
  62
  7
 10
7.19523
 20
3.80260
 30
1.42885
  0
POINT
  8
1
  6
CONTINUOUS
  62
  7
 10
7.20064
 20
3.80271
 30
1.42885
  0
POINT
  8
1
  6
CONTINUOUS
  62
  7
 10
7.20498
 20
3.80287
 30
1.42885
  0
POINT
  8
1
  6
CONTINUOUS
  62
  7
 10
7.21148
 20
3.80259
 30
1.42885
  0
POINT
  8
1
  6
CONTINUOUS
  62
  7
 10
7.21693
 20
3.80241
 30
1.42885
  0
POINT
  8
1
  6
CONTINUOUS
  62
  7
 10
7.22231
 20
3.80229
 30
1.42885
  0
POINT
  8
1
  6
CONTINUOUS
  62
  7
 10
7.22774
 20
3.80240
 30
1.42885
  0
POINT
  8
1
  6
CONTINUOUS
  62
  7
 10
7.23314
 20
3.80232
 30
1.42885
  0
POINT
  8
1
  6
CONTINUOUS
  62
  7
 10
7.23857
 20
3.80219
 30
1.42885
  0
POINT
  8
1
  6
CONTINUOUS
  62
  7
 10
7.24397
 20
3.80224
 30
1.42885
  0
POINT
  8
1
  6
CONTINUOUS
  62
  7
 10
7.24940
 20
3.80267
 30
1.42885
  0
POINT
  8
1
  6
CONTINUOUS
  62
  7
 10
7.25484
 20
3.80262
 30
1.42885
  0
POINT
  8
1
  6
CONTINUOUS
  62
  7
 10
7.26024
 20
3.80248
 30
1.42885
  0
POINT
  8
1
  6
CONTINUOUS
  62
  7
 10
7.26566
 20
3.80263
 30
1.42885
  0
POINT
  8
1
  6
CONTINUOUS
  62
  7
 10
7.27092
 20
3.80269
 30
1.42885
  0
POINT
  8
1
  6
CONTINUOUS
  62
  7
 10
7.27633
 20
3.80271
 30
1.42885
  0
POINT
  8
1
  6
CONTINUOUS
  62
  7
 10
7.28173
 20
3.80264
 30
1.42885
  0
POINT
  8
1
  6
CONTINUOUS
  62
  7
 10
7.28718
 20
3.80251
 30
1.42885
  0
POINT
  8
1
  6
CONTINUOUS
  62
  7
 10
7.29260
 20
3.80266
 30
1.42885
  0
POINT
  8
1
  6
CONTINUOUS
  62
  7
 10
7.29911
 20
3.80242
 30
1.42885
  0
POINT
  8
1
  6
CONTINUOUS
  62
  7
 10
7.30343
 20
3.80220
 30
1.42885
  0
POINT
  8
1
  6
CONTINUOUS
  62
  7
 10
7.30776
 20
3.80245
 30
1.42885
  0
POINT
  8
1
  6
CONTINUOUS
  62
  7
 10
7.31424
 20
3.80241
 30
1.42885
  0
POINT
  8
1
  6
CONTINUOUS
  62
  7
 10
7.31966
 20
3.80266
 30
1.42885
  0
POINT
  8
1
  6
CONTINUOUS
  62
  7
 10
7.32400
 20
3.80262
 30
1.42885
  0
POINT
  8
1
  6
CONTINUOUS
  62
  7
 10
7.33050
 20
3.80268
 30
1.42885
  0
POINT
  8
1
  6
CONTINUOUS
  62
  7
 10
7.33592
 20
3.80279
 30
1.42885
  0
POINT
  8
1
  6
CONTINUOUS
  62
  7
 10
7.34026
 20
3.80266
 30
1.42885
  0
POINT
  8
1
  6
CONTINUOUS
  62
  7
 10
7.34676
 20
3.80258
 30
1.42885
  0
POINT
  8
1
  6
CONTINUOUS
  62
  7
 10
7.35217
 20
3.80277
 30
1.42885
  0
POINT
  8
1
  6
CONTINUOUS
  62
  7
 10
7.35759
 20
3.80261
 30
1.42885
  0
POINT
  8
1
  6
CONTINUOUS
  62
  7
 10
7.36192
 20
3.80270
 30
1.42885
  0
POINT
  8
1
  6
CONTINUOUS
  62
  7
 10
7.36841
 20
3.80247
 30
1.42885
  0
POINT
  8
1
  6
CONTINUOUS
  62
  7
 10
7.37382
 20
3.80275
 30
1.42885
  0
POINT
  8
1
  6
CONTINUOUS
  62
  7
 10
7.37922
 20
3.80349
 30
1.42885
  0
POINT
  8
1
  6
CONTINUOUS
  62
  7
 10
7.38358
 20
3.80305
 30
1.42885
  0
POINT
  8
1
  6
CONTINUOUS
  62
  7
 10
7.39009
 20
3.80253
 30
1.42885
  0
POINT
  8
1
  6
CONTINUOUS
  62
  7
 10
7.39551
 20
3.80245
 30
1.42885
  0
POINT
  8
1
  6
CONTINUOUS
  62
  7
 10
7.40093
 20
3.80266
 30
1.42885
  0
POINT
  8
1
  6
CONTINUOUS
  62
  7
 10
7.40531
 20
3.80255
 30
1.42885
  0
POINT
  8
1
  6
CONTINUOUS
  62
  7
 10
7.41177
 20
3.80240
 30
1.42885
  0
POINT
  8
1
  6
CONTINUOUS
  62
  7
 10
7.41718
 20
3.80209
 30
1.42885
  0
POINT
  8
1
  6
CONTINUOUS
  62
  7
 10
7.42257
 20
3.80247
 30
1.42885
  0
POINT
  8
1
  6
CONTINUOUS
  62
  7
 10
7.42813
 20
3.80280
 30
1.42885
  0
POINT
  8
1
  6
CONTINUOUS
  62
  7
 10
7.43379
 20
3.80519
 30
1.42885
  0
POINT
  8
1
  6
CONTINUOUS
  62
  7
 10
7.43740
 20
3.80263
 30
1.42885
  0
POINT
  8
1
  6
CONTINUOUS
  62
  7
 10
7.44426
 20
3.80206
 30
1.42885
  0
POINT
  8
1
  6
CONTINUOUS
  62
  7
 10
7.44968
 20
3.80237
 30
1.42885
  0
POINT
  8
1
  6
CONTINUOUS
  62
  7
 10
7.45402
 20
3.80213
 30
1.42885
  0
POINT
  8
1
  6
CONTINUOUS
  62
  7
 10
7.46051
 20
3.80187
 30
1.42885
  0
POINT
  8
1
  6
CONTINUOUS
  62
  7
 10
7.46485
 20
3.80179
 30
1.42885
  0
POINT
  8
1
  6
CONTINUOUS
  62
  7
 10
7.47026
 20
3.80182
 30
1.42885
  0
POINT
  8
1
  6
CONTINUOUS
  62
  7
 10
7.47676
 20
3.80183
 30
1.42885
  0
POINT
  8
1
  6
CONTINUOUS
  62
  7
 10
7.48218
 20
3.80199
 30
1.42885
  0
POINT
  8
1
  6
CONTINUOUS
  62
  7
 10
7.48651
 20
3.80184
 30
1.42885
  0
POINT
  8
1
  6
CONTINUOUS
  62
  7
 10
7.49302
 20
3.80169
 30
1.42885
  0
POINT
  8
1
  6
CONTINUOUS
  62
  7
 10
7.49849
 20
3.80146
 30
1.42885
  0
POINT
  8
1
  6
CONTINUOUS
  62
  7
 10
7.50276
 20
3.80191
 30
1.42885
  0
POINT
  8
1
  6
CONTINUOUS
  62
  7
 10
7.50817
 20
3.80154
 30
1.42885
  0
POINT
  8
1
  6
CONTINUOUS
  62
  7
 10
7.51468
 20
3.80192
 30
1.42885
  0
POINT
  8
1
  6
CONTINUOUS
  62
  7
 10
7.52010
 20
3.80198
 30
1.42885
  0
POINT
  8
1
  6
CONTINUOUS
  62
  7
 10
7.52444
 20
3.80205
 30
1.42885
  0
POINT
  8
1
  6
CONTINUOUS
  62
  7
 10
7.52985
 20
3.80194
 30
1.42885
  0
POINT
  8
1
  6
CONTINUOUS
  62
  7
 10
7.53636
 20
3.80198
 30
1.42885
  0
POINT
  8
1
  6
CONTINUOUS
  62
  7
 10
7.54067
 20
3.80210
 30
1.42885
  0
POINT
  8
1
  6
CONTINUOUS
  62
  7
 10
7.54610
 20
3.80204
 30
1.42885
  0
POINT
  8
1
  6
CONTINUOUS
  62
  7
 10
7.55261
 20
3.80240
 30
1.42885
  0
POINT
  8
1
  6
CONTINUOUS
  62
  7
 10
7.55805
 20
3.80203
 30
1.42885
  0
POINT
  8
1
  6
CONTINUOUS
  62
  7
 10
7.56235
 20
3.80219
 30
1.42885
  0
POINT
  8
1
  6
CONTINUOUS
  62
  7
 10
7.56779
 20
3.80211
 30
1.42885
  0
POINT
  8
1
  6
CONTINUOUS
  62
  7
 10
7.57426
 20
3.80196
 30
1.42885
  0
POINT
  8
1
  6
CONTINUOUS
  62
  7
 10
7.57861
 20
3.80216
 30
1.42885
  0
POINT
  8
1
  6
CONTINUOUS
  62
  7
 10
7.58403
 20
3.80185
 30
1.42885
  0
POINT
  8
1
  6
CONTINUOUS
  62
  7
 10
7.59052
 20
3.80208
 30
1.42885
  0
POINT
  8
1
  6
CONTINUOUS
  62
  7
 10
7.59595
 20
3.80185
 30
1.42885
  0
POINT
  8
1
  6
CONTINUOUS
  62
  7
 10
7.60028
 20
3.80168
 30
1.42885
  0
POINT
  8
1
  6
CONTINUOUS
  62
  7
 10
7.60568
 20
3.80221
 30
1.42885
  0
POINT
  8
1
  6
CONTINUOUS
  62
  7
 10
7.61220
 20
3.80187
 30
1.42885
  0
POINT
  8
1
  6
CONTINUOUS
  62
  7
 10
7.61655
 20
3.80196
 30
1.42885
  0
POINT
  8
1
  6
CONTINUOUS
  62
  7
 10
7.62195
 20
3.80181
 30
1.42885
  0
POINT
  8
1
  6
CONTINUOUS
  62
  7
 10
7.62846
 20
3.80185
 30
1.42885
  0
POINT
  8
1
  6
CONTINUOUS
  62
  7
 10
7.63387
 20
3.80169
 30
1.42885
  0
POINT
  8
1
  6
CONTINUOUS
  62
  7
 10
7.63820
 20
3.80182
 30
1.42885
  0
POINT
  8
1
  6
CONTINUOUS
  62
  7
 10
7.64361
 20
3.80175
 30
1.42885
  0
POINT
  8
1
  6
CONTINUOUS
  62
  7
 10
7.65013
 20
3.80182
 30
1.42885
  0
POINT
  8
1
  6
CONTINUOUS
  62
  7
 10
7.65445
 20
3.80162
 30
1.42885
  0
POINT
  8
1
  6
CONTINUOUS
  62
  7
 10
7.65988
 20
3.80156
 30
1.42885
  0
POINT
  8
1
  6
CONTINUOUS
  62
  7
 10
7.66636
 20
3.80144
 30
1.42885
  0
POINT
  8
1
  6
CONTINUOUS
  62
  7
 10
7.67179
 20
3.80151
 30
1.42885
  0
POINT
  8
1
  6
CONTINUOUS
  62
  7
 10
7.67613
 20
3.80149
 30
1.42885
  0
POINT
  8
1
  6
CONTINUOUS
  62
  7
 10
7.68155
 20
3.80141
 30
1.42885
  0
POINT
  8
1
  6
CONTINUOUS
  62
  7
 10
7.68804
 20
3.80127
 30
1.42885
  0
POINT
  8
1
  6
CONTINUOUS
  62
  7
 10
7.69237
 20
3.80131
 30
1.42885
  0
POINT
  8
1
  6
CONTINUOUS
  62
  7
 10
7.69779
 20
3.80137
 30
1.42885
  0
POINT
  8
1
  6
CONTINUOUS
  62
  7
 10
7.70428
 20
3.80125
 30
1.42885
  0
POINT
  8
1
  6
CONTINUOUS
  62
  7
 10
7.70970
 20
3.80113
 30
1.42885
  0
POINT
  8
1
  6
CONTINUOUS
  62
  7
 10
7.71403
 20
3.80152
 30
1.42885
  0
POINT
  8
1
  6
CONTINUOUS
  62
  7
 10
7.71946
 20
3.80137
 30
1.42885
  0
POINT
  8
1
  6
CONTINUOUS
  62
  7
 10
7.72596
 20
3.80125
 30
1.42885
  0
POINT
  8
1
  6
CONTINUOUS
  62
  7
 10
7.73029
 20
3.80117
 30
1.42885
  0
POINT
  8
1
  6
CONTINUOUS
  62
  7
 10
7.73571
 20
3.80118
 30
1.42885
  0
POINT
  8
1
  6
CONTINUOUS
  62
  7
 10
7.74221
 20
3.80110
 30
1.42885
  0
POINT
  8
1
  6
CONTINUOUS
  62
  7
 10
7.74655
 20
3.80115
 30
1.42885
  0
POINT
  8
1
  6
CONTINUOUS
  62
  7
 10
7.75196
 20
3.80105
 30
1.42885
  0
POINT
  8
1
  6
CONTINUOUS
  62
  7
 10
7.75738
 20
3.80085
 30
1.42885
  0
POINT
  8
1
  6
CONTINUOUS
  62
  7
 10
7.76386
 20
3.80109
 30
1.42885
  0
POINT
  8
1
  6
CONTINUOUS
  62
  7
 10
7.76821
 20
3.80106
 30
1.42885
  0
POINT
  8
1
  6
CONTINUOUS
  62
  7
 10
7.77363
 20
3.80106
 30
1.42885
  0
POINT
  8
1
  6
CONTINUOUS
  62
  7
 10
7.78013
 20
3.80096
 30
1.42885
  0
POINT
  8
1
  6
CONTINUOUS
  62
  7
 10
7.78481
 20
3.80109
 30
1.42885
  0
POINT
  8
1
  6
CONTINUOUS
  62
  7
 10
7.79024
 20
3.80120
 30
1.42885
  0
POINT
  8
1
  6
CONTINUOUS
  62
  7
 10
7.79565
 20
3.80122
 30
1.42885
  0
POINT
  8
1
  6
CONTINUOUS
  62
  7
 10
7.80108
 20
3.80121
 30
1.42885
  0
POINT
  8
1
  6
CONTINUOUS
  62
  7
 10
7.80650
 20
3.80119
 30
1.42885
  0
POINT
  8
1
  6
CONTINUOUS
  62
  7
 10
7.81300
 20
3.80092
 30
1.42885
  0
POINT
  8
1
  6
CONTINUOUS
  62
  7
 10
7.81733
 20
3.80090
 30
1.42885
  0
POINT
  8
1
  6
CONTINUOUS
  62
  7
 10
7.82275
 20
3.80082
 30
1.42885
  0
POINT
  8
1
  6
CONTINUOUS
  62
  7
 10
7.82924
 20
3.80068
 30
1.42885
  0
POINT
  8
1
  6
CONTINUOUS
  62
  7
 10
7.83360
 20
3.80090
 30
1.42885
  0
POINT
  8
1
  6
CONTINUOUS
  62
  7
 10
7.83904
 20
3.80118
 30
1.42885
  0
POINT
  8
1
  6
CONTINUOUS
  62
  7
 10
7.84441
 20
3.80060
 30
1.42885
  0
POINT
  8
1
  6
CONTINUOUS
  62
  7
 10
7.84984
 20
3.80073
 30
1.42885
  0
POINT
  8
1
  6
CONTINUOUS
  62
  7
 10
7.85428
 20
3.80053
 30
1.42885
  0
POINT
  8
1
  6
CONTINUOUS
  62
  7
 10
7.86039
 20
3.80087
 30
1.42885
  0
POINT
  8
1
  6
CONTINUOUS
  62
  7
 10
7.86600
 20
3.80014
 30
1.42885
  0
POINT
  8
1
  6
CONTINUOUS
  62
  7
 10
7.87251
 20
3.79945
 30
1.42885
  0
POINT
  8
1
  6
CONTINUOUS
  62
  7
 10
7.87683
 20
3.79882
 30
1.42885
  0
POINT
  8
1
  6
CONTINUOUS
  62
  7
 10
7.88125
 20
3.79872
 30
1.42885
  0
POINT
  8
1
  6
CONTINUOUS
  62
  7
 10
7.88790
 20
3.79907
 30
1.42885
  0
POINT
  8
1
  6
CONTINUOUS
  62
  7
 10
7.89331
 20
3.80011
 30
1.42885
  0
POINT
  8
1
  6
CONTINUOUS
  62
  7
 10
7.89741
 20
3.79784
 30
1.42885
  0
POINT
  8
1
  6
CONTINUOUS
  62
  7
 10
7.90400
 20
3.79816
 30
1.42885
  0
POINT
  8
1
  6
CONTINUOUS
  62
  7
 10
7.90942
 20
3.79810
 30
1.42885
  0
POINT
  8
1
  6
CONTINUOUS
  62
  7
 10
7.91483
 20
3.79800
 30
1.42885
  0
POINT
  8
1
  6
CONTINUOUS
  62
  7
 10
7.92021
 20
3.79859
 30
1.42885
  0
POINT
  8
1
  6
CONTINUOUS
  62
  7
 10
7.92570
 20
3.79825
 30
1.42885
  0
POINT
  8
1
  6
CONTINUOUS
  62
  7
 10
7.93110
 20
3.79794
 30
1.42885
  0
POINT
  8
1
  6
CONTINUOUS
  62
  7
 10
7.93651
 20
3.79769
 30
1.42885
  0
POINT
  8
1
  6
CONTINUOUS
  62
  7
 10
7.94190
 20
3.79773
 30
1.42885
  0
POINT
  8
1
  6
CONTINUOUS
  62
  7
 10
7.94734
 20
3.79797
 30
1.42885
  0
POINT
  8
1
  6
CONTINUOUS
  62
  7
 10
7.95273
 20
3.79809
 30
1.42885
  0
POINT
  8
1
  6
CONTINUOUS
  62
  7
 10
7.95821
 20
3.79798
 30
1.42885
  0
POINT
  8
1
  6
CONTINUOUS
  62
  7
 10
7.96359
 20
3.79753
 30
1.42885
  0
POINT
  8
1
  6
CONTINUOUS
  62
  7
 10
7.96901
 20
3.79744
 30
1.42885
  0
POINT
  8
1
  6
CONTINUOUS
  62
  7
 10
7.97442
 20
3.79752
 30
1.42885
  0
POINT
  8
1
  6
CONTINUOUS
  62
  7
 10
7.97985
 20
3.79737
 30
1.42885
  0
POINT
  8
1
  6
CONTINUOUS
  62
  7
 10
7.98526
 20
3.79749
 30
1.42885
  0
POINT
  8
1
  6
CONTINUOUS
  62
  7
 10
7.99069
 20
3.79718
 30
1.42885
  0
POINT
  8
1
  6
CONTINUOUS
  62
  7
 10
7.99609
 20
3.79689
 30
1.42885
  0
POINT
  8
1
  6
CONTINUOUS
  62
  7
 10
8.00150
 20
3.79677
 30
1.42885
  0
POINT
  8
1
  6
CONTINUOUS
  62
  7
 10
8.00692
 20
3.79686
 30
1.42885
  0
POINT
  8
1
  6
CONTINUOUS
  62
  7
 10
8.01235
 20
3.79673
 30
1.42885
  0
POINT
  8
1
  6
CONTINUOUS
  62
  7
 10
8.01777
 20
3.79660
 30
1.42885
  0
POINT
  8
1
  6
CONTINUOUS
  62
  7
 10
8.02318
 20
3.79635
 30
1.42885
  0
POINT
  8
1
  6
CONTINUOUS
  62
  7
 10
8.02859
 20
3.79628
 30
1.42885
  0
POINT
  8
1
  6
CONTINUOUS
  62
  7
 10
8.03403
 20
3.79626
 30
1.42885
  0
POINT
  8
1
  6
CONTINUOUS
  62
  7
 10
8.03870
 20
3.79587
 30
1.42885
  0
POINT
  8
1
  6
CONTINUOUS
  62
  7
 10
8.04409
 20
3.79547
 30
1.42885
  0
POINT
  8
1
  6
CONTINUOUS
  62
  7
 10
8.04835
 20
3.79509
 30
1.42885
  0
POINT
  8
1
  6
CONTINUOUS
  62
  7
 10
8.05493
 20
3.79056
 30
1.42885
  0
POINT
  8
1
  6
CONTINUOUS
  62
  7
 10
8.05357
 20
3.78593
 30
1.42885
  0
POINT
  8
1
  6
CONTINUOUS
  62
  7
 10
8.05344
 20
3.77970
 30
1.42885
  0
POINT
  8
1
  6
CONTINUOUS
  62
  7
 10
8.05442
 20
3.77380
 30
1.42885
  0
POINT
  8
1
  6
CONTINUOUS
  62
  7
 10
8.05440
 20
3.76881
 30
1.42885
  0
POINT
  8
1
  6
CONTINUOUS
  62
  7
 10
8.05520
 20
3.76410
 30
1.42885
  0
POINT
  8
1
  6
CONTINUOUS
  62
  7
 10
8.05446
 20
3.75866
 30
1.42885
  0
POINT
  8
1
  6
CONTINUOUS
  62
  7
 10
8.05488
 20
3.75247
 30
1.42885
  0
POINT
  8
1
  6
CONTINUOUS
  62
  7
 10
8.05536
 20
3.74722
 30
1.42885
  0
POINT
  8
1
  6
CONTINUOUS
  62
  7
 10
8.05508
 20
3.74180
 30
1.42885
  0
POINT
  8
1
  6
CONTINUOUS
  62
  7
 10
8.05505
 20
3.73644
 30
1.42885
  0
POINT
  8
1
  6
CONTINUOUS
  62
  7
 10
8.05515
 20
3.73045
 30
1.42885
  0
POINT
  8
1
  6
CONTINUOUS
  62
  7
 10
8.05502
 20
3.72612
 30
1.42885
  0
POINT
  8
1
  6
CONTINUOUS
  62
  7
 10
8.05549
 20
3.72068
 30
1.42885
  0
POINT
  8
1
  6
CONTINUOUS
  62
  7
 10
8.05535
 20
3.71528
 30
1.42885
  0
POINT
  8
1
  6
CONTINUOUS
  62
  7
 10
8.05545
 20
3.70933
 30
1.42885
  0
POINT
  8
1
  6
CONTINUOUS
  62
  7
 10
8.05547
 20
3.70389
 30
1.42885
  0
POINT
  8
1
  6
CONTINUOUS
  62
  7
 10
8.05587
 20
3.69904
 30
1.42885
  0
POINT
  8
1
  6
CONTINUOUS
  62
  7
 10
8.05609
 20
3.69360
 30
1.42885
  0
POINT
  8
1
  6
CONTINUOUS
  62
  7
 10
8.05603
 20
3.68768
 30
1.42885
  0
POINT
  8
1
  6
CONTINUOUS
  62
  7
 10
8.05618
 20
3.68226
 30
1.42885
  0
POINT
  8
1
  6
CONTINUOUS
  62
  7
 10
8.05624
 20
3.67682
 30
1.42885
  0
POINT
  8
1
  6
CONTINUOUS
  62
  7
 10
8.05643
 20
3.67141
 30
1.42885
  0
POINT
  8
1
  6
CONTINUOUS
  62
  7
 10
8.05617
 20
3.66618
 30
1.42883
  0
POINT
  8
1
  6
CONTINUOUS
  62
  7
 10
8.05636
 20
3.66075
 30
1.42883
  0
POINT
  8
1
  6
CONTINUOUS
  62
  7
 10
8.05641
 20
3.65535
 30
1.42883
  0
POINT
  8
1
  6
CONTINUOUS
  62
  7
 10
8.05666
 20
3.64995
 30
1.42883
  0
POINT
  8
1
  6
CONTINUOUS
  62
  7
 10
8.05680
 20
3.64451
 30
1.42883
  0
POINT
  8
1
  6
CONTINUOUS
  62
  7
 10
8.05688
 20
3.63910
 30
1.42883
  0
POINT
  8
1
  6
CONTINUOUS
  62
  7
 10
8.05696
 20
3.63366
 30
1.42883
  0
POINT
  8
1
  6
CONTINUOUS
  62
  7
 10
8.05730
 20
3.62882
 30
1.42883
  0
POINT
  8
1
  6
CONTINUOUS
  62
  7
 10
8.05740
 20
3.62266
 30
1.42883
  0
POINT
  8
1
  6
CONTINUOUS
  62
  7
 10
8.05801
 20
3.61741
 30
1.42883
  0
POINT
  8
1
  6
CONTINUOUS
  62
  7
 10
8.05749
 20
3.61198
 30
1.42883
  0
POINT
  8
1
  6
CONTINUOUS
  62
  7
 10
8.05752
 20
3.60717
 30
1.42883
  0
POINT
  8
1
  6
CONTINUOUS
  62
  7
 10
8.05726
 20
3.60122
 30
1.42883
  0
POINT
  8
1
  6
CONTINUOUS
  62
  7
 10
8.05766
 20
3.59525
 30
1.42883
  0
POINT
  8
1
  6
CONTINUOUS
  62
  7
 10
8.05724
 20
3.59053
 30
1.42883
  0
POINT
  8
1
  6
CONTINUOUS
  62
  7
 10
8.05681
 20
3.58553
 30
1.42883
  0
POINT
  8
1
  6
CONTINUOUS
  62
  7
 10
8.05684
 20
3.57898
 30
1.42883
  0
POINT
  8
1
  6
CONTINUOUS
  62
  7
 10
8.05688
 20
3.57466
 30
1.42883
  0
POINT
  8
1
  6
CONTINUOUS
  62
  7
 10
8.05674
 20
3.56879
 30
1.42883
  0
POINT
  8
1
  6
CONTINUOUS
  62
  7
 10
8.05631
 20
3.56331
 30
1.42883
  0
POINT
  8
1
  6
CONTINUOUS
  62
  7
 10
8.05631
 20
3.55789
 30
1.42883
  0
POINT
  8
1
  6
CONTINUOUS
  62
  7
 10
8.05590
 20
3.55196
 30
1.42883
  0
POINT
  8
1
  6
CONTINUOUS
  62
  7
 10
8.05582
 20
3.54706
 30
1.42883
  0
POINT
  8
1
  6
CONTINUOUS
  62
  7
 10
8.05583
 20
3.54221
 30
1.42883
  0
POINT
  8
1
  6
CONTINUOUS
  62
  7
 10
8.05562
 20
3.53622
 30
1.42883
  0
POINT
  8
1
  6
CONTINUOUS
  62
  7
 10
8.05532
 20
3.53082
 30
1.42883
  0
POINT
  8
1
  6
CONTINUOUS
  62
  7
 10
8.05517
 20
3.52541
 30
1.42883
  0
POINT
  8
1
  6
CONTINUOUS
  62
  7
 10
8.05485
 20
3.51947
 30
1.42883
  0
POINT
  8
1
  6
CONTINUOUS
  62
  7
 10
8.05470
 20
3.51456
 30
1.42883
  0
POINT
  8
1
  6
CONTINUOUS
  62
  7
 10
8.05452
 20
3.50915
 30
1.42883
  0
POINT
  8
1
  6
CONTINUOUS
  62
  7
 10
8.05450
 20
3.50373
 30
1.42883
  0
POINT
  8
1
  6
CONTINUOUS
  62
  7
 10
8.05383
 20
3.49784
 30
1.42883
  0
POINT
  8
1
  6
CONTINUOUS
  62
  7
 10
8.05348
 20
3.49286
 30
1.42883
  0
POINT
  8
1
  6
CONTINUOUS
  62
  7
 10
8.04893
 20
3.48643
 30
1.42883
  0
POINT
  8
1
  6
CONTINUOUS
  62
  7
 10
8.04553
 20
3.48604
 30
1.42883
  0
POINT
  8
1
  6
CONTINUOUS
  62
  7
 10
8.04028
 20
3.48560
 30
1.42883
  0
POINT
  8
1
  6
CONTINUOUS
  62
  7
 10
8.03378
 20
3.48562
 30
1.42883
  0
POINT
  8
1
  6
CONTINUOUS
  62
  7
 10
8.02946
 20
3.48588
 30
1.42883
  0
POINT
  8
1
  6
CONTINUOUS
  62
  7
 10
8.02402
 20
3.48592
 30
1.42883
  0
POINT
  8
1
  6
CONTINUOUS
  62
  7
 10
8.01861
 20
3.48611
 30
1.42883
  0
POINT
  8
1
  6
CONTINUOUS
  62
  7
 10
8.01211
 20
3.48618
 30
1.42883
  0
POINT
  8
1
  6
CONTINUOUS
  62
  7
 10
8.00779
 20
3.48629
 30
1.42883
  0
POINT
  8
1
  6
CONTINUOUS
  62
  7
 10
8.00239
 20
3.48676
 30
1.42883
  0
POINT
  8
1
  6
CONTINUOUS
  62
  7
 10
7.99693
 20
3.48646
 30
1.42883
  0
POINT
  8
1
  6
CONTINUOUS
  62
  7
 10
7.99152
 20
3.48653
 30
1.42883
  0
POINT
  8
1
  6
CONTINUOUS
  62
  7
 10
7.98611
 20
3.48619
 30
1.42883
  0
POINT
  8
1
  6
CONTINUOUS
  62
  7
 10
7.97969
 20
3.48690
 30
1.42883
  0
POINT
  8
1
  6
CONTINUOUS
  62
  7
 10
7.97530
 20
3.48744
 30
1.42883
  0
POINT
  8
1
  6
CONTINUOUS
  62
  7
 10
7.96986
 20
3.48751
 30
1.42883
  0
POINT
  8
1
  6
CONTINUOUS
  62
  7
 10
7.96443
 20
3.48743
 30
1.42883
  0
POINT
  8
1
  6
CONTINUOUS
  62
  7
 10
7.95794
 20
3.48770
 30
1.42883
  0
POINT
  8
1
  6
CONTINUOUS
  62
  7
 10
7.95360
 20
3.48772
 30
1.42883
  0
POINT
  8
1
  6
CONTINUOUS
  62
  7
 10
7.94818
 20
3.48800
 30
1.42883
  0
POINT
  8
1
  6
CONTINUOUS
  62
  7
 10
7.94277
 20
3.48811
 30
1.42883
  0
POINT
  8
1
  6
CONTINUOUS
  62
  7
 10
7.93737
 20
3.48849
 30
1.42883
  0
POINT
  8
1
  6
CONTINUOUS
  62
  7
 10
7.93196
 20
3.48859
 30
1.42883
  0
POINT
  8
1
  6
CONTINUOUS
  62
  7
 10
7.92646
 20
3.48890
 30
1.42883
  0
POINT
  8
1
  6
CONTINUOUS
  62
  7
 10
7.92009
 20
3.48910
 30
1.42883
  0
POINT
  8
1
  6
CONTINUOUS
  62
  7
 10
7.91568
 20
3.48925
 30
1.42883
  0
POINT
  8
1
  6
CONTINUOUS
  62
  7
 10
7.91026
 20
3.48956
 30
1.42883
  0
POINT
  8
1
  6
CONTINUOUS
  62
  7
 10
7.90488
 20
3.48967
 30
1.42883
  0
POINT
  8
1
  6
CONTINUOUS
  62
  7
 10
7.89949
 20
3.49038
 30
1.42883
  0
POINT
  8
1
  6
CONTINUOUS
  62
  7
 10
7.89404
 20
3.49068
 30
1.42883
  0
POINT
  8
1
  6
CONTINUOUS
  62
  7
 10
7.88861
 20
3.49089
 30
1.42883
  0
POINT
  8
1
  6
CONTINUOUS
  62
  7
 10
7.88318
 20
3.49100
 30
1.42883
  0
POINT
  8
1
  6
CONTINUOUS
  62
  7
 10
7.87778
 20
3.49114
 30
1.42883
  0
POINT
  8
1
  6
CONTINUOUS
  62
  7
 10
7.87236
 20
3.49155
 30
1.42883
  0
POINT
  8
1
  6
CONTINUOUS
  62
  7
 10
7.86693
 20
3.49189
 30
1.42883
  0
POINT
  8
1
  6
CONTINUOUS
  62
  7
 10
7.86154
 20
3.49183
 30
1.42883
  0
POINT
  8
1
  6
CONTINUOUS
  62
  7
 10
7.85650
 20
3.49197
 30
1.42885
  0
POINT
  8
1
  6
CONTINUOUS
  62
  7
 10
7.85112
 20
3.49272
 30
1.42885
  0
POINT
  8
1
  6
CONTINUOUS
  62
  7
 10
7.84572
 20
3.49296
 30
1.42885
  0
POINT
  8
1
  6
CONTINUOUS
  62
  7
 10
7.84027
 20
3.49281
 30
1.42885
  0
POINT
  8
1
  6
CONTINUOUS
  62
  7
 10
7.83490
 20
3.49314
 30
1.42885
  0
POINT
  8
1
  6
CONTINUOUS
  62
  7
 10
7.82946
 20
3.49349
 30
1.42885
  0
POINT
  8
1
  6
CONTINUOUS
  62
  7
 10
7.82404
 20
3.49371
 30
1.42885
  0
POINT
  8
1
  6
CONTINUOUS
  62
  7
 10
7.81754
 20
3.49373
 30
1.42885
  0
POINT
  8
1
  6
CONTINUOUS
  62
  7
 10
7.81318
 20
3.49417
 30
1.42885
  0
POINT
  8
1
  6
CONTINUOUS
  62
  7
 10
7.80777
 20
3.49474
 30
1.42885
  0
POINT
  8
1
  6
CONTINUOUS
  62
  7
 10
7.80237
 20
3.49495
 30
1.42885
  0
POINT
  8
1
  6
CONTINUOUS
  62
  7
 10
7.79696
 20
3.49480
 30
1.42885
  0
POINT
  8
1
  6
CONTINUOUS
  62
  7
 10
7.79151
 20
3.49514
 30
1.42885
  0
POINT
  8
1
  6
CONTINUOUS
  62
  7
 10
7.78612
 20
3.49547
 30
1.42885
  0
POINT
  8
1
  6
CONTINUOUS
  62
  7
 10
7.78072
 20
3.49587
 30
1.42885
  0
POINT
  8
1
  6
CONTINUOUS
  62
  7
 10
7.77529
 20
3.49603
 30
1.42885
  0
POINT
  8
1
  6
CONTINUOUS
  62
  7
 10
7.76987
 20
3.49624
 30
1.42885
  0
POINT
  8
1
  6
CONTINUOUS
  62
  7
 10
7.76445
 20
3.49638
 30
1.42885
  0
POINT
  8
1
  6
CONTINUOUS
  62
  7
 10
7.75904
 20
3.49659
 30
1.42885
  0
POINT
  8
1
  6
CONTINUOUS
  62
  7
 10
7.75362
 20
3.49692
 30
1.42885
  0
POINT
  8
1
  6
CONTINUOUS
  62
  7
 10
7.74820
 20
3.49675
 30
1.42885
  0
POINT
  8
1
  6
CONTINUOUS
  62
  7
 10
7.74282
 20
3.49741
 30
1.42885
  0
POINT
  8
1
  6
CONTINUOUS
  62
  7
 10
7.73737
 20
3.49775
 30
1.42885
  0
POINT
  8
1
  6
CONTINUOUS
  62
  7
 10
7.73194
 20
3.49809
 30
1.42885
  0
POINT
  8
1
  6
CONTINUOUS
  62
  7
 10
7.72653
 20
3.49815
 30
1.42885
  0
POINT
  8
1
  6
CONTINUOUS
  62
  7
 10
7.72110
 20
3.49854
 30
1.42885
  0
POINT
  8
1
  6
CONTINUOUS
  62
  7
 10
7.71568
 20
3.49883
 30
1.42885
  0
POINT
  8
1
  6
CONTINUOUS
  62
  7
 10
7.71028
 20
3.49903
 30
1.42885
  0
POINT
  8
1
  6
CONTINUOUS
  62
  7
 10
7.70487
 20
3.49914
 30
1.42885
  0
POINT
  8
1
  6
CONTINUOUS
  62
  7
 10
7.69945
 20
3.49928
 30
1.42885
  0
POINT
  8
1
  6
CONTINUOUS
  62
  7
 10
7.69295
 20
3.49981
 30
1.42885
  0
POINT
  8
1
  6
CONTINUOUS
  62
  7
 10
7.68862
 20
3.49978
 30
1.42885
  0
POINT
  8
1
  6
CONTINUOUS
  62
  7
 10
7.68321
 20
3.50017
 30
1.42885
  0
POINT
  8
1
  6
CONTINUOUS
  62
  7
 10
7.67669
 20
3.50026
 30
1.42885
  0
POINT
  8
1
  6
CONTINUOUS
  62
  7
 10
7.67126
 20
3.50068
 30
1.42885
  0
POINT
  8
1
  6
CONTINUOUS
  62
  7
 10
7.66696
 20
3.50121
 30
1.42885
  0
POINT
  8
1
  6
CONTINUOUS
  62
  7
 10
7.66154
 20
3.50121
 30
1.42885
  0
POINT
  8
1
  6
CONTINUOUS
  62
  7
 10
7.65503
 20
3.50149
 30
1.42885
  0
POINT
  8
1
  6
CONTINUOUS
  62
  7
 10
7.65072
 20
3.50187
 30
1.42885
  0
POINT
  8
1
  6
CONTINUOUS
  62
  7
 10
7.64528
 20
3.50193
 30
1.42885
  0
POINT
  8
1
  6
CONTINUOUS
  62
  7
 10
7.63881
 20
3.50279
 30
1.42885
  0
POINT
  8
1
  6
CONTINUOUS
  62
  7
 10
7.63336
 20
3.50306
 30
1.42885
  0
POINT
  8
1
  6
CONTINUOUS
  62
  7
 10
7.62903
 20
3.50304
 30
1.42885
  0
POINT
  8
1
  6
CONTINUOUS
  62
  7
 10
7.62361
 20
3.50301
 30
1.42885
  0
POINT
  8
1
  6
CONTINUOUS
  62
  7
 10
7.61712
 20
3.50325
 30
1.42885
  0
POINT
  8
1
  6
CONTINUOUS
  62
  7
 10
7.61225
 20
3.50413
 30
1.42885
  0
POINT
  8
1
  6
CONTINUOUS
  62
  7
 10
7.60680
 20
3.50422
 30
1.42885
  0
POINT
  8
1
  6
CONTINUOUS
  62
  7
 10
7.60248
 20
3.50445
 30
1.42885
  0
POINT
  8
1
  6
CONTINUOUS
  62
  7
 10
7.59705
 20
3.50476
 30
1.42885
  0
POINT
  8
1
  6
CONTINUOUS
  62
  7
 10
7.59056
 20
3.50506
 30
1.42885
  0
POINT
  8
1
  6
CONTINUOUS
  62
  7
 10
7.58622
 20
3.50533
 30
1.42885
  0
POINT
  8
1
  6
CONTINUOUS
  62
  7
 10
7.58084
 20
3.50574
 30
1.42885
  0
POINT
  8
1
  6
CONTINUOUS
  62
  7
 10
7.57430
 20
3.50431
 30
1.42885
  0
POINT
  8
1
  6
CONTINUOUS
  62
  7
 10
7.56917
 20
3.50631
 30
1.42885
  0
POINT
  8
1
  6
CONTINUOUS
  62
  7
 10
7.56454
 20
3.50634
 30
1.42885
  0
POINT
  8
1
  6
CONTINUOUS
  62
  7
 10
7.55914
 20
3.50660
 30
1.42885
  0
POINT
  8
1
  6
CONTINUOUS
  62
  7
 10
7.55263
 20
3.50686
 30
1.42885
  0
POINT
  8
1
  6
CONTINUOUS
  62
  7
 10
7.54832
 20
3.50691
 30
1.42885
  0
POINT
  8
1
  6
CONTINUOUS
  62
  7
 10
7.54290
 20
3.50722
 30
1.42885
  0
POINT
  8
1
  6
CONTINUOUS
  62
  7
 10
7.53747
 20
3.50759
 30
1.42885
  0
POINT
  8
1
  6
CONTINUOUS
  62
  7
 10
7.53098
 20
3.50793
 30
1.42885
  0
POINT
  8
1
  6
CONTINUOUS
  62
  7
 10
7.52662
 20
3.50795
 30
1.42885
  0
POINT
  8
1
  6
CONTINUOUS
  62
  7
 10
7.52123
 20
3.50829
 30
1.42885
  0
POINT
  8
1
  6
CONTINUOUS
  62
  7
 10
7.51581
 20
3.50857
 30
1.42885
  0
POINT
  8
1
  6
CONTINUOUS
  62
  7
 10
7.51038
 20
3.50873
 30
1.42885
  0
POINT
  8
1
  6
CONTINUOUS
  62
  7
 10
7.50495
 20
3.50898
 30
1.42885
  0
POINT
  8
1
  6
CONTINUOUS
  62
  7
 10
7.49953
 20
3.50939
 30
1.42885
  0
POINT
  8
1
  6
CONTINUOUS
  62
  7
 10
7.49408
 20
3.50972
 30
1.42885
  0
POINT
  8
1
  6
CONTINUOUS
  62
  7
 10
7.48870
 20
3.50876
 30
1.42885
  0
POINT
  8
1
  6
CONTINUOUS
  62
  7
 10
7.48338
 20
3.51002
 30
1.42885
  0
POINT
  8
1
  6
CONTINUOUS
  62
  7
 10
7.47788
 20
3.51028
 30
1.42885
  0
POINT
  8
1
  6
CONTINUOUS
  62
  7
 10
7.47245
 20
3.51023
 30
1.42885
  0
POINT
  8
1
  6
CONTINUOUS
  62
  7
 10
7.46709
 20
3.51058
 30
1.42885
  0
POINT
  8
1
  6
CONTINUOUS
  62
  7
 10
7.46161
 20
3.51099
 30
1.42885
  0
POINT
  8
1
  6
CONTINUOUS
  62
  7
 10
7.45623
 20
3.51128
 30
1.42885
  0
POINT
  8
1
  6
CONTINUOUS
  62
  7
 10
7.45080
 20
3.51140
 30
1.42885
  0
POINT
  8
1
  6
CONTINUOUS
  62
  7
 10
7.44428
 20
3.51148
 30
1.42885
  0
POINT
  8
1
  6
CONTINUOUS
  62
  7
 10
7.44000
 20
3.51179
 30
1.42885
  0
POINT
  8
1
  6
CONTINUOUS
  62
  7
 10
7.43349
 20
3.51223
 30
1.42885
  0
POINT
  8
1
  6
CONTINUOUS
  62
  7
 10
7.42804
 20
3.51263
 30
1.42885
  0
POINT
  8
1
  6
CONTINUOUS
  62
  7
 10
7.42370
 20
3.51241
 30
1.42885
  0
POINT
  8
1
  6
CONTINUOUS
  62
  7
 10
7.41828
 20
3.51282
 30
1.42885
  0
POINT
  8
1
  6
CONTINUOUS
  62
  7
 10
7.41180
 20
3.51303
 30
1.42885
  0
POINT
  8
1
  6
CONTINUOUS
  62
  7
 10
7.40637
 20
3.51348
 30
1.42885
  0
POINT
  8
1
  6
CONTINUOUS
  62
  7
 10
7.40205
 20
3.51365
 30
1.42885
  0
POINT
  8
1
  6
CONTINUOUS
  62
  7
 10
7.39663
 20
3.51368
 30
1.42885
  0
POINT
  8
1
  6
CONTINUOUS
  62
  7
 10
7.39015
 20
3.51417
 30
1.42885
  0
POINT
  8
1
  6
CONTINUOUS
  62
  7
 10
7.38577
 20
3.51429
 30
1.42885
  0
POINT
  8
1
  6
CONTINUOUS
  62
  7
 10
7.38037
 20
3.51455
 30
1.42885
  0
POINT
  8
1
  6
CONTINUOUS
  62
  7
 10
7.37386
 20
3.51484
 30
1.42885
  0
POINT
  8
1
  6
CONTINUOUS
  62
  7
 10
7.36985
 20
3.51439
 30
1.42885
  0
POINT
  8
1
  6
CONTINUOUS
  62
  7
 10
7.36338
 20
3.51507
 30
1.42885
  0
POINT
  8
1
  6
CONTINUOUS
  62
  7
 10
7.35902
 20
3.51533
 30
1.42885
  0
POINT
  8
1
  6
CONTINUOUS
  62
  7
 10
7.35359
 20
3.51562
 30
1.42885
  0
POINT
  8
1
  6
CONTINUOUS
  62
  7
 10
7.34818
 20
3.51581
 30
1.42885
  0
POINT
  8
1
  6
CONTINUOUS
  62
  7
 10
7.34169
 20
3.51606
 30
1.42885
  0
POINT
  8
1
  6
CONTINUOUS
  62
  7
 10
7.33736
 20
3.51625
 30
1.42885
  0
POINT
  8
1
  6
CONTINUOUS
  62
  7
 10
7.33193
 20
3.51632
 30
1.42885
  0
POINT
  8
1
  6
CONTINUOUS
  62
  7
 10
7.32546
 20
3.51686
 30
1.42885
  0
POINT
  8
1
  6
CONTINUOUS
  62
  7
 10
7.32110
 20
3.51709
 30
1.42885
  0
POINT
  8
1
  6
CONTINUOUS
  62
  7
 10
7.31568
 20
3.51704
 30
1.42885
  0
POINT
  8
1
  6
CONTINUOUS
  62
  7
 10
7.31032
 20
3.51745
 30
1.42885
  0
POINT
  8
1
  6
CONTINUOUS
  62
  7
 10
7.30377
 20
3.51795
 30
1.42885
  0
POINT
  8
1
  6
CONTINUOUS
  62
  7
 10
7.29943
 20
3.51800
 30
1.42885
  0
POINT
  8
1
  6
CONTINUOUS
  62
  7
 10
7.29403
 20
3.51845
 30
1.42885
  0
POINT
  8
1
  6
CONTINUOUS
  62
  7
 10
7.28858
 20
3.51843
 30
1.42885
  0
POINT
  8
1
  6
CONTINUOUS
  62
  7
 10
7.28317
 20
3.51822
 30
1.42885
  0
POINT
  8
1
  6
CONTINUOUS
  62
  7
 10
7.27776
 20
3.51907
 30
1.42885
  0
POINT
  8
1
  6
CONTINUOUS
  62
  7
 10
7.27126
 20
3.51968
 30
1.42885
  0
POINT
  8
1
  6
CONTINUOUS
  62
  7
 10
7.26585
 20
3.51982
 30
1.42885
  0
POINT
  8
1
  6
CONTINUOUS
  62
  7
 10
7.26152
 20
3.51997
 30
1.42885
  0
POINT
  8
1
  6
CONTINUOUS
  62
  7
 10
7.25609
 20
3.52021
 30
1.42885
  0
POINT
  8
1
  6
CONTINUOUS
  62
  7
 10
7.25070
 20
3.52060
 30
1.42885
  0
POINT
  8
1
  6
CONTINUOUS
  62
  7
 10
7.24527
 20
3.52095
 30
1.42885
  0
POINT
  8
1
  6
CONTINUOUS
  62
  7
 10
7.23986
 20
3.52121
 30
1.42885
  0
POINT
  8
1
  6
CONTINUOUS
  62
  7
 10
7.23334
 20
3.52132
 30
1.42885
  0
POINT
  8
1
  6
CONTINUOUS
  62
  7
 10
7.22794
 20
3.52155
 30
1.42885
  0
POINT
  8
1
  6
CONTINUOUS
  62
  7
 10
7.22367
 20
3.52171
 30
1.42885
  0
POINT
  8
1
  6
CONTINUOUS
  62
  7
 10
7.21819
 20
3.52217
 30
1.42885
  0
POINT
  8
1
  6
CONTINUOUS
  62
  7
 10
7.21278
 20
3.52237
 30
1.42885
  0
POINT
  8
1
  6
CONTINUOUS
  62
  7
 10
7.20735
 20
3.52267
 30
1.42885
  0
POINT
  8
1
  6
CONTINUOUS
  62
  7
 10
7.20084
 20
3.52255
 30
1.42885
  0
POINT
  8
1
  6
CONTINUOUS
  62
  7
 10
7.19652
 20
3.52265
 30
1.42885
  0
POINT
  8
1
  6
CONTINUOUS
  62
  7
 10
7.19110
 20
3.52305
 30
1.42885
  0
POINT
  8
1
  6
CONTINUOUS
  62
  7
 10
7.18459
 20
3.52359
 30
1.42885
  0
POINT
  8
1
  6
CONTINUOUS
  62
  7
 10
7.17918
 20
3.52371
 30
1.42885
  0
POINT
  8
1
  6
CONTINUOUS
  62
  7
 10
7.17488
 20
3.52400
 30
1.42885
  0
POINT
  8
1
  6
CONTINUOUS
  62
  7
 10
7.16943
 20
3.52443
 30
1.42885
  0
POINT
  8
1
  6
CONTINUOUS
  62
  7
 10
7.16292
 20
3.52460
 30
1.42885
  0
POINT
  8
1
  6
CONTINUOUS
  62
  7
 10
7.15860
 20
3.52483
 30
1.42885
  0
POINT
  8
1
  6
CONTINUOUS
  62
  7
 10
7.15316
 20
3.52497
 30
1.42885
  0
POINT
  8
1
  6
CONTINUOUS
  62
  7
 10
7.14667
 20
3.52528
 30
1.42885
  0
POINT
  8
1
  6
CONTINUOUS
  62
  7
 10
7.14129
 20
3.52567
 30
1.42885
  0
POINT
  8
1
  6
CONTINUOUS
  62
  7
 10
7.13693
 20
3.52587
 30
1.42885
  0
POINT
  8
1
  6
CONTINUOUS
  62
  7
 10
7.13150
 20
3.52621
 30
1.42885
  0
POINT
  8
1
  6
CONTINUOUS
  62
  7
 10
7.12500
 20
3.52644
 30
1.42885
  0
POINT
  8
1
  6
CONTINUOUS
  62
  7
 10
7.12024
 20
3.52648
 30
1.42883
  0
POINT
  8
1
  6
CONTINUOUS
  62
  7
 10
7.11482
 20
3.52636
 30
1.42883
  0
POINT
  8
1
  6
CONTINUOUS
  62
  7
 10
7.10944
 20
3.52657
 30
1.42883
  0
POINT
  8
1
  6
CONTINUOUS
  62
  7
 10
7.10400
 20
3.52706
 30
1.42883
  0
POINT
  8
1
  6
CONTINUOUS
  62
  7
 10
7.09856
 20
3.52754
 30
1.42883
  0
POINT
  8
1
  6
CONTINUOUS
  62
  7
 10
7.09315
 20
3.52718
 30
1.42883
  0
POINT
  8
1
  6
CONTINUOUS
  62
  7
 10
7.08786
 20
3.52785
 30
1.42883
  0
POINT
  8
1
  6
CONTINUOUS
  62
  7
 10
7.08234
 20
3.52833
 30
1.42883
  0
POINT
  8
1
  6
CONTINUOUS
  62
  7
 10
7.07689
 20
3.52845
 30
1.42883
  0
POINT
  8
1
  6
CONTINUOUS
  62
  7
 10
7.07258
 20
3.52885
 30
1.42883
  0
POINT
  8
1
  6
CONTINUOUS
  62
  7
 10
7.06714
 20
3.52889
 30
1.42883
  0
POINT
  8
1
  6
CONTINUOUS
  62
  7
 10
7.06065
 20
3.52916
 30
1.42883
  0
POINT
  8
1
  6
CONTINUOUS
  62
  7
 10
7.05525
 20
3.52945
 30
1.42883
  0
POINT
  8
1
  6
CONTINUOUS
  62
  7
 10
7.05092
 20
3.52958
 30
1.42883
  0
POINT
  8
1
  6
CONTINUOUS
  62
  7
 10
7.04441
 20
3.52985
 30
1.42883
  0
POINT
  8
1
  6
CONTINUOUS
  62
  7
 10
7.03898
 20
3.53014
 30
1.42883
  0
POINT
  8
1
  6
CONTINUOUS
  62
  7
 10
7.03463
 20
3.53039
 30
1.42883
  0
POINT
  8
1
  6
CONTINUOUS
  62
  7
 10
7.02923
 20
3.53066
 30
1.42883
  0
POINT
  8
1
  6
CONTINUOUS
  62
  7
 10
7.02273
 20
3.53088
 30
1.42883
  0
POINT
  8
1
  6
CONTINUOUS
  62
  7
 10
7.01841
 20
3.53101
 30
1.42883
  0
POINT
  8
1
  6
CONTINUOUS
  62
  7
 10
7.01298
 20
3.53100
 30
1.42883
  0
POINT
  8
1
  6
CONTINUOUS
  62
  7
 10
7.00648
 20
3.53139
 30
1.42883
  0
POINT
  8
1
  6
CONTINUOUS
  62
  7
 10
7.00105
 20
3.53099
 30
1.42883
  0
POINT
  8
1
  6
CONTINUOUS
  62
  7
 10
6.99568
 20
3.53203
 30
1.42883
  0
POINT
  8
1
  6
CONTINUOUS
  62
  7
 10
6.99131
 20
3.53236
 30
1.42883
  0
POINT
  8
1
  6
CONTINUOUS
  62
  7
 10
6.98478
 20
3.53256
 30
1.42883
  0
POINT
  8
1
  6
CONTINUOUS
  62
  7
 10
6.98047
 20
3.53226
 30
1.42883
  0
POINT
  8
1
  6
CONTINUOUS
  62
  7
 10
6.97507
 20
3.53301
 30
1.42883
  0
POINT
  8
1
  6
CONTINUOUS
  62
  7
 10
6.96856
 20
3.53317
 30
1.42883
  0
POINT
  8
1
  6
CONTINUOUS
  62
  7
 10
6.96313
 20
3.53325
 30
1.42883
  0
POINT
  8
1
  6
CONTINUOUS
  62
  7
 10
6.95882
 20
3.53359
 30
1.42883
  0
POINT
  8
1
  6
CONTINUOUS
  62
  7
 10
6.95339
 20
3.53402
 30
1.42883
  0
POINT
  8
1
  6
CONTINUOUS
  62
  7
 10
6.94689
 20
3.53422
 30
1.42883
  0
POINT
  8
1
  6
CONTINUOUS
  62
  7
 10
6.94255
 20
3.53438
 30
1.42883
  0
POINT
  8
1
  6
CONTINUOUS
  62
  7
 10
6.93714
 20
3.53504
 30
1.42883
  0
POINT
  8
1
  6
CONTINUOUS
  62
  7
 10
6.93065
 20
3.53525
 30
1.42883
  0
POINT
  8
1
  6
CONTINUOUS
  62
  7
 10
6.92522
 20
3.53551
 30
1.42883
  0
POINT
  8
1
  6
CONTINUOUS
  62
  7
 10
6.92090
 20
3.53580
 30
1.42883
  0
POINT
  8
1
  6
CONTINUOUS
  62
  7
 10
6.91547
 20
3.53617
 30
1.42883
  0
POINT
  8
1
  6
CONTINUOUS
  62
  7
 10
6.91006
 20
3.53623
 30
1.42883
  0
POINT
  8
1
  6
CONTINUOUS
  62
  7
 10
6.90464
 20
3.53675
 30
1.42883
  0
POINT
  8
1
  6
CONTINUOUS
  62
  7
 10
6.89923
 20
3.53697
 30
1.42883
  0
POINT
  8
1
  6
CONTINUOUS
  62
  7
 10
6.89380
 20
3.53696
 30
1.42883
  0
POINT
  8
1
  6
CONTINUOUS
  62
  7
 10
6.88733
 20
3.53706
 30
1.42883
  0
POINT
  8
1
  6
CONTINUOUS
  62
  7
 10
6.88298
 20
3.53739
 30
1.42883
  0
POINT
  8
1
  6
CONTINUOUS
  62
  7
 10
6.87764
 20
3.53774
 30
1.42885
  0
POINT
  8
1
  6
CONTINUOUS
  62
  7
 10
6.87112
 20
3.53770
 30
1.42885
  0
POINT
  8
1
  6
CONTINUOUS
  62
  7
 10
6.86679
 20
3.53803
 30
1.42885
  0
POINT
  8
1
  6
CONTINUOUS
  62
  7
 10
6.86139
 20
3.53841
 30
1.42885
  0
POINT
  8
1
  6
CONTINUOUS
  62
  7
 10
6.85487
 20
3.53878
 30
1.42885
  0
POINT
  8
1
  6
CONTINUOUS
  62
  7
 10
6.85052
 20
3.53874
 30
1.42885
  0
POINT
  8
1
  6
CONTINUOUS
  62
  7
 10
6.84511
 20
3.53886
 30
1.42885
  0
POINT
  8
1
  6
CONTINUOUS
  62
  7
 10
6.83974
 20
3.53902
 30
1.42885
  0
POINT
  8
1
  6
CONTINUOUS
  62
  7
 10
6.83432
 20
3.53955
 30
1.42885
  0
POINT
  8
1
  6
CONTINUOUS
  62
  7
 10
6.82889
 20
3.53966
 30
1.42885
  0
POINT
  8
1
  6
CONTINUOUS
  62
  7
 10
6.82349
 20
3.54001
 30
1.42885
  0
POINT
  8
1
  6
CONTINUOUS
  62
  7
 10
6.81694
 20
3.54040
 30
1.42885
  0
POINT
  8
1
  6
CONTINUOUS
  62
  7
 10
6.81152
 20
3.54059
 30
1.42885
  0
POINT
  8
1
  6
CONTINUOUS
  62
  7
 10
6.80722
 20
3.54093
 30
1.42885
  0
POINT
  8
1
  6
CONTINUOUS
  62
  7
 10
6.80179
 20
3.54091
 30
1.42885
  0
POINT
  8
1
  6
CONTINUOUS
  62
  7
 10
6.79640
 20
3.54112
 30
1.42885
  0
POINT
  8
1
  6
CONTINUOUS
  62
  7
 10
6.79096
 20
3.54144
 30
1.42885
  0
POINT
  8
1
  6
CONTINUOUS
  62
  7
 10
6.78444
 20
3.54169
 30
1.42885
  0
POINT
  8
1
  6
CONTINUOUS
  62
  7
 10
6.78014
 20
3.54205
 30
1.42885
  0
POINT
  8
1
  6
CONTINUOUS
  62
  7
 10
6.77471
 20
3.54256
 30
1.42885
  0
POINT
  8
1
  6
CONTINUOUS
  62
  7
 10
6.76820
 20
3.54292
 30
1.42885
  0
POINT
  8
1
  6
CONTINUOUS
  62
  7
 10
6.76277
 20
3.54294
 30
1.42885
  0
POINT
  8
1
  6
CONTINUOUS
  62
  7
 10
6.75842
 20
3.54299
 30
1.42885
  0
POINT
  8
1
  6
CONTINUOUS
  62
  7
 10
6.75304
 20
3.54356
 30
1.42885
  0
POINT
  8
1
  6
CONTINUOUS
  62
  7
 10
6.74654
 20
3.54381
 30
1.42885
  0
POINT
  8
1
  6
CONTINUOUS
  62
  7
 10
6.74219
 20
3.54384
 30
1.42885
  0
POINT
  8
1
  6
CONTINUOUS
  62
  7
 10
6.73677
 20
3.54387
 30
1.42885
  0
POINT
  8
1
  6
CONTINUOUS
  62
  7
 10
6.73027
 20
3.54404
 30
1.42885
  0
POINT
  8
1
  6
CONTINUOUS
  62
  7
 10
6.72488
 20
3.54425
 30
1.42885
  0
POINT
  8
1
  6
CONTINUOUS
  62
  7
 10
6.72055
 20
3.54453
 30
1.42885
  0
POINT
  8
1
  6
CONTINUOUS
  62
  7
 10
6.71515
 20
3.54490
 30
1.42885
  0
POINT
  8
1
  6
CONTINUOUS
  62
  7
 10
6.70860
 20
3.54541
 30
1.42885
  0
POINT
  8
1
  6
CONTINUOUS
  62
  7
 10
6.70429
 20
3.54541
 30
1.42885
  0
POINT
  8
1
  6
CONTINUOUS
  62
  7
 10
6.69885
 20
3.54571
 30
1.42885
  0
POINT
  8
1
  6
CONTINUOUS
  62
  7
 10
6.69346
 20
3.54584
 30
1.42885
  0
POINT
  8
1
  6
CONTINUOUS
  62
  7
 10
6.68801
 20
3.54642
 30
1.42885
  0
POINT
  8
1
  6
CONTINUOUS
  62
  7
 10
6.68260
 20
3.54664
 30
1.42885
  0
POINT
  8
1
  6
CONTINUOUS
  62
  7
 10
6.67720
 20
3.54703
 30
1.42885
  0
POINT
  8
1
  6
CONTINUOUS
  62
  7
 10
6.67177
 20
3.54688
 30
1.42885
  0
POINT
  8
1
  6
CONTINUOUS
  62
  7
 10
6.66638
 20
3.54744
 30
1.42885
  0
POINT
  8
1
  6
CONTINUOUS
  62
  7
 10
6.66094
 20
3.54756
 30
1.42885
  0
POINT
  8
1
  6
CONTINUOUS
  62
  7
 10
6.65553
 20
3.54770
 30
1.42885
  0
POINT
  8
1
  6
CONTINUOUS
  62
  7
 10
6.65013
 20
3.54779
 30
1.42885
  0
POINT
  8
1
  6
CONTINUOUS
  62
  7
 10
6.64468
 20
3.54817
 30
1.42885
  0
POINT
  8
1
  6
CONTINUOUS
  62
  7
 10
6.63927
 20
3.54841
 30
1.42885
  0
POINT
  8
1
  6
CONTINUOUS
  62
  7
 10
6.63384
 20
3.54866
 30
1.42885
  0
POINT
  8
1
  6
CONTINUOUS
  62
  7
 10
6.62833
 20
3.54875
 30
1.42885
  0
POINT
  8
1
  6
CONTINUOUS
  62
  7
 10
6.62397
 20
3.54901
 30
1.42885
  0
POINT
  8
1
  6
CONTINUOUS
  62
  7
 10
6.61746
 20
3.54933
 30
1.42885
  0
POINT
  8
1
  6
CONTINUOUS
  62
  7
 10
6.61202
 20
3.54960
 30
1.42885
  0
POINT
  8
1
  6
CONTINUOUS
  62
  7
 10
6.60666
 20
3.55026
 30
1.42885
  0
POINT
  8
1
  6
CONTINUOUS
  62
  7
 10
6.60122
 20
3.55063
 30
1.42885
  0
POINT
  8
1
  6
CONTINUOUS
  62
  7
 10
6.59580
 20
3.55100
 30
1.42885
  0
POINT
  8
1
  6
CONTINUOUS
  62
  7
 10
6.59038
 20
3.55105
 30
1.42885
  0
POINT
  8
1
  6
CONTINUOUS
  62
  7
 10
6.58496
 20
3.55116
 30
1.42885
  0
POINT
  8
1
  6
CONTINUOUS
  62
  7
 10
6.57954
 20
3.55121
 30
1.42885
  0
POINT
  8
1
  6
CONTINUOUS
  62
  7
 10
6.57412
 20
3.55132
 30
1.42885
  0
POINT
  8
1
  6
CONTINUOUS
  62
  7
 10
6.56765
 20
3.55154
 30
1.42885
  0
POINT
  8
1
  6
CONTINUOUS
  62
  7
 10
6.56332
 20
3.55186
 30
1.42885
  0
POINT
  8
1
  6
CONTINUOUS
  62
  7
 10
6.55788
 20
3.55218
 30
1.42885
  0
POINT
  8
1
  6
CONTINUOUS
  62
  7
 10
6.55248
 20
3.55237
 30
1.42885
  0
POINT
  8
1
  6
CONTINUOUS
  62
  7
 10
6.54706
 20
3.55283
 30
1.42885
  0
POINT
  8
1
  6
CONTINUOUS
  62
  7
 10
6.54165
 20
3.55308
 30
1.42885
  0
POINT
  8
1
  6
CONTINUOUS
  62
  7
 10
6.53622
 20
3.55341
 30
1.42885
  0
POINT
  8
1
  6
CONTINUOUS
  62
  7
 10
6.53081
 20
3.55360
 30
1.42885
  0
POINT
  8
1
  6
CONTINUOUS
  62
  7
 10
6.52538
 20
3.55382
 30
1.42885
  0
POINT
  8
1
  6
CONTINUOUS
  62
  7
 10
6.51995
 20
3.55394
 30
1.42885
  0
POINT
  8
1
  6
CONTINUOUS
  62
  7
 10
6.51455
 20
3.55431
 30
1.42885
  0
POINT
  8
1
  6
CONTINUOUS
  62
  7
 10
6.50913
 20
3.55483
 30
1.42885
  0
POINT
  8
1
  6
CONTINUOUS
  62
  7
 10
6.50371
 20
3.55521
 30
1.42885
  0
POINT
  8
1
  6
CONTINUOUS
  62
  7
 10
6.49829
 20
3.55509
 30
1.42885
  0
POINT
  8
1
  6
CONTINUOUS
  62
  7
 10
6.49290
 20
3.55535
 30
1.42885
  0
POINT
  8
1
  6
CONTINUOUS
  62
  7
 10
6.48745
 20
3.55557
 30
1.42885
  0
POINT
  8
1
  6
CONTINUOUS
  62
  7
 10
6.48203
 20
3.55582
 30
1.42885
  0
POINT
  8
1
  6
CONTINUOUS
  62
  7
 10
6.47665
 20
3.55616
 30
1.42885
  0
POINT
  8
1
  6
CONTINUOUS
  62
  7
 10
6.47122
 20
3.55627
 30
1.42885
  0
POINT
  8
1
  6
CONTINUOUS
  62
  7
 10
6.46580
 20
3.55670
 30
1.42885
  0
POINT
  8
1
  6
CONTINUOUS
  62
  7
 10
6.46037
 20
3.55673
 30
1.42885
  0
POINT
  8
1
  6
CONTINUOUS
  62
  7
 10
6.45496
 20
3.55705
 30
1.42885
  0
POINT
  8
1
  6
CONTINUOUS
  62
  7
 10
6.45065
 20
3.55734
 30
1.42885
  0
POINT
  8
1
  6
CONTINUOUS
  62
  7
 10
6.44413
 20
3.55788
 30
1.42885
  0
POINT
  8
1
  6
CONTINUOUS
  62
  7
 10
6.43870
 20
3.55794
 30
1.42885
  0
POINT
  8
1
  6
CONTINUOUS
  62
  7
 10
6.43329
 20
3.55818
 30
1.42885
  0
POINT
  8
1
  6
CONTINUOUS
  62
  7
 10
6.42788
 20
3.55861
 30
1.42885
  0
POINT
  8
1
  6
CONTINUOUS
  62
  7
 10
6.42353
 20
3.55851
 30
1.42885
  0
POINT
  8
1
  6
CONTINUOUS
  62
  7
 10
6.41701
 20
3.55877
 30
1.42885
  0
POINT
  8
1
  6
CONTINUOUS
  62
  7
 10
6.41162
 20
3.55917
 30
1.42885
  0
POINT
  8
1
  6
CONTINUOUS
  62
  7
 10
6.40620
 20
3.55955
 30
1.42885
  0
POINT
  8
1
  6
CONTINUOUS
  62
  7
 10
6.40081
 20
3.55963
 30
1.42885
  0
POINT
  8
1
  6
CONTINUOUS
  62
  7
 10
6.39537
 20
3.55988
 30
1.42885
  0
POINT
  8
1
  6
CONTINUOUS
  62
  7
 10
6.38998
 20
3.56012
 30
1.42885
  0
POINT
  8
1
  6
CONTINUOUS
  62
  7
 10
6.38538
 20
3.56023
 30
1.42883
  0
POINT
  8
1
  6
CONTINUOUS
  62
  7
 10
6.37998
 20
3.56062
 30
1.42883
  0
POINT
  8
1
  6
CONTINUOUS
  62
  7
 10
6.37455
 20
3.56073
 30
1.42883
  0
POINT
  8
1
  6
CONTINUOUS
  62
  7
 10
6.36915
 20
3.56106
 30
1.42883
  0
POINT
  8
1
  6
CONTINUOUS
  62
  7
 10
6.36263
 20
3.56117
 30
1.42883
  0
POINT
  8
1
  6
CONTINUOUS
  62
  7
 10
6.35830
 20
3.56145
 30
1.42883
  0
POINT
  8
1
  6
CONTINUOUS
  62
  7
 10
6.35288
 20
3.56142
 30
1.42883
  0
POINT
  8
1
  6
CONTINUOUS
  62
  7
 10
6.34745
 20
3.56145
 30
1.42883
  0
POINT
  8
1
  6
CONTINUOUS
  62
  7
 10
6.34214
 20
3.56180
 30
1.42883
  0
POINT
  8
1
  6
CONTINUOUS
  62
  7
 10
6.33558
 20
3.56236
 30
1.42883
  0
POINT
  8
1
  6
CONTINUOUS
  62
  7
 10
6.33013
 20
3.56291
 30
1.42883
  0
POINT
  8
1
  6
CONTINUOUS
  62
  7
 10
6.32580
 20
3.56228
 30
1.42883
  0
POINT
  8
1
  6
CONTINUOUS
  62
  7
 10
6.32044
 20
3.56270
 30
1.42883
  0
POINT
  8
1
  6
CONTINUOUS
  62
  7
 10
6.31394
 20
3.56270
 30
1.42883
  0
POINT
  8
1
  6
CONTINUOUS
  62
  7
 10
6.30866
 20
3.56373
 30
1.42883
  0
POINT
  8
1
  6
CONTINUOUS
  62
  7
 10
6.30411
 20
3.56382
 30
1.42883
  0
POINT
  8
1
  6
CONTINUOUS
  62
  7
 10
6.29872
 20
3.56359
 30
1.42883
  0
POINT
  8
1
  6
CONTINUOUS
  62
  7
 10
6.29226
 20
3.56479
 30
1.42883
  0
POINT
  8
1
  6
CONTINUOUS
  62
  7
 10
6.28790
 20
3.56500
 30
1.42883
  0
POINT
  8
1
  6
CONTINUOUS
  62
  7
 10
6.28246
 20
3.56512
 30
1.42883
  0
POINT
  8
1
  6
CONTINUOUS
  62
  7
 10
6.27595
 20
3.56494
 30
1.42883
  0
POINT
  8
1
  6
CONTINUOUS
  62
  7
 10
6.27055
 20
3.56526
 30
1.42883
  0
POINT
  8
1
  6
CONTINUOUS
  62
  7
 10
6.26620
 20
3.56552
 30
1.42883
  0
POINT
  8
1
  6
CONTINUOUS
  62
  7
 10
6.26079
 20
3.56575
 30
1.42883
  0
POINT
  8
1
  6
CONTINUOUS
  62
  7
 10
6.25431
 20
3.56611
 30
1.42883
  0
POINT
  8
1
  6
CONTINUOUS
  62
  7
 10
6.24996
 20
3.56625
 30
1.42883
  0
POINT
  8
1
  6
CONTINUOUS
  62
  7
 10
6.24456
 20
3.56658
 30
1.42883
  0
POINT
  8
1
  6
CONTINUOUS
  62
  7
 10
6.23803
 20
3.56662
 30
1.42883
  0
POINT
  8
1
  6
CONTINUOUS
  62
  7
 10
6.23262
 20
3.56721
 30
1.42883
  0
POINT
  8
1
  6
CONTINUOUS
  62
  7
 10
6.22828
 20
3.56718
 30
1.42883
  0
POINT
  8
1
  6
CONTINUOUS
  62
  7
 10
6.22288
 20
3.56752
 30
1.42883
  0
POINT
  8
1
  6
CONTINUOUS
  62
  7
 10
6.21638
 20
3.56794
 30
1.42883
  0
POINT
  8
1
  6
CONTINUOUS
  62
  7
 10
6.21203
 20
3.56806
 30
1.42883
  0
POINT
  8
1
  6
CONTINUOUS
  62
  7
 10
6.20663
 20
3.56804
 30
1.42883
  0
POINT
  8
1
  6
CONTINUOUS
  62
  7
 10
6.20012
 20
3.56827
 30
1.42883
  0
POINT
  8
1
  6
CONTINUOUS
  62
  7
 10
6.19472
 20
3.56856
 30
1.42883
  0
POINT
  8
1
  6
CONTINUOUS
  62
  7
 10
6.19044
 20
3.56912
 30
1.42883
  0
POINT
  8
1
  6
CONTINUOUS
  62
  7
 10
6.18496
 20
3.56920
 30
1.42883
  0
POINT
  8
1
  6
CONTINUOUS
  62
  7
 10
6.17845
 20
3.56950
 30
1.42883
  0
POINT
  8
1
  6
CONTINUOUS
  62
  7
 10
6.17414
 20
3.56966
 30
1.42883
  0
POINT
  8
1
  6
CONTINUOUS
  62
  7
 10
6.16871
 20
3.57015
 30
1.42883
  0
POINT
  8
1
  6
CONTINUOUS
  62
  7
 10
6.16328
 20
3.57035
 30
1.42883
  0
POINT
  8
1
  6
CONTINUOUS
  62
  7
 10
6.15784
 20
3.57019
 30
1.42883
  0
POINT
  8
1
  6
CONTINUOUS
  62
  7
 10
6.15253
 20
3.57121
 30
1.42883
  0
POINT
  8
1
  6
CONTINUOUS
  62
  7
 10
6.14703
 20
3.57119
 30
1.42883
  0
POINT
  8
1
  6
CONTINUOUS
  62
  7
 10
6.14160
 20
3.57128
 30
1.42883
  0
POINT
  8
1
  6
CONTINUOUS
  62
  7
 10
6.13715
 20
3.57136
 30
1.42883
  0
POINT
  8
1
  6
CONTINUOUS
  62
  7
 10
6.13066
 20
3.57168
 30
1.42883
  0
POINT
  8
1
  6
CONTINUOUS
  62
  7
 10
6.12523
 20
3.57184
 30
1.42883
  0
POINT
  8
1
  6
CONTINUOUS
  62
  7
 10
6.11981
 20
3.57230
 30
1.42883
  0
POINT
  8
1
  6
CONTINUOUS
  62
  7
 10
6.11549
 20
3.57244
 30
1.42883
  0
POINT
  8
1
  6
CONTINUOUS
  62
  7
 10
6.10895
 20
3.57306
 30
1.42883
  0
POINT
  8
1
  6
CONTINUOUS
  62
  7
 10
6.10355
 20
3.57330
 30
1.42883
  0
POINT
  8
1
  6
CONTINUOUS
  62
  7
 10
6.09922
 20
3.57320
 30
1.42883
  0
POINT
  8
1
  6
CONTINUOUS
  62
  7
 10
6.09265
 20
3.57333
 30
1.42883
  0
POINT
  8
1
  6
CONTINUOUS
  62
  7
 10
6.08730
 20
3.57264
 30
1.42883
  0
POINT
  8
1
  6
CONTINUOUS
  62
  7
 10
6.08200
 20
3.57381
 30
1.42883
  0
POINT
  8
1
  6
CONTINUOUS
  62
  7
 10
6.07650
 20
3.57419
 30
1.42883
  0
POINT
  8
1
  6
CONTINUOUS
  62
  7
 10
6.07213
 20
3.57432
 30
1.42883
  0
POINT
  8
1
  6
CONTINUOUS
  62
  7
 10
6.06581
 20
3.57524
 30
1.42883
  0
POINT
  8
1
  6
CONTINUOUS
  62
  7
 10
6.06022
 20
3.57513
 30
1.42883
  0
POINT
  8
1
  6
CONTINUOUS
  62
  7
 10
6.05485
 20
3.57541
 30
1.42883
  0
POINT
  8
1
  6
CONTINUOUS
  62
  7
 10
6.04938
 20
3.57548
 30
1.42883
  0
POINT
  8
1
  6
CONTINUOUS
  62
  7
 10
6.04506
 20
3.57580
 30
1.42883
  0
POINT
  8
1
  6
CONTINUOUS
  62
  7
 10
6.03855
 20
3.57604
 30
1.42883
  0
POINT
  8
1
  6
CONTINUOUS
  62
  7
 10
6.03312
 20
3.57628
 30
1.42883
  0
POINT
  8
1
  6
CONTINUOUS
  62
  7
 10
6.02771
 20
3.57621
 30
1.42883
  0
POINT
  8
1
  6
CONTINUOUS
  62
  7
 10
6.02230
 20
3.57658
 30
1.42883
  0
POINT
  8
1
  6
CONTINUOUS
  62
  7
 10
6.01691
 20
3.57704
 30
1.42883
  0
POINT
  8
1
  6
CONTINUOUS
  62
  7
 10
6.01147
 20
3.57719
 30
1.42883
  0
POINT
  8
1
  6
CONTINUOUS
  62
  7
 10
6.00604
 20
3.57745
 30
1.42883
  0
POINT
  8
1
  6
CONTINUOUS
  62
  7
 10
6.00062
 20
3.57804
 30
1.42883
  0
POINT
  8
1
  6
CONTINUOUS
  62
  7
 10
5.99741
 20
3.57844
 30
1.42883
  0
POINT
  8
1
  6
CONTINUOUS
  62
  7
 10
5.98537
 20
3.57792
 30
1.42883
  0
POINT
  8
1
  6
CONTINUOUS
  62
  7
 10
5.98003
 20
3.57931
 30
1.42883
  0
POINT
  8
1
  6
CONTINUOUS
  62
  7
 10
5.97353
 20
3.57956
 30
1.42883
  0
POINT
  8
1
  6
CONTINUOUS
  62
  7
 10
5.96814
 20
3.57982
 30
1.42883
  0
POINT
  8
1
  6
CONTINUOUS
  62
  7
 10
5.96380
 20
3.57996
 30
1.42883
  0
POINT
  8
1
  6
CONTINUOUS
  62
  7
 10
5.95840
 20
3.58027
 30
1.42883
  0
POINT
  8
1
  6
CONTINUOUS
  62
  7
 10
5.95296
 20
3.58056
 30
1.42883
  0
POINT
  8
1
  6
CONTINUOUS
  62
  7
 10
5.94754
 20
3.58046
 30
1.42883
  0
POINT
  8
1
  6
CONTINUOUS
  62
  7
 10
5.94212
 20
3.58082
 30
1.42883
  0
POINT
  8
1
  6
CONTINUOUS
  62
  7
 10
5.93563
 20
3.58105
 30
1.42883
  0
POINT
  8
1
  6
CONTINUOUS
  62
  7
 10
5.93128
 20
3.58099
 30
1.42883
  0
POINT
  8
1
  6
CONTINUOUS
  62
  7
 10
5.92589
 20
3.58110
 30
1.42883
  0
POINT
  8
1
  6
CONTINUOUS
  62
  7
 10
5.92043
 20
3.58155
 30
1.42883
  0
POINT
  8
1
  6
CONTINUOUS
  62
  7
 10
5.91395
 20
3.58188
 30
1.42883
  0
POINT
  8
1
  6
CONTINUOUS
  62
  7
 10
5.90963
 20
3.58183
 30
1.42883
  0
POINT
  8
1
  6
CONTINUOUS
  62
  7
 10
5.90421
 20
3.58206
 30
1.42883
  0
POINT
  8
1
  6
CONTINUOUS
  62
  7
 10
5.89880
 20
3.58222
 30
1.42883
  0
POINT
  8
1
  6
CONTINUOUS
  62
  7
 10
5.89422
 20
3.58239
 30
1.42883
  0
POINT
  8
1
  6
CONTINUOUS
  62
  7
 10
5.88750
 20
3.58313
 30
1.42883
  0
POINT
  8
1
  6
CONTINUOUS
  62
  7
 10
5.88231
 20
3.58207
 30
1.42883
  0
POINT
  8
1
  6
CONTINUOUS
  62
  7
 10
5.87818
 20
3.58366
 30
1.42883
  0
POINT
  8
1
  6
CONTINUOUS
  62
  7
 10
5.87147
 20
3.58393
 30
1.42883
  0
POINT
  8
1
  6
CONTINUOUS
  62
  7
 10
5.86604
 20
3.58377
 30
1.42883
  0
POINT
  8
1
  6
CONTINUOUS
  62
  7
 10
5.86074
 20
3.58407
 30
1.42883
  0
POINT
  8
1
  6
CONTINUOUS
  62
  7
 10
5.85522
 20
3.58431
 30
1.42883
  0
POINT
  8
1
  6
CONTINUOUS
  62
  7
 10
5.84980
 20
3.58453
 30
1.42883
  0
POINT
  8
1
  6
CONTINUOUS
  62
  7
 10
5.84548
 20
3.58477
 30
1.42883
  0
POINT
  8
1
  6
CONTINUOUS
  62
  7
 10
5.83897
 20
3.58467
 30
1.42883
  0
POINT
  8
1
  6
CONTINUOUS
  62
  7
 10
5.83356
 20
3.58437
 30
1.42883
  0
POINT
  8
1
  6
CONTINUOUS
  62
  7
 10
5.82815
 20
3.58467
 30
1.42883
  0
POINT
  8
1
  6
CONTINUOUS
  62
  7
 10
5.82275
 20
3.58536
 30
1.42883
  0
POINT
  8
1
  6
CONTINUOUS
  62
  7
 10
5.81736
 20
3.58614
 30
1.42883
  0
POINT
  8
1
  6
CONTINUOUS
  62
  7
 10
5.81189
 20
3.58636
 30
1.42883
  0
POINT
  8
1
  6
CONTINUOUS
  62
  7
 10
5.80756
 20
3.58633
 30
1.42883
  0
POINT
  8
1
  6
CONTINUOUS
  62
  7
 10
5.80108
 20
3.58668
 30
1.42883
  0
POINT
  8
1
  6
CONTINUOUS
  62
  7
 10
5.79565
 20
3.58695
 30
1.42883
  0
POINT
  8
1
  6
CONTINUOUS
  62
  7
 10
5.79132
 20
3.58748
 30
1.42883
  0
POINT
  8
1
  6
CONTINUOUS
  62
  7
 10
5.78481
 20
3.58792
 30
1.42883
  0
POINT
  8
1
  6
CONTINUOUS
  62
  7
 10
5.77940
 20
3.58824
 30
1.42883
  0
POINT
  8
1
  6
CONTINUOUS
  62
  7
 10
5.77398
 20
3.58828
 30
1.42883
  0
POINT
  8
1
  6
CONTINUOUS
  62
  7
 10
5.76963
 20
3.58836
 30
1.42883
  0
POINT
  8
1
  6
CONTINUOUS
  62
  7
 10
5.76317
 20
3.58890
 30
1.42883
  0
POINT
  8
1
  6
CONTINUOUS
  62
  7
 10
5.75772
 20
3.58901
 30
1.42883
  0
POINT
  8
1
  6
CONTINUOUS
  62
  7
 10
5.75339
 20
3.58922
 30
1.42883
  0
POINT
  8
1
  6
CONTINUOUS
  62
  7
 10
5.74689
 20
3.58962
 30
1.42883
  0
POINT
  8
1
  6
CONTINUOUS
  62
  7
 10
5.74150
 20
3.59019
 30
1.42883
  0
POINT
  8
1
  6
CONTINUOUS
  62
  7
 10
5.73714
 20
3.59027
 30
1.42883
  0
POINT
  8
1
  6
CONTINUOUS
  62
  7
 10
5.73064
 20
3.59019
 30
1.42883
  0
POINT
  8
1
  6
CONTINUOUS
  62
  7
 10
5.72526
 20
3.59072
 30
1.42883
  0
POINT
  8
1
  6
CONTINUOUS
  62
  7
 10
5.71982
 20
3.59095
 30
1.42883
  0
POINT
  8
1
  6
CONTINUOUS
  62
  7
 10
5.71547
 20
3.59125
 30
1.42883
  0
POINT
  8
1
  6
CONTINUOUS
  62
  7
 10
5.70898
 20
3.59137
 30
1.42883
  0
POINT
  8
1
  6
CONTINUOUS
  62
  7
 10
5.70356
 20
3.59180
 30
1.42883
  0
POINT
  8
1
  6
CONTINUOUS
  62
  7
 10
5.69923
 20
3.59216
 30
1.42883
  0
POINT
  8
1
  6
CONTINUOUS
  62
  7
 10
5.69273
 20
3.59215
 30
1.42883
  0
POINT
  8
1
  6
CONTINUOUS
  62
  7
 10
5.68735
 20
3.59264
 30
1.42883
  0
POINT
  8
1
  6
CONTINUOUS
  62
  7
 10
5.68298
 20
3.59283
 30
1.42883
  0
POINT
  8
1
  6
CONTINUOUS
  62
  7
 10
5.67754
 20
3.59314
 30
1.42883
  0
POINT
  8
1
  6
CONTINUOUS
  62
  7
 10
5.67107
 20
3.59340
 30
1.42883
  0
POINT
  8
1
  6
CONTINUOUS
  62
  7
 10
5.66564
 20
3.59361
 30
1.42883
  0
POINT
  8
1
  6
CONTINUOUS
  62
  7
 10
5.66129
 20
3.59378
 30
1.42883
  0
POINT
  8
1
  6
CONTINUOUS
  62
  7
 10
5.65589
 20
3.59410
 30
1.42883
  0
POINT
  8
1
  6
CONTINUOUS
  62
  7
 10
5.64939
 20
3.59455
 30
1.42883
  0
POINT
  8
1
  6
CONTINUOUS
  62
  7
 10
5.64596
 20
3.59460
 30
1.42883
  0
POINT
  8
1
  6
CONTINUOUS
  62
  7
 10
5.63837
 20
3.59467
 30
1.42883
  0
POINT
  8
1
  6
CONTINUOUS
  62
  7
 10
5.63297
 20
3.59497
 30
1.42883
  0
POINT
  8
1
  6
CONTINUOUS
  62
  7
 10
5.62857
 20
3.59523
 30
1.42883
  0
POINT
  8
1
  6
CONTINUOUS
  62
  7
 10
5.62317
 20
3.59561
 30
1.42883
  0
POINT
  8
1
  6
CONTINUOUS
  62
  7
 10
5.61776
 20
3.59559
 30
1.42883
  0
POINT
  8
1
  6
CONTINUOUS
  62
  7
 10
5.61235
 20
3.59572
 30
1.42883
  0
POINT
  8
1
  6
CONTINUOUS
  62
  7
 10
5.60697
 20
3.59639
 30
1.42883
  0
POINT
  8
1
  6
CONTINUOUS
  62
  7
 10
5.60152
 20
3.59650
 30
1.42883
  0
POINT
  8
1
  6
CONTINUOUS
  62
  7
 10
5.59609
 20
3.59673
 30
1.42883
  0
POINT
  8
1
  6
CONTINUOUS
  62
  7
 10
5.59066
 20
3.59696
 30
1.42883
  0
POINT
  8
1
  6
CONTINUOUS
  62
  7
 10
5.58525
 20
3.59724
 30
1.42883
  0
POINT
  8
1
  6
CONTINUOUS
  62
  7
 10
5.57984
 20
3.59727
 30
1.42883
  0
POINT
  8
1
  6
CONTINUOUS
  62
  7
 10
5.57446
 20
3.59771
 30
1.42883
  0
POINT
  8
1
  6
CONTINUOUS
  62
  7
 10
5.56900
 20
3.59777
 30
1.42883
  0
POINT
  8
1
  6
CONTINUOUS
  62
  7
 10
5.56359
 20
3.59791
 30
1.42883
  0
POINT
  8
1
  6
CONTINUOUS
  62
  7
 10
5.55817
 20
3.59811
 30
1.42883
  0
POINT
  8
1
  6
CONTINUOUS
  62
  7
 10
5.55279
 20
3.59737
 30
1.42883
  0
POINT
  8
1
  6
CONTINUOUS
  62
  7
 10
5.54738
 20
3.59809
 30
1.42883
  0
POINT
  8
1
  6
CONTINUOUS
  62
  7
 10
5.54194
 20
3.59864
 30
1.42883
  0
POINT
  8
1
  6
CONTINUOUS
  62
  7
 10
5.53759
 20
3.59900
 30
1.42883
  0
POINT
  8
1
  6
CONTINUOUS
  62
  7
 10
5.53109
 20
3.59913
 30
1.42883
  0
POINT
  8
1
  6
CONTINUOUS
  62
  7
 10
5.52564
 20
3.59898
 30
1.42883
  0
POINT
  8
1
  6
CONTINUOUS
  62
  7
 10
5.52022
 20
3.59867
 30
1.42883
  0
POINT
  8
1
  6
CONTINUOUS
  62
  7
 10
5.51483
 20
3.60045
 30
1.42883
  0
POINT
  8
1
  6
CONTINUOUS
  62
  7
 10
5.50940
 20
3.60042
 30
1.42883
  0
POINT
  8
1
  6
CONTINUOUS
  62
  7
 10
5.50398
 20
3.60070
 30
1.42883
  0
POINT
  8
1
  6
CONTINUOUS
  62
  7
 10
5.49858
 20
3.60117
 30
1.42883
  0
POINT
  8
1
  6
CONTINUOUS
  62
  7
 10
5.49313
 20
3.60117
 30
1.42883
  0
POINT
  8
1
  6
CONTINUOUS
  62
  7
 10
5.48776
 20
3.60179
 30
1.42883
  0
POINT
  8
1
  6
CONTINUOUS
  62
  7
 10
5.48233
 20
3.60198
 30
1.42883
  0
POINT
  8
1
  6
CONTINUOUS
  62
  7
 10
5.47693
 20
3.60170
 30
1.42883
  0
POINT
  8
1
  6
CONTINUOUS
  62
  7
 10
5.47148
 20
3.60182
 30
1.42883
  0
POINT
  8
1
  6
CONTINUOUS
  62
  7
 10
5.46613
 20
3.60259
 30
1.42883
  0
POINT
  8
1
  6
CONTINUOUS
  62
  7
 10
5.46066
 20
3.60269
 30
1.42883
  0
POINT
  8
1
  6
CONTINUOUS
  62
  7
 10
5.45524
 20
3.60310
 30
1.42883
  0
POINT
  8
1
  6
CONTINUOUS
  62
  7
 10
5.44987
 20
3.60344
 30
1.42883
  0
POINT
  8
1
  6
CONTINUOUS
  62
  7
 10
5.44442
 20
3.60377
 30
1.42883
  0
POINT
  8
1
  6
CONTINUOUS
  62
  7
 10
5.43895
 20
3.60414
 30
1.42883
  0
POINT
  8
1
  6
CONTINUOUS
  62
  7
 10
5.43468
 20
3.60338
 30
1.42883
  0
POINT
  8
1
  6
CONTINUOUS
  62
  7
 10
5.42923
 20
3.60350
 30
1.42883
  0
POINT
  8
1
  6
CONTINUOUS
  62
  7
 10
5.42279
 20
3.60451
 30
1.42883
  0
POINT
  8
1
  6
CONTINUOUS
  62
  7
 10
5.41733
 20
3.60474
 30
1.42883
  0
POINT
  8
1
  6
CONTINUOUS
  62
  7
 10
5.41191
 20
3.60438
 30
1.42883
  0
POINT
  8
1
  6
CONTINUOUS
  62
  7
 10
5.40753
 20
3.60413
 30
1.42883
  0
POINT
  8
1
  6
CONTINUOUS
  62
  7
 10
5.40161
 20
3.60505
 30
1.42883
  0
POINT
  8
1
  6
CONTINUOUS
  62
  7
 10
5.39505
 20
3.60557
 30
1.42883
  0
POINT
  8
1
  6
CONTINUOUS
  62
  7
 10
5.39071
 20
3.60561
 30
1.42883
  0
POINT
  8
1
  6
CONTINUOUS
  62
  7
 10
5.38529
 20
3.60579
 30
1.42883
  0
POINT
  8
1
  6
CONTINUOUS
  62
  7
 10
5.37988
 20
3.60601
 30
1.42883
  0
POINT
  8
1
  6
CONTINUOUS
  62
  7
 10
5.37450
 20
3.60641
 30
1.42883
  0
POINT
  8
1
  6
CONTINUOUS
  62
  7
 10
5.36905
 20
3.60662
 30
1.42883
  0
POINT
  8
1
  6
CONTINUOUS
  62
  7
 10
5.36367
 20
3.60725
 30
1.42883
  0
POINT
  8
1
  6
CONTINUOUS
  62
  7
 10
5.35820
 20
3.60745
 30
1.42883
  0
POINT
  8
1
  6
CONTINUOUS
  62
  7
 10
5.35278
 20
3.60775
 30
1.42883
  0
POINT
  8
1
  6
CONTINUOUS
  62
  7
 10
5.34737
 20
3.60775
 30
1.42883
  0
POINT
  8
1
  6
CONTINUOUS
  62
  7
 10
5.34199
 20
3.60794
 30
1.42883
  0
POINT
  8
1
  6
CONTINUOUS
  62
  7
 10
5.33652
 20
3.60822
 30
1.42883
  0
POINT
  8
1
  6
CONTINUOUS
  62
  7
 10
5.33220
 20
3.60855
 30
1.42883
  0
POINT
  8
1
  6
CONTINUOUS
  62
  7
 10
5.32571
 20
3.60838
 30
1.42883
  0
POINT
  8
1
  6
CONTINUOUS
  62
  7
 10
5.32032
 20
3.60880
 30
1.42883
  0
POINT
  8
1
  6
CONTINUOUS
  62
  7
 10
5.31489
 20
3.60883
 30
1.42883
  0
POINT
  8
1
  6
CONTINUOUS
  62
  7
 10
5.30946
 20
3.60932
 30
1.42883
  0
POINT
  8
1
  6
CONTINUOUS
  62
  7
 10
5.30402
 20
3.60944
 30
1.42883
  0
POINT
  8
1
  6
CONTINUOUS
  62
  7
 10
5.29863
 20
3.60987
 30
1.42883
  0
POINT
  8
1
  6
CONTINUOUS
  62
  7
 10
5.29322
 20
3.61010
 30
1.42883
  0
POINT
  8
1
  6
CONTINUOUS
  62
  7
 10
5.28778
 20
3.61036
 30
1.42883
  0
POINT
  8
1
  6
CONTINUOUS
  62
  7
 10
5.28238
 20
3.61049
 30
1.42883
  0
POINT
  8
1
  6
CONTINUOUS
  62
  7
 10
5.27696
 20
3.61097
 30
1.42883
  0
POINT
  8
1
  6
CONTINUOUS
  62
  7
 10
5.27153
 20
3.61098
 30
1.42883
  0
POINT
  8
1
  6
CONTINUOUS
  62
  7
 10
5.26614
 20
3.61122
 30
1.42883
  0
POINT
  8
1
  6
CONTINUOUS
  62
  7
 10
5.26071
 20
3.61146
 30
1.42883
  0
POINT
  8
1
  6
CONTINUOUS
  62
  7
 10
5.25530
 20
3.61209
 30
1.42883
  0
POINT
  8
1
  6
CONTINUOUS
  62
  7
 10
5.24986
 20
3.61203
 30
1.42883
  0
POINT
  8
1
  6
CONTINUOUS
  62
  7
 10
5.24444
 20
3.61227
 30
1.42883
  0
POINT
  8
1
  6
CONTINUOUS
  62
  7
 10
5.23904
 20
3.61269
 30
1.42883
  0
POINT
  8
1
  6
CONTINUOUS
  62
  7
 10
5.23363
 20
3.61308
 30
1.42883
  0
POINT
  8
1
  6
CONTINUOUS
  62
  7
 10
5.22821
 20
3.61349
 30
1.42883
  0
POINT
  8
1
  6
CONTINUOUS
  62
  7
 10
5.22276
 20
3.61378
 30
1.42883
  0
POINT
  8
1
  6
CONTINUOUS
  62
  7
 10
5.21740
 20
3.61416
 30
1.42883
  0
POINT
  8
1
  6
CONTINUOUS
  62
  7
 10
5.21194
 20
3.61425
 30
1.42883
  0
POINT
  8
1
  6
CONTINUOUS
  62
  7
 10
5.20654
 20
3.61421
 30
1.42883
  0
POINT
  8
1
  6
CONTINUOUS
  62
  7
 10
5.20113
 20
3.61481
 30
1.42883
  0
POINT
  8
1
  6
CONTINUOUS
  62
  7
 10
5.19572
 20
3.61517
 30
1.42883
  0
POINT
  8
1
  6
CONTINUOUS
  62
  7
 10
5.19026
 20
3.61537
 30
1.42883
  0
POINT
  8
1
  6
CONTINUOUS
  62
  7
 10
5.18484
 20
3.61474
 30
1.42883
  0
POINT
  8
1
  6
CONTINUOUS
  62
  7
 10
5.17945
 20
3.61489
 30
1.42883
  0
POINT
  8
1
  6
CONTINUOUS
  62
  7
 10
5.17402
 20
3.61506
 30
1.42883
  0
POINT
  8
1
  6
CONTINUOUS
  62
  7
 10
5.16866
 20
3.61595
 30
1.42883
  0
POINT
  8
1
  6
CONTINUOUS
  62
  7
 10
5.16428
 20
3.61639
 30
1.42883
  0
POINT
  8
1
  6
CONTINUOUS
  62
  7
 10
5.15775
 20
3.61642
 30
1.42883
  0
POINT
  8
1
  6
CONTINUOUS
  62
  7
 10
5.15306
 20
3.61667
 30
1.42883
  0
POINT
  8
1
  6
CONTINUOUS
  62
  7
 10
5.14656
 20
3.61696
 30
1.42883
  0
POINT
  8
1
  6
CONTINUOUS
  62
  7
 10
5.14221
 20
3.61699
 30
1.42883
  0
POINT
  8
1
  6
CONTINUOUS
  62
  7
 10
5.13681
 20
3.61730
 30
1.42883
  0
POINT
  8
1
  6
CONTINUOUS
  62
  7
 10
5.13141
 20
3.61744
 30
1.42883
  0
POINT
  8
1
  6
CONTINUOUS
  62
  7
 10
5.12490
 20
3.61787
 30
1.42883
  0
POINT
  8
1
  6
CONTINUOUS
  62
  7
 10
5.12054
 20
3.61815
 30
1.42883
  0
POINT
  8
1
  6
CONTINUOUS
  62
  7
 10
5.11514
 20
3.61875
 30
1.42883
  0
POINT
  8
1
  6
CONTINUOUS
  62
  7
 10
5.10864
 20
3.61875
 30
1.42883
  0
POINT
  8
1
  6
CONTINUOUS
  62
  7
 10
5.10432
 20
3.61902
 30
1.42883
  0
POINT
  8
1
  6
CONTINUOUS
  62
  7
 10
5.09889
 20
3.61932
 30
1.42883
  0
POINT
  8
1
  6
CONTINUOUS
  62
  7
 10
5.09348
 20
3.61954
 30
1.42883
  0
POINT
  8
1
  6
CONTINUOUS
  62
  7
 10
5.08698
 20
3.61978
 30
1.42883
  0
POINT
  8
1
  6
CONTINUOUS
  62
  7
 10
5.08264
 20
3.61998
 30
1.42883
  0
POINT
  8
1
  6
CONTINUOUS
  62
  7
 10
5.07722
 20
3.62025
 30
1.42883
  0
POINT
  8
1
  6
CONTINUOUS
  62
  7
 10
5.07180
 20
3.62012
 30
1.42883
  0
POINT
  8
1
  6
CONTINUOUS
  62
  7
 10
5.06638
 20
3.62041
 30
1.42883
  0
POINT
  8
1
  6
CONTINUOUS
  62
  7
 10
5.06097
 20
3.62053
 30
1.42883
  0
POINT
  8
1
  6
CONTINUOUS
  62
  7
 10
5.05449
 20
3.62082
 30
1.42883
  0
POINT
  8
1
  6
CONTINUOUS
  62
  7
 10
5.04903
 20
3.62110
 30
1.42883
  0
POINT
  8
1
  6
CONTINUOUS
  62
  7
 10
5.04474
 20
3.62134
 30
1.42883
  0
POINT
  8
1
  6
CONTINUOUS
  62
  7
 10
5.03929
 20
3.62169
 30
1.42883
  0
POINT
  8
1
  6
CONTINUOUS
  62
  7
 10
5.03387
 20
3.62189
 30
1.42883
  0
POINT
  8
1
  6
CONTINUOUS
  62
  7
 10
5.02847
 20
3.62235
 30
1.42883
  0
POINT
  8
1
  6
CONTINUOUS
  62
  7
 10
5.02307
 20
3.62232
 30
1.42883
  0
POINT
  8
1
  6
CONTINUOUS
  62
  7
 10
5.01762
 20
3.62306
 30
1.42883
  0
POINT
  8
1
  6
CONTINUOUS
  62
  7
 10
5.01113
 20
3.62297
 30
1.42883
  0
POINT
  8
1
  6
CONTINUOUS
  62
  7
 10
5.00680
 20
3.62323
 30
1.42883
  0
POINT
  8
1
  6
CONTINUOUS
  62
  7
 10
5.00139
 20
3.62345
 30
1.42883
  0
POINT
  8
1
  6
CONTINUOUS
  62
  7
 10
4.99488
 20
3.62363
 30
1.42883
  0
POINT
  8
1
  6
CONTINUOUS
  62
  7
 10
4.99057
 20
3.62395
 30
1.42883
  0
POINT
  8
1
  6
CONTINUOUS
  62
  7
 10
4.98516
 20
3.62430
 30
1.42883
  0
POINT
  8
1
  6
CONTINUOUS
  62
  7
 10
4.97974
 20
3.62442
 30
1.42883
  0
POINT
  8
1
  6
CONTINUOUS
  62
  7
 10
4.97432
 20
3.62475
 30
1.42883
  0
POINT
  8
1
  6
CONTINUOUS
  62
  7
 10
4.96889
 20
3.62490
 30
1.42883
  0
POINT
  8
1
  6
CONTINUOUS
  62
  7
 10
4.96347
 20
3.62502
 30
1.42883
  0
POINT
  8
1
  6
CONTINUOUS
  62
  7
 10
4.95805
 20
3.62546
 30
1.42883
  0
POINT
  8
1
  6
CONTINUOUS
  62
  7
 10
4.95264
 20
3.62561
 30
1.42883
  0
POINT
  8
1
  6
CONTINUOUS
  62
  7
 10
4.94723
 20
3.62608
 30
1.42883
  0
POINT
  8
1
  6
CONTINUOUS
  62
  7
 10
4.94179
 20
3.62638
 30
1.42883
  0
POINT
  8
1
  6
CONTINUOUS
  62
  7
 10
4.93638
 20
3.62643
 30
1.42883
  0
POINT
  8
1
  6
CONTINUOUS
  62
  7
 10
4.93094
 20
3.62670
 30
1.42883
  0
POINT
  8
1
  6
CONTINUOUS
  62
  7
 10
4.92557
 20
3.62732
 30
1.42883
  0
POINT
  8
1
  6
CONTINUOUS
  62
  7
 10
4.92013
 20
3.62731
 30
1.42883
  0
POINT
  8
1
  6
CONTINUOUS
  62
  7
 10
4.91473
 20
3.62738
 30
1.42883
  0
POINT
  8
1
  6
CONTINUOUS
  62
  7
 10
4.91013
 20
3.62762
 30
1.42883
  0
POINT
  8
1
  6
CONTINUOUS
  62
  7
 10
4.90366
 20
3.62786
 30
1.42883
  0
POINT
  8
1
  6
CONTINUOUS
  62
  7
 10
4.89932
 20
3.62810
 30
1.42883
  0
POINT
  8
1
  6
CONTINUOUS
  62
  7
 10
4.89284
 20
3.62835
 30
1.42883
  0
POINT
  8
1
  6
CONTINUOUS
  62
  7
 10
4.88748
 20
3.62903
 30
1.42883
  0
POINT
  8
1
  6
CONTINUOUS
  62
  7
 10
4.88198
 20
3.62894
 30
1.42883
  0
POINT
  8
1
  6
CONTINUOUS
  62
  7
 10
4.87658
 20
3.62936
 30
1.42883
  0
POINT
  8
1
  6
CONTINUOUS
  62
  7
 10
4.87114
 20
3.62952
 30
1.42883
  0
POINT
  8
1
  6
CONTINUOUS
  62
  7
 10
4.86577
 20
3.63010
 30
1.42883
  0
POINT
  8
1
  6
CONTINUOUS
  62
  7
 10
4.86031
 20
3.63004
 30
1.42883
  0
POINT
  8
1
  6
CONTINUOUS
  62
  7
 10
4.85493
 20
3.63008
 30
1.42883
  0
POINT
  8
1
  6
CONTINUOUS
  62
  7
 10
4.84951
 20
3.63064
 30
1.42883
  0
POINT
  8
1
  6
CONTINUOUS
  62
  7
 10
4.84406
 20
3.63070
 30
1.42883
  0
POINT
  8
1
  6
CONTINUOUS
  62
  7
 10
4.83864
 20
3.63123
 30
1.42883
  0
POINT
  8
1
  6
CONTINUOUS
  62
  7
 10
4.83324
 20
3.63149
 30
1.42883
  0
POINT
  8
1
  6
CONTINUOUS
  62
  7
 10
4.82781
 20
3.63143
 30
1.42883
  0
POINT
  8
1
  6
CONTINUOUS
  62
  7
 10
4.82242
 20
3.63166
 30
1.42883
  0
POINT
  8
1
  6
CONTINUOUS
  62
  7
 10
4.81698
 20
3.63196
 30
1.42883
  0
POINT
  8
1
  6
CONTINUOUS
  62
  7
 10
4.81156
 20
3.63196
 30
1.42883
  0
POINT
  8
1
  6
CONTINUOUS
  62
  7
 10
4.80617
 20
3.63224
 30
1.42883
  0
POINT
  8
1
  6
CONTINUOUS
  62
  7
 10
4.80073
 20
3.63256
 30
1.42883
  0
POINT
  8
1
  6
CONTINUOUS
  62
  7
 10
4.79532
 20
3.63298
 30
1.42883
  0
POINT
  8
1
  6
CONTINUOUS
  62
  7
 10
4.78994
 20
3.63369
 30
1.42883
  0
POINT
  8
1
  6
CONTINUOUS
  62
  7
 10
4.78447
 20
3.63394
 30
1.42883
  0
POINT
  8
1
  6
CONTINUOUS
  62
  7
 10
4.77903
 20
3.63396
 30
1.42883
  0
POINT
  8
1
  6
CONTINUOUS
  62
  7
 10
4.77474
 20
3.63359
 30
1.42883
  0
POINT
  8
1
  6
CONTINUOUS
  62
  7
 10
4.76822
 20
3.63398
 30
1.42883
  0
POINT
  8
1
  6
CONTINUOUS
  62
  7
 10
4.76284
 20
3.63446
 30
1.42883
  0
POINT
  8
1
  6
CONTINUOUS
  62
  7
 10
4.75739
 20
3.63488
 30
1.42883
  0
POINT
  8
1
  6
CONTINUOUS
  62
  7
 10
4.75305
 20
3.63476
 30
1.42883
  0
POINT
  8
1
  6
CONTINUOUS
  62
  7
 10
4.74764
 20
3.63481
 30
1.42883
  0
POINT
  8
1
  6
CONTINUOUS
  62
  7
 10
4.74116
 20
3.63539
 30
1.42883
  0
POINT
  8
1
  6
CONTINUOUS
  62
  7
 10
4.73575
 20
3.63552
 30
1.42883
  0
POINT
  8
1
  6
CONTINUOUS
  62
  7
 10
4.73143
 20
3.63618
 30
1.42883
  0
POINT
  8
1
  6
CONTINUOUS
  62
  7
 10
4.72490
 20
3.63603
 30
1.42883
  0
POINT
  8
1
  6
CONTINUOUS
  62
  7
 10
4.71947
 20
3.63630
 30
1.42883
  0
POINT
  8
1
  6
CONTINUOUS
  62
  7
 10
4.71514
 20
3.63627
 30
1.42883
  0
POINT
  8
1
  6
CONTINUOUS
  62
  7
 10
4.70864
 20
3.63651
 30
1.42883
  0
POINT
  8
1
  6
CONTINUOUS
  62
  7
 10
4.70322
 20
3.63667
 30
1.42883
  0
POINT
  8
1
  6
CONTINUOUS
  62
  7
 10
4.69890
 20
3.63698
 30
1.42883
  0
POINT
  8
1
  6
CONTINUOUS
  62
  7
 10
4.69347
 20
3.63720
 30
1.42883
  0
POINT
  8
1
  6
CONTINUOUS
  62
  7
 10
4.68696
 20
3.63767
 30
1.42883
  0
POINT
  8
1
  6
CONTINUOUS
  62
  7
 10
4.68155
 20
3.63785
 30
1.42883
  0
POINT
  8
1
  6
CONTINUOUS
  62
  7
 10
4.67722
 20
3.63786
 30
1.42883
  0
POINT
  8
1
  6
CONTINUOUS
  62
  7
 10
4.67179
 20
3.63880
 30
1.42883
  0
POINT
  8
1
  6
CONTINUOUS
  62
  7
 10
4.66531
 20
3.63876
 30
1.42883
  0
POINT
  8
1
  6
CONTINUOUS
  62
  7
 10
4.66071
 20
3.63884
 30
1.42883
  0
POINT
  8
1
  6
CONTINUOUS
  62
  7
 10
4.65419
 20
3.63891
 30
1.42883
  0
POINT
  8
1
  6
CONTINUOUS
  62
  7
 10
4.64992
 20
3.63960
 30
1.42883
  0
POINT
  8
1
  6
CONTINUOUS
  62
  7
 10
4.64445
 20
3.63963
 30
1.42883
  0
POINT
  8
1
  6
CONTINUOUS
  62
  7
 10
4.63801
 20
3.63998
 30
1.42883
  0
POINT
  8
1
  6
CONTINUOUS
  62
  7
 10
4.63257
 20
3.64042
 30
1.42883
  0
POINT
  8
1
  6
CONTINUOUS
  62
  7
 10
4.62712
 20
3.64055
 30
1.42883
  0
POINT
  8
1
  6
CONTINUOUS
  62
  7
 10
4.62278
 20
3.64047
 30
1.42883
  0
POINT
  8
1
  6
CONTINUOUS
  62
  7
 10
4.61734
 20
3.64037
 30
1.42883
  0
POINT
  8
1
  6
CONTINUOUS
  62
  7
 10
4.61197
 20
3.64100
 30
1.42883
  0
POINT
  8
1
  6
CONTINUOUS
  62
  7
 10
4.60655
 20
3.64122
 30
1.42883
  0
POINT
  8
1
  6
CONTINUOUS
  62
  7
 10
4.60010
 20
3.64143
 30
1.42883
  0
POINT
  8
1
  6
CONTINUOUS
  62
  7
 10
4.59486
 20
3.64184
 30
1.42883
  0
POINT
  8
1
  6
CONTINUOUS
  62
  7
 10
4.59029
 20
3.64212
 30
1.42883
  0
POINT
  8
1
  6
CONTINUOUS
  62
  7
 10
4.58490
 20
3.64232
 30
1.42883
  0
POINT
  8
1
  6
CONTINUOUS
  62
  7
 10
4.57946
 20
3.64287
 30
1.42883
  0
POINT
  8
1
  6
CONTINUOUS
  62
  7
 10
4.57403
 20
3.64285
 30
1.42883
  0
POINT
  8
1
  6
CONTINUOUS
  62
  7
 10
4.56861
 20
3.64292
 30
1.42883
  0
POINT
  8
1
  6
CONTINUOUS
  62
  7
 10
4.56321
 20
3.64332
 30
1.42883
  0
POINT
  8
1
  6
CONTINUOUS
  62
  7
 10
4.55886
 20
3.64349
 30
1.42883
  0
POINT
  8
1
  6
CONTINUOUS
  62
  7
 10
4.55238
 20
3.64381
 30
1.42883
  0
POINT
  8
1
  6
CONTINUOUS
  62
  7
 10
4.54698
 20
3.64419
 30
1.42883
  0
POINT
  8
1
  6
CONTINUOUS
  62
  7
 10
4.54154
 20
3.64427
 30
1.42883
  0
POINT
  8
1
  6
CONTINUOUS
  62
  7
 10
4.53722
 20
3.64455
 30
1.42883
  0
POINT
  8
1
  6
CONTINUOUS
  62
  7
 10
4.53181
 20
3.64470
 30
1.42883
  0
POINT
  8
1
  6
CONTINUOUS
  62
  7
 10
4.52533
 20
3.64515
 30
1.42883
  0
POINT
  8
1
  6
CONTINUOUS
  62
  7
 10
4.52101
 20
3.64577
 30
1.42883
  0
POINT
  8
1
  6
CONTINUOUS
  62
  7
 10
4.51447
 20
3.64620
 30
1.42883
  0
POINT
  8
1
  6
CONTINUOUS
  62
  7
 10
4.50791
 20
3.64619
 30
1.42883
  0
POINT
  8
1
  6
CONTINUOUS
  62
  7
 10
4.50361
 20
3.64622
 30
1.42883
  0
POINT
  8
1
  6
CONTINUOUS
  62
  7
 10
4.49822
 20
3.64667
 30
1.42883
  0
POINT
  8
1
  6
CONTINUOUS
  62
  7
 10
4.49278
 20
3.64687
 30
1.42883
  0
POINT
  8
1
  6
CONTINUOUS
  62
  7
 10
4.48736
 20
3.64678
 30
1.42883
  0
POINT
  8
1
  6
CONTINUOUS
  62
  7
 10
4.48195
 20
3.64687
 30
1.42883
  0
POINT
  8
1
  6
CONTINUOUS
  62
  7
 10
4.47548
 20
3.64735
 30
1.42883
  0
POINT
  8
1
  6
CONTINUOUS
  62
  7
 10
4.47111
 20
3.64755
 30
1.42883
  0
POINT
  8
1
  6
CONTINUOUS
  62
  7
 10
4.46569
 20
3.64784
 30
1.42883
  0
POINT
  8
1
  6
CONTINUOUS
  62
  7
 10
4.46028
 20
3.64812
 30
1.42883
  0
POINT
  8
1
  6
CONTINUOUS
  62
  7
 10
4.45487
 20
3.64827
 30
1.42883
  0
POINT
  8
1
  6
CONTINUOUS
  62
  7
 10
4.44944
 20
3.64841
 30
1.42883
  0
POINT
  8
1
  6
CONTINUOUS
  62
  7
 10
4.44403
 20
3.64860
 30
1.42883
  0
POINT
  8
1
  6
CONTINUOUS
  62
  7
 10
4.43860
 20
3.64888
 30
1.42883
  0
POINT
  8
1
  6
CONTINUOUS
  62
  7
 10
4.43323
 20
3.64905
 30
1.42883
  0
POINT
  8
1
  6
CONTINUOUS
  62
  7
 10
4.42788
 20
3.64973
 30
1.42883
  0
POINT
  8
1
  6
CONTINUOUS
  62
  7
 10
4.42237
 20
3.65031
 30
1.42883
  0
POINT
  8
1
  6
CONTINUOUS
  62
  7
 10
4.41727
 20
3.65039
 30
1.42883
  0
POINT
  8
1
  6
CONTINUOUS
  62
  7
 10
4.41185
 20
3.65039
 30
1.42883
  0
POINT
  8
1
  6
CONTINUOUS
  62
  7
 10
4.40643
 20
3.65031
 30
1.42883
  0
POINT
  8
1
  6
CONTINUOUS
  62
  7
 10
4.40101
 20
3.65037
 30
1.42883
  0
POINT
  8
1
  6
CONTINUOUS
  62
  7
 10
4.39560
 20
3.65058
 30
1.42883
  0
POINT
  8
1
  6
CONTINUOUS
  62
  7
 10
4.39021
 20
3.65101
 30
1.42883
  0
POINT
  8
1
  6
CONTINUOUS
  62
  7
 10
4.38478
 20
3.65140
 30
1.42883
  0
POINT
  8
1
  6
CONTINUOUS
  62
  7
 10
4.38045
 20
3.65152
 30
1.42883
  0
POINT
  8
1
  6
CONTINUOUS
  62
  7
 10
4.37394
 20
3.65188
 30
1.42883
  0
POINT
  8
1
  6
CONTINUOUS
  62
  7
 10
4.36852
 20
3.65195
 30
1.42883
  0
POINT
  8
1
  6
CONTINUOUS
  62
  7
 10
4.36421
 20
3.65224
 30
1.42883
  0
POINT
  8
1
  6
CONTINUOUS
  62
  7
 10
4.35768
 20
3.65240
 30
1.42883
  0
POINT
  8
1
  6
CONTINUOUS
  62
  7
 10
4.35228
 20
3.65250
 30
1.42883
  0
POINT
  8
1
  6
CONTINUOUS
  62
  7
 10
4.34687
 20
3.65309
 30
1.42883
  0
POINT
  8
1
  6
CONTINUOUS
  62
  7
 10
4.34143
 20
3.65328
 30
1.42883
  0
POINT
  8
1
  6
CONTINUOUS
  62
  7
 10
4.33602
 20
3.65358
 30
1.42883
  0
POINT
  8
1
  6
CONTINUOUS
  62
  7
 10
4.33062
 20
3.65378
 30
1.42883
  0
POINT
  8
1
  6
CONTINUOUS
  62
  7
 10
4.32521
 20
3.65408
 30
1.42883
  0
POINT
  8
1
  6
CONTINUOUS
  62
  7
 10
4.31979
 20
3.65433
 30
1.42883
  0
POINT
  8
1
  6
CONTINUOUS
  62
  7
 10
4.31435
 20
3.65462
 30
1.42883
  0
POINT
  8
1
  6
CONTINUOUS
  62
  7
 10
4.30893
 20
3.65459
 30
1.42883
  0
POINT
  8
1
  6
CONTINUOUS
  62
  7
 10
4.30351
 20
3.65495
 30
1.42883
  0
POINT
  8
1
  6
CONTINUOUS
  62
  7
 10
4.29811
 20
3.65531
 30
1.42883
  0
POINT
  8
1
  6
CONTINUOUS
  62
  7
 10
4.29266
 20
3.65558
 30
1.42883
  0
POINT
  8
1
  6
CONTINUOUS
  62
  7
 10
4.28726
 20
3.65564
 30
1.42883
  0
POINT
  8
1
  6
CONTINUOUS
  62
  7
 10
4.28190
 20
3.65600
 30
1.42883
  0
POINT
  8
1
  6
CONTINUOUS
  62
  7
 10
4.27647
 20
3.65703
 30
1.42883
  0
POINT
  8
1
  6
CONTINUOUS
  62
  7
 10
4.27099
 20
3.65677
 30
1.42883
  0
POINT
  8
1
  6
CONTINUOUS
  62
  7
 10
4.26559
 20
3.65651
 30
1.42883
  0
POINT
  8
1
  6
CONTINUOUS
  62
  7
 10
4.26019
 20
3.65699
 30
1.42883
  0
POINT
  8
1
  6
CONTINUOUS
  62
  7
 10
4.25475
 20
3.65678
 30
1.42883
  0
POINT
  8
1
  6
CONTINUOUS
  62
  7
 10
4.24953
 20
3.65746
 30
1.42883
  0
POINT
  8
1
  6
CONTINUOUS
  62
  7
 10
4.24514
 20
3.65845
 30
1.42883
  0
POINT
  8
1
  6
CONTINUOUS
  62
  7
 10
4.23853
 20
3.65864
 30
1.42883
  0
POINT
  8
1
  6
CONTINUOUS
  62
  7
 10
4.23306
 20
3.65859
 30
1.42883
  0
POINT
  8
1
  6
CONTINUOUS
  62
  7
 10
4.22661
 20
3.65858
 30
1.42883
  0
POINT
  8
1
  6
CONTINUOUS
  62
  7
 10
4.22232
 20
3.65880
 30
1.42883
  0
POINT
  8
1
  6
CONTINUOUS
  62
  7
 10
4.21691
 20
3.65981
 30
1.42883
  0
POINT
  8
1
  6
CONTINUOUS
  62
  7
 10
4.21142
 20
3.65975
 30
1.42883
  0
POINT
  8
1
  6
CONTINUOUS
  62
  7
 10
4.20599
 20
3.65949
 30
1.42883
  0
POINT
  8
1
  6
CONTINUOUS
  62
  7
 10
4.20059
 20
3.65988
 30
1.42883
  0
POINT
  8
1
  6
CONTINUOUS
  62
  7
 10
4.19518
 20
3.66005
 30
1.42883
  0
POINT
  8
1
  6
CONTINUOUS
  62
  7
 10
4.18975
 20
3.66029
 30
1.42883
  0
POINT
  8
1
  6
CONTINUOUS
  62
  7
 10
4.18541
 20
3.66009
 30
1.42883
  0
POINT
  8
1
  6
CONTINUOUS
  62
  7
 10
4.17897
 20
3.66042
 30
1.42883
  0
POINT
  8
1
  6
CONTINUOUS
  62
  7
 10
4.17350
 20
3.66085
 30
1.42883
  0
POINT
  8
1
  6
CONTINUOUS
  62
  7
 10
4.16896
 20
3.66124
 30
1.42881
  0
POINT
  8
1
  6
CONTINUOUS
  62
  7
 10
4.16353
 20
3.66141
 30
1.42881
  0
POINT
  8
1
  6
CONTINUOUS
  62
  7
 10
4.15703
 20
3.66141
 30
1.42881
  0
POINT
  8
1
  6
CONTINUOUS
  62
  7
 10
4.15270
 20
3.66148
 30
1.42881
  0
POINT
  8
1
  6
CONTINUOUS
  62
  7
 10
4.14624
 20
3.66212
 30
1.42881
  0
POINT
  8
1
  6
CONTINUOUS
  62
  7
 10
4.14078
 20
3.66237
 30
1.42881
  0
POINT
  8
1
  6
CONTINUOUS
  62
  7
 10
4.13540
 20
3.66241
 30
1.42881
  0
POINT
  8
1
  6
CONTINUOUS
  62
  7
 10
4.13115
 20
3.66292
 30
1.42881
  0
POINT
  8
1
  6
CONTINUOUS
  62
  7
 10
4.12561
 20
3.66328
 30
1.42881
  0
POINT
  8
1
  6
CONTINUOUS
  62
  7
 10
4.12019
 20
3.66324
 30
1.42881
  0
POINT
  8
1
  6
CONTINUOUS
  62
  7
 10
4.11477
 20
3.66372
 30
1.42881
  0
POINT
  8
1
  6
CONTINUOUS
  62
  7
 10
4.10827
 20
3.66391
 30
1.42881
  0
POINT
  8
1
  6
CONTINUOUS
  62
  7
 10
4.10287
 20
3.66406
 30
1.42881
  0
POINT
  8
1
  6
CONTINUOUS
  62
  7
 10
4.09852
 20
3.66423
 30
1.42881
  0
POINT
  8
1
  6
CONTINUOUS
  62
  7
 10
4.09312
 20
3.66457
 30
1.42881
  0
POINT
  8
1
  6
CONTINUOUS
  62
  7
 10
4.08770
 20
3.66504
 30
1.42881
  0
POINT
  8
1
  6
CONTINUOUS
  62
  7
 10
4.08232
 20
3.66555
 30
1.42881
  0
POINT
  8
1
  6
CONTINUOUS
  62
  7
 10
4.07685
 20
3.66582
 30
1.42881
  0
POINT
  8
1
  6
CONTINUOUS
  62
  7
 10
4.07037
 20
3.66564
 30
1.42881
  0
POINT
  8
1
  6
CONTINUOUS
  62
  7
 10
4.06495
 20
3.66624
 30
1.42881
  0
POINT
  8
1
  6
CONTINUOUS
  62
  7
 10
4.06060
 20
3.66599
 30
1.42881
  0
POINT
  8
1
  6
CONTINUOUS
  62
  7
 10
4.05523
 20
3.66647
 30
1.42881
  0
POINT
  8
1
  6
CONTINUOUS
  62
  7
 10
4.04978
 20
3.66668
 30
1.42881
  0
POINT
  8
1
  6
CONTINUOUS
  62
  7
 10
4.04435
 20
3.66710
 30
1.42881
  0
POINT
  8
1
  6
CONTINUOUS
  62
  7
 10
4.03892
 20
3.66722
 30
1.42881
  0
POINT
  8
1
  6
CONTINUOUS
  62
  7
 10
4.03249
 20
3.66760
 30
1.42881
  0
POINT
  8
1
  6
CONTINUOUS
  62
  7
 10
4.02813
 20
3.66804
 30
1.42881
  0
POINT
  8
1
  6
CONTINUOUS
  62
  7
 10
4.02269
 20
3.66814
 30
1.42881
  0
POINT
  8
1
  6
CONTINUOUS
  62
  7
 10
4.01727
 20
3.66823
 30
1.42881
  0
POINT
  8
1
  6
CONTINUOUS
  62
  7
 10
4.01185
 20
3.66819
 30
1.42881
  0
POINT
  8
1
  6
CONTINUOUS
  62
  7
 10
4.00642
 20
3.66838
 30
1.42881
  0
POINT
  8
1
  6
CONTINUOUS
  62
  7
 10
4.00101
 20
3.66849
 30
1.42881
  0
POINT
  8
1
  6
CONTINUOUS
  62
  7
 10
3.99452
 20
3.66892
 30
1.42881
  0
POINT
  8
1
  6
CONTINUOUS
  62
  7
 10
3.99016
 20
3.66890
 30
1.42881
  0
POINT
  8
1
  6
CONTINUOUS
  62
  7
 10
3.98489
 20
3.66994
 30
1.42881
  0
POINT
  8
1
  6
CONTINUOUS
  62
  7
 10
3.97934
 20
3.67023
 30
1.42881
  0
POINT
  8
1
  6
CONTINUOUS
  62
  7
 10
3.97394
 20
3.67051
 30
1.42881
  0
POINT
  8
1
  6
CONTINUOUS
  62
  7
 10
3.96851
 20
3.67054
 30
1.42881
  0
POINT
  8
1
  6
CONTINUOUS
  62
  7
 10
3.96309
 20
3.67082
 30
1.42881
  0
POINT
  8
1
  6
CONTINUOUS
  62
  7
 10
3.95769
 20
3.67129
 30
1.42881
  0
POINT
  8
1
  6
CONTINUOUS
  62
  7
 10
3.95228
 20
3.67130
 30
1.42881
  0
POINT
  8
1
  6
CONTINUOUS
  62
  7
 10
3.94685
 20
3.67155
 30
1.42881
  0
POINT
  8
1
  6
CONTINUOUS
  62
  7
 10
3.94144
 20
3.67205
 30
1.42881
  0
POINT
  8
1
  6
CONTINUOUS
  62
  7
 10
3.93601
 20
3.67233
 30
1.42881
  0
POINT
  8
1
  6
CONTINUOUS
  62
  7
 10
3.93060
 20
3.67223
 30
1.42881
  0
POINT
  8
1
  6
CONTINUOUS
  62
  7
 10
3.92519
 20
3.67275
 30
1.42881
  0
POINT
  8
1
  6
CONTINUOUS
  62
  7
 10
3.91974
 20
3.67270
 30
1.42881
  0
POINT
  8
1
  6
CONTINUOUS
  62
  7
 10
3.91436
 20
3.67331
 30
1.42881
  0
POINT
  8
1
  6
CONTINUOUS
  62
  7
 10
3.90894
 20
3.67346
 30
1.42881
  0
POINT
  8
1
  6
CONTINUOUS
  62
  7
 10
3.90352
 20
3.67365
 30
1.42881
  0
POINT
  8
1
  6
CONTINUOUS
  62
  7
 10
3.89812
 20
3.67376
 30
1.42881
  0
POINT
  8
1
  6
CONTINUOUS
  62
  7
 10
3.89269
 20
3.67376
 30
1.42881
  0
POINT
  8
1
  6
CONTINUOUS
  62
  7
 10
3.88734
 20
3.67422
 30
1.42881
  0
POINT
  8
1
  6
CONTINUOUS
  62
  7
 10
3.88180
 20
3.67427
 30
1.42881
  0
POINT
  8
1
  6
CONTINUOUS
  62
  7
 10
3.87647
 20
3.67488
 30
1.42881
  0
POINT
  8
1
  6
CONTINUOUS
  62
  7
 10
3.87103
 20
3.67508
 30
1.42881
  0
POINT
  8
1
  6
CONTINUOUS
  62
  7
 10
3.86562
 20
3.67534
 30
1.42881
  0
POINT
  8
1
  6
CONTINUOUS
  62
  7
 10
3.86019
 20
3.67555
 30
1.42881
  0
POINT
  8
1
  6
CONTINUOUS
  62
  7
 10
3.85476
 20
3.67585
 30
1.42881
  0
POINT
  8
1
  6
CONTINUOUS
  62
  7
 10
3.84935
 20
3.67607
 30
1.42881
  0
POINT
  8
1
  6
CONTINUOUS
  62
  7
 10
3.84397
 20
3.67634
 30
1.42881
  0
POINT
  8
1
  6
CONTINUOUS
  62
  7
 10
3.83853
 20
3.67667
 30
1.42881
  0
POINT
  8
1
  6
CONTINUOUS
  62
  7
 10
3.83310
 20
3.67700
 30
1.42881
  0
POINT
  8
1
  6
CONTINUOUS
  62
  7
 10
3.82768
 20
3.67713
 30
1.42881
  0
POINT
  8
1
  6
CONTINUOUS
  62
  7
 10
3.82227
 20
3.67725
 30
1.42881
  0
POINT
  8
1
  6
CONTINUOUS
  62
  7
 10
3.81686
 20
3.67729
 30
1.42881
  0
POINT
  8
1
  6
CONTINUOUS
  62
  7
 10
3.81144
 20
3.67723
 30
1.42881
  0
POINT
  8
1
  6
CONTINUOUS
  62
  7
 10
3.80712
 20
3.67786
 30
1.42881
  0
POINT
  8
1
  6
CONTINUOUS
  62
  7
 10
3.80170
 20
3.67781
 30
1.42881
  0
POINT
  8
1
  6
CONTINUOUS
  62
  7
 10
3.79523
 20
3.67806
 30
1.42881
  0
POINT
  8
1
  6
CONTINUOUS
  62
  7
 10
3.78975
 20
3.67787
 30
1.42881
  0
POINT
  8
1
  6
CONTINUOUS
  62
  7
 10
3.78553
 20
3.67832
 30
1.42881
  0
POINT
  8
1
  6
CONTINUOUS
  62
  7
 10
3.77892
 20
3.67904
 30
1.42881
  0
POINT
  8
1
  6
CONTINUOUS
  62
  7
 10
3.77350
 20
3.67948
 30
1.42881
  0
POINT
  8
1
  6
CONTINUOUS
  62
  7
 10
3.76812
 20
3.67975
 30
1.42881
  0
POINT
  8
1
  6
CONTINUOUS
  62
  7
 10
3.76375
 20
3.67984
 30
1.42881
  0
POINT
  8
1
  6
CONTINUOUS
  62
  7
 10
3.75836
 20
3.68029
 30
1.42881
  0
POINT
  8
1
  6
CONTINUOUS
  62
  7
 10
3.75311
 20
3.67810
 30
1.42881
  0
POINT
  8
1
  6
CONTINUOUS
  62
  7
 10
3.74710
 20
3.67933
 30
1.42881
  0
POINT
  8
1
  6
CONTINUOUS
  62
  7
 10
3.74204
 20
3.68095
 30
1.42881
  0
POINT
  8
1
  6
CONTINUOUS
  62
  7
 10
3.73669
 20
3.68107
 30
1.42881
  0
POINT
  8
1
  6
CONTINUOUS
  62
  7
 10
3.73018
 20
3.68133
 30
1.42881
  0
POINT
  8
1
  6
CONTINUOUS
  62
  7
 10
3.72478
 20
3.68153
 30
1.42881
  0
POINT
  8
1
  6
CONTINUOUS
  62
  7
 10
3.72043
 20
3.68194
 30
1.42881
  0
POINT
  8
1
  6
CONTINUOUS
  62
  7
 10
3.71502
 20
3.68209
 30
1.42881
  0
POINT
  8
1
  6
CONTINUOUS
  62
  7
 10
3.70959
 20
3.68234
 30
1.42881
  0
POINT
  8
1
  6
CONTINUOUS
  62
  7
 10
3.70420
 20
3.68245
 30
1.42881
  0
POINT
  8
1
  6
CONTINUOUS
  62
  7
 10
3.69877
 20
3.68271
 30
1.42881
  0
POINT
  8
1
  6
CONTINUOUS
  62
  7
 10
3.69228
 20
3.68311
 30
1.42881
  0
POINT
  8
1
  6
CONTINUOUS
  62
  7
 10
3.68685
 20
3.68329
 30
1.42881
  0
POINT
  8
1
  6
CONTINUOUS
  62
  7
 10
3.68250
 20
3.68338
 30
1.42881
  0
POINT
  8
1
  6
CONTINUOUS
  62
  7
 10
3.67580
 20
3.68323
 30
1.42883
  0
POINT
  8
1
  6
CONTINUOUS
  62
  7
 10
3.67148
 20
3.68336
 30
1.42883
  0
POINT
  8
1
  6
CONTINUOUS
  62
  7
 10
3.66606
 20
3.68383
 30
1.42883
  0
POINT
  8
1
  6
CONTINUOUS
  62
  7
 10
3.65956
 20
3.68432
 30
1.42883
  0
POINT
  8
1
  6
CONTINUOUS
  62
  7
 10
3.65522
 20
3.68474
 30
1.42883
  0
POINT
  8
1
  6
CONTINUOUS
  62
  7
 10
3.64981
 20
3.68464
 30
1.42883
  0
POINT
  8
1
  6
CONTINUOUS
  62
  7
 10
3.64330
 20
3.68495
 30
1.42883
  0
POINT
  8
1
  6
CONTINUOUS
  62
  7
 10
3.63787
 20
3.68501
 30
1.42883
  0
POINT
  8
1
  6
CONTINUOUS
  62
  7
 10
3.63355
 20
3.68478
 30
1.42883
  0
POINT
  8
1
  6
CONTINUOUS
  62
  7
 10
3.62703
 20
3.68484
 30
1.42883
  0
POINT
  8
1
  6
CONTINUOUS
  62
  7
 10
3.62164
 20
3.68480
 30
1.42883
  0
POINT
  8
1
  6
CONTINUOUS
  62
  7
 10
3.61729
 20
3.68548
 30
1.42883
  0
POINT
  8
1
  6
CONTINUOUS
  62
  7
 10
3.61192
 20
3.68578
 30
1.42883
  0
POINT
  8
1
  6
CONTINUOUS
  62
  7
 10
3.60647
 20
3.68551
 30
1.42883
  0
POINT
  8
1
  6
CONTINUOUS
  62
  7
 10
3.60104
 20
3.68535
 30
1.42883
  0
POINT
  8
1
  6
CONTINUOUS
  62
  7
 10
3.59562
 20
3.68515
 30
1.42883
  0
POINT
  8
1
  6
CONTINUOUS
  62
  7
 10
3.59022
 20
3.68590
 30
1.42883
  0
POINT
  8
1
  6
CONTINUOUS
  62
  7
 10
3.58495
 20
3.68693
 30
1.42883
  0
POINT
  8
1
  6
CONTINUOUS
  62
  7
 10
3.57942
 20
3.68656
 30
1.42883
  0
POINT
  8
1
  6
CONTINUOUS
  62
  7
 10
3.57407
 20
3.68768
 30
1.42883
  0
POINT
  8
1
  6
CONTINUOUS
  62
  7
 10
3.56747
 20
3.68808
 30
1.42883
  0
POINT
  8
1
  6
CONTINUOUS
  62
  7
 10
3.56330
 20
3.68899
 30
1.42883
  0
POINT
  8
1
  6
CONTINUOUS
  62
  7
 10
3.55772
 20
3.68927
 30
1.42883
  0
POINT
  8
1
  6
CONTINUOUS
  62
  7
 10
3.55229
 20
3.68949
 30
1.42883
  0
POINT
  8
1
  6
CONTINUOUS
  62
  7
 10
3.54688
 20
3.68967
 30
1.42883
  0
POINT
  8
1
  6
CONTINUOUS
  62
  7
 10
3.54147
 20
3.68987
 30
1.42883
  0
POINT
  8
1
  6
CONTINUOUS
  62
  7
 10
3.53605
 20
3.69028
 30
1.42883
  0
POINT
  8
1
  6
CONTINUOUS
  62
  7
 10
3.53063
 20
3.69045
 30
1.42883
  0
POINT
  8
1
  6
CONTINUOUS
  62
  7
 10
3.52520
 20
3.69052
 30
1.42883
  0
POINT
  8
1
  6
CONTINUOUS
  62
  7
 10
3.51982
 20
3.69105
 30
1.42883
  0
POINT
  8
1
  6
CONTINUOUS
  62
  7
 10
3.51438
 20
3.69145
 30
1.42883
  0
POINT
  8
1
  6
CONTINUOUS
  62
  7
 10
3.50896
 20
3.69120
 30
1.42883
  0
POINT
  8
1
  6
CONTINUOUS
  62
  7
 10
3.50355
 20
3.69141
 30
1.42883
  0
POINT
  8
1
  6
CONTINUOUS
  62
  7
 10
3.49817
 20
3.69171
 30
1.42883
  0
POINT
  8
1
  6
CONTINUOUS
  62
  7
 10
3.49270
 20
3.69224
 30
1.42883
  0
POINT
  8
1
  6
CONTINUOUS
  62
  7
 10
3.48729
 20
3.69231
 30
1.42883
  0
POINT
  8
1
  6
CONTINUOUS
  62
  7
 10
3.48186
 20
3.69258
 30
1.42883
  0
POINT
  8
1
  6
CONTINUOUS
  62
  7
 10
3.47537
 20
3.69271
 30
1.42883
  0
POINT
  8
1
  6
CONTINUOUS
  62
  7
 10
3.47105
 20
3.69298
 30
1.42883
  0
POINT
  8
1
  6
CONTINUOUS
  62
  7
 10
3.46562
 20
3.69341
 30
1.42883
  0
POINT
  8
1
  6
CONTINUOUS
  62
  7
 10
3.45919
 20
3.69375
 30
1.42883
  0
POINT
  8
1
  6
CONTINUOUS
  62
  7
 10
3.45479
 20
3.69381
 30
1.42883
  0
POINT
  8
1
  6
CONTINUOUS
  62
  7
 10
3.44937
 20
3.69389
 30
1.42883
  0
POINT
  8
1
  6
CONTINUOUS
  62
  7
 10
3.44293
 20
3.69415
 30
1.42883
  0
POINT
  8
1
  6
CONTINUOUS
  62
  7
 10
3.43857
 20
3.69461
 30
1.42883
  0
POINT
  8
1
  6
CONTINUOUS
  62
  7
 10
3.43260
 20
3.69446
 30
1.42883
  0
POINT
  8
1
  6
CONTINUOUS
  62
  7
 10
3.42828
 20
3.69471
 30
1.42883
  0
POINT
  8
1
  6
CONTINUOUS
  62
  7
 10
3.42176
 20
3.69470
 30
1.42883
  0
POINT
  8
1
  6
CONTINUOUS
  62
  7
 10
3.41636
 20
3.69534
 30
1.42883
  0
POINT
  8
1
  6
CONTINUOUS
  62
  7
 10
3.41093
 20
3.69508
 30
1.42883
  0
POINT
  8
1
  6
CONTINUOUS
  62
  7
 10
3.40666
 20
3.69566
 30
1.42883
  0
POINT
  8
1
  6
CONTINUOUS
  62
  7
 10
3.40118
 20
3.69609
 30
1.42883
  0
POINT
  8
1
  6
CONTINUOUS
  62
  7
 10
3.39467
 20
3.69633
 30
1.42883
  0
POINT
  8
1
  6
CONTINUOUS
  62
  7
 10
3.39038
 20
3.69660
 30
1.42883
  0
POINT
  8
1
  6
CONTINUOUS
  62
  7
 10
3.38385
 20
3.69672
 30
1.42883
  0
POINT
  8
1
  6
CONTINUOUS
  62
  7
 10
3.37845
 20
3.69731
 30
1.42883
  0
POINT
  8
1
  6
CONTINUOUS
  62
  7
 10
3.37410
 20
3.69715
 30
1.42883
  0
POINT
  8
1
  6
CONTINUOUS
  62
  7
 10
3.36870
 20
3.69745
 30
1.42883
  0
POINT
  8
1
  6
CONTINUOUS
  62
  7
 10
3.36325
 20
3.69756
 30
1.42883
  0
POINT
  8
1
  6
CONTINUOUS
  62
  7
 10
3.35680
 20
3.69813
 30
1.42883
  0
POINT
  8
1
  6
CONTINUOUS
  62
  7
 10
3.35253
 20
3.69843
 30
1.42883
  0
POINT
  8
1
  6
CONTINUOUS
  62
  7
 10
3.34704
 20
3.69874
 30
1.42883
  0
POINT
  8
1
  6
CONTINUOUS
  62
  7
 10
3.34053
 20
3.69919
 30
1.42883
  0
POINT
  8
1
  6
CONTINUOUS
  62
  7
 10
3.33509
 20
3.69905
 30
1.42883
  0
POINT
  8
1
  6
CONTINUOUS
  62
  7
 10
3.33073
 20
3.69912
 30
1.42883
  0
POINT
  8
1
  6
CONTINUOUS
  62
  7
 10
3.32540
 20
3.69995
 30
1.42883
  0
POINT
  8
1
  6
CONTINUOUS
  62
  7
 10
3.31887
 20
3.70042
 30
1.42883
  0
POINT
  8
1
  6
CONTINUOUS
  62
  7
 10
3.31451
 20
3.70053
 30
1.42883
  0
POINT
  8
1
  6
CONTINUOUS
  62
  7
 10
3.30908
 20
3.70033
 30
1.42883
  0
POINT
  8
1
  6
CONTINUOUS
  62
  7
 10
3.30259
 20
3.70041
 30
1.42883
  0
POINT
  8
1
  6
CONTINUOUS
  62
  7
 10
3.29824
 20
3.70081
 30
1.42883
  0
POINT
  8
1
  6
CONTINUOUS
  62
  7
 10
3.29283
 20
3.70131
 30
1.42883
  0
POINT
  8
1
  6
CONTINUOUS
  62
  7
 10
3.28743
 20
3.70162
 30
1.42883
  0
POINT
  8
1
  6
CONTINUOUS
  62
  7
 10
3.28201
 20
3.70168
 30
1.42883
  0
POINT
  8
1
  6
CONTINUOUS
  62
  7
 10
3.27664
 20
3.70199
 30
1.42883
  0
POINT
  8
1
  6
CONTINUOUS
  62
  7
 10
3.27118
 20
3.70212
 30
1.42883
  0
POINT
  8
1
  6
CONTINUOUS
  62
  7
 10
3.26578
 20
3.70246
 30
1.42883
  0
POINT
  8
1
  6
CONTINUOUS
  62
  7
 10
3.25929
 20
3.70268
 30
1.42883
  0
POINT
  8
1
  6
CONTINUOUS
  62
  7
 10
3.25481
 20
3.70248
 30
1.42883
  0
POINT
  8
1
  6
CONTINUOUS
  62
  7
 10
3.24953
 20
3.70226
 30
1.42883
  0
POINT
  8
1
  6
CONTINUOUS
  62
  7
 10
3.24413
 20
3.70360
 30
1.42883
  0
POINT
  8
1
  6
CONTINUOUS
  62
  7
 10
3.23868
 20
3.70390
 30
1.42883
  0
POINT
  8
1
  6
CONTINUOUS
  62
  7
 10
3.23219
 20
3.70415
 30
1.42883
  0
POINT
  8
1
  6
CONTINUOUS
  62
  7
 10
3.22785
 20
3.70438
 30
1.42883
  0
POINT
  8
1
  6
CONTINUOUS
  62
  7
 10
3.22243
 20
3.70425
 30
1.42883
  0
POINT
  8
1
  6
CONTINUOUS
  62
  7
 10
3.21702
 20
3.70459
 30
1.42883
  0
POINT
  8
1
  6
CONTINUOUS
  62
  7
 10
3.21052
 20
3.70470
 30
1.42883
  0
POINT
  8
1
  6
CONTINUOUS
  62
  7
 10
3.20618
 20
3.70508
 30
1.42883
  0
POINT
  8
1
  6
CONTINUOUS
  62
  7
 10
3.20075
 20
3.70499
 30
1.42883
  0
POINT
  8
1
  6
CONTINUOUS
  62
  7
 10
3.19424
 20
3.70516
 30
1.42883
  0
POINT
  8
1
  6
CONTINUOUS
  62
  7
 10
3.18996
 20
3.70569
 30
1.42883
  0
POINT
  8
1
  6
CONTINUOUS
  62
  7
 10
3.18477
 20
3.70595
 30
1.42883
  0
POINT
  8
1
  6
CONTINUOUS
  62
  7
 10
3.17937
 20
3.70608
 30
1.42883
  0
POINT
  8
1
  6
CONTINUOUS
  62
  7
 10
3.17393
 20
3.70630
 30
1.42883
  0
POINT
  8
1
  6
CONTINUOUS
  62
  7
 10
3.16851
 20
3.70625
 30
1.42883
  0
POINT
  8
1
  6
CONTINUOUS
  62
  7
 10
3.16319
 20
3.70499
 30
1.42883
  0
POINT
  8
1
  6
CONTINUOUS
  62
  7
 10
3.15791
 20
3.70653
 30
1.42883
  0
POINT
  8
1
  6
CONTINUOUS
  62
  7
 10
3.15226
 20
3.70743
 30
1.42883
  0
POINT
  8
1
  6
CONTINUOUS
  62
  7
 10
3.14687
 20
3.70762
 30
1.42883
  0
POINT
  8
1
  6
CONTINUOUS
  62
  7
 10
3.14144
 20
3.70770
 30
1.42883
  0
POINT
  8
1
  6
CONTINUOUS
  62
  7
 10
3.13493
 20
3.70802
 30
1.42883
  0
POINT
  8
1
  6
CONTINUOUS
  62
  7
 10
3.13063
 20
3.70845
 30
1.42883
  0
POINT
  8
1
  6
CONTINUOUS
  62
  7
 10
3.12518
 20
3.70854
 30
1.42883
  0
POINT
  8
1
  6
CONTINUOUS
  62
  7
 10
3.11873
 20
3.70917
 30
1.42883
  0
POINT
  8
1
  6
CONTINUOUS
  62
  7
 10
3.11435
 20
3.70926
 30
1.42883
  0
POINT
  8
1
  6
CONTINUOUS
  62
  7
 10
3.10894
 20
3.70929
 30
1.42883
  0
POINT
  8
1
  6
CONTINUOUS
  62
  7
 10
3.10245
 20
3.70955
 30
1.42883
  0
POINT
  8
1
  6
CONTINUOUS
  62
  7
 10
3.09702
 20
3.70982
 30
1.42883
  0
POINT
  8
1
  6
CONTINUOUS
  62
  7
 10
3.09267
 20
3.70972
 30
1.42883
  0
POINT
  8
1
  6
CONTINUOUS
  62
  7
 10
3.08733
 20
3.71032
 30
1.42883
  0
POINT
  8
1
  6
CONTINUOUS
  62
  7
 10
3.08076
 20
3.71064
 30
1.42883
  0
POINT
  8
1
  6
CONTINUOUS
  62
  7
 10
3.07645
 20
3.71078
 30
1.42883
  0
POINT
  8
1
  6
CONTINUOUS
  62
  7
 10
3.07110
 20
3.71107
 30
1.42883
  0
POINT
  8
1
  6
CONTINUOUS
  62
  7
 10
3.06452
 20
3.71126
 30
1.42883
  0
POINT
  8
1
  6
CONTINUOUS
  62
  7
 10
3.05911
 20
3.71147
 30
1.42883
  0
POINT
  8
1
  6
CONTINUOUS
  62
  7
 10
3.05584
 20
3.71160
 30
1.42883
  0
POINT
  8
1
  6
CONTINUOUS
  62
  7
 10
3.05044
 20
3.71186
 30
1.42883
  0
POINT
  8
1
  6
CONTINUOUS
  62
  7
 10
3.04391
 20
3.71167
 30
1.42883
  0
POINT
  8
1
  6
CONTINUOUS
  62
  7
 10
3.03860
 20
3.71255
 30
1.42883
  0
POINT
  8
1
  6
CONTINUOUS
  62
  7
 10
3.03310
 20
3.71318
 30
1.42883
  0
POINT
  8
1
  6
CONTINUOUS
  62
  7
 10
3.02768
 20
3.71306
 30
1.42883
  0
POINT
  8
1
  6
CONTINUOUS
  62
  7
 10
3.02229
 20
3.71360
 30
1.42883
  0
POINT
  8
1
  6
CONTINUOUS
  62
  7
 10
3.01684
 20
3.71397
 30
1.42883
  0
POINT
  8
1
  6
CONTINUOUS
  62
  7
 10
3.01147
 20
3.71452
 30
1.42883
  0
POINT
  8
1
  6
CONTINUOUS
  62
  7
 10
3.00599
 20
3.71482
 30
1.42883
  0
POINT
  8
1
  6
CONTINUOUS
  62
  7
 10
3.00064
 20
3.71515
 30
1.42883
  0
POINT
  8
1
  6
CONTINUOUS
  62
  7
 10
2.99410
 20
3.71573
 30
1.42883
  0
POINT
  8
1
  6
CONTINUOUS
  62
  7
 10
2.98975
 20
3.71589
 30
1.42883
  0
POINT
  8
1
  6
CONTINUOUS
  62
  7
 10
2.98437
 20
3.71601
 30
1.42883
  0
POINT
  8
1
  6
CONTINUOUS
  62
  7
 10
2.97893
 20
3.71636
 30
1.42883
  0
POINT
  8
1
  6
CONTINUOUS
  62
  7
 10
2.97351
 20
3.71667
 30
1.42883
  0
POINT
  8
1
  6
CONTINUOUS
  62
  7
 10
2.96813
 20
3.71688
 30
1.42883
  0
POINT
  8
1
  6
CONTINUOUS
  62
  7
 10
2.96272
 20
3.71726
 30
1.42883
  0
POINT
  8
1
  6
CONTINUOUS
  62
  7
 10
2.95727
 20
3.71772
 30
1.42883
  0
POINT
  8
1
  6
CONTINUOUS
  62
  7
 10
2.95184
 20
3.71791
 30
1.42883
  0
POINT
  8
1
  6
CONTINUOUS
  62
  7
 10
2.94645
 20
3.71823
 30
1.42883
  0
POINT
  8
1
  6
CONTINUOUS
  62
  7
 10
2.94148
 20
3.71854
 30
1.42881
  0
POINT
  8
1
  6
CONTINUOUS
  62
  7
 10
2.93717
 20
3.71912
 30
1.42881
  0
POINT
  8
1
  6
CONTINUOUS
  62
  7
 10
2.92993
 20
3.72281
 30
1.42881
  0
POINT
  8
1
  6
CONTINUOUS
  62
  7
 10
2.92966
 20
3.72802
 30
1.42881
  0
POINT
  8
1
  6
CONTINUOUS
  62
  7
 10
2.92989
 20
3.73343
 30
1.42881
  0
POINT
  8
1
  6
CONTINUOUS
  62
  7
 10
2.92991
 20
3.73884
 30
1.42881
  0
POINT
  8
1
  6
CONTINUOUS
  62
  7
 10
2.92985
 20
3.74373
 30
1.42881
  0
POINT
  8
1
  6
CONTINUOUS
  62
  7
 10
2.92994
 20
3.74970
 30
1.42881
  0
POINT
  8
1
  6
CONTINUOUS
  62
  7
 10
2.92985
 20
3.75563
 30
1.42881
  0
POINT
  8
1
  6
CONTINUOUS
  62
  7
 10
2.92983
 20
3.76053
 30
1.42881
  0
POINT
  8
1
  6
CONTINUOUS
  62
  7
 10
2.92946
 20
3.76538
 30
1.42881
  0
POINT
  8
1
  6
CONTINUOUS
  62
  7
 10
2.92939
 20
3.77134
 30
1.42881
  0
POINT
  8
1
  6
CONTINUOUS
  62
  7
 10
2.92948
 20
3.77676
 30
1.42881
  0
POINT
  8
1
  6
CONTINUOUS
  62
  7
 10
2.92939
 20
3.78217
 30
1.42881
  0
POINT
  8
1
  6
CONTINUOUS
  62
  7
 10
2.92923
 20
3.78757
 30
1.42881
  0
POINT
  8
1
  6
CONTINUOUS
  62
  7
 10
2.92877
 20
3.79355
 30
1.42881
  0
POINT
  8
1
  6
CONTINUOUS
  62
  7
 10
2.92892
 20
3.79843
 30
1.42881
  0
POINT
  8
1
  6
CONTINUOUS
  62
  7
 10
2.92883
 20
3.80331
 30
1.42881
  0
POINT
  8
1
  6
CONTINUOUS
  62
  7
 10
2.92865
 20
3.80924
 30
1.42881
  0
POINT
  8
1
  6
CONTINUOUS
  62
  7
 10
2.92864
 20
3.81516
 30
1.42881
  0
POINT
  8
1
  6
CONTINUOUS
  62
  7
 10
2.92853
 20
3.81947
 30
1.42881
  0
POINT
  8
1
  6
CONTINUOUS
  62
  7
 10
2.92800
 20
3.82492
 30
1.42881
  0
POINT
  8
1
  6
CONTINUOUS
  62
  7
 10
2.92806
 20
3.83088
 30
1.42881
  0
POINT
  8
1
  6
CONTINUOUS
  62
  7
 10
2.92780
 20
3.83580
 30
1.42881
  0
POINT
  8
1
  6
CONTINUOUS
  62
  7
 10
2.92821
 20
3.84120
 30
1.42881
  0
POINT
  8
1
  6
CONTINUOUS
  62
  7
 10
2.92840
 20
3.84671
 30
1.42883
  0
POINT
  8
1
  6
CONTINUOUS
  62
  7
 10
2.92847
 20
3.85265
 30
1.42883
  0
POINT
  8
1
  6
CONTINUOUS
  62
  7
 10
2.92843
 20
3.85752
 30
1.42883
  0
POINT
  8
1
  6
CONTINUOUS
  62
  7
 10
2.92843
 20
3.86293
 30
1.42883
  0
POINT
  8
1
  6
CONTINUOUS
  62
  7
 10
2.92839
 20
3.86835
 30
1.42883
  0
POINT
  8
1
  6
CONTINUOUS
  62
  7
 10
2.92837
 20
3.87376
 30
1.42883
  0
POINT
  8
1
  6
CONTINUOUS
  62
  7
 10
2.92836
 20
3.87918
 30
1.42883
  0
POINT
  8
1
  6
CONTINUOUS
  62
  7
 10
2.92838
 20
3.88518
 30
1.42883
  0
POINT
  8
1
  6
CONTINUOUS
  62
  7
 10
2.92855
 20
3.89000
 30
1.42883
  0
POINT
  8
1
  6
CONTINUOUS
  62
  7
 10
2.92757
 20
3.89597
 30
1.42883
  0
POINT
  8
1
  6
CONTINUOUS
  62
  7
 10
2.92781
 20
3.90137
 30
1.42883
  0
POINT
  8
1
  6
CONTINUOUS
  62
  7
 10
2.92851
 20
3.90627
 30
1.42883
  0
POINT
  8
1
  6
CONTINUOUS
  62
  7
 10
2.92865
 20
3.91237
 30
1.42883
  0
POINT
  8
1
  6
CONTINUOUS
  62
  7
 10
2.92776
 20
3.91815
 30
1.42883
  0
POINT
  8
1
  6
CONTINUOUS
  62
  7
 10
2.92872
 20
3.92304
 30
1.42883
  0
POINT
  8
1
  6
CONTINUOUS
  62
  7
 10
2.92843
 20
3.92790
 30
1.42883
  0
POINT
  8
1
  6
CONTINUOUS
  62
  7
 10
2.92823
 20
3.93444
 30
1.42883
  0
POINT
  8
1
  6
CONTINUOUS
  62
  7
 10
2.92850
 20
3.93979
 30
1.42883
  0
POINT
  8
1
  6
CONTINUOUS
  62
  7
 10
2.92879
 20
3.94524
 30
1.42883
  0
POINT
  8
1
  6
CONTINUOUS
  62
  7
 10
2.92861
 20
3.95011
 30
1.42883
  0
POINT
  8
1
  6
CONTINUOUS
  62
  7
 10
2.92818
 20
3.95440
 30
1.42883
  0
POINT
  8
1
  6
CONTINUOUS
  62
  7
 10
2.92825
 20
3.96043
 30
1.42883
  0
POINT
  8
1
  6
CONTINUOUS
  62
  7
 10
2.92865
 20
3.96633
 30
1.42883
  0
POINT
  8
1
  6
CONTINUOUS
  62
  7
 10
2.92864
 20
3.97178
 30
1.42883
  0
POINT
  8
1
  6
CONTINUOUS
  62
  7
 10
2.92849
 20
3.97665
 30
1.42883
  0
POINT
  8
1
  6
CONTINUOUS
  62
  7
 10
2.92835
 20
3.98205
 30
1.42883
  0
POINT
  8
1
  6
CONTINUOUS
  62
  7
 10
2.92803
 20
3.98800
 30
1.42883
  0
POINT
  8
1
  6
CONTINUOUS
  62
  7
 10
2.92819
 20
3.99292
 30
1.42883
  0
POINT
  8
1
  6
CONTINUOUS
  62
  7
 10
2.92854
 20
3.99821
 30
1.42883
  0
POINT
  8
1
  6
CONTINUOUS
  62
  7
 10
2.92870
 20
4.00427
 30
1.42883
  0
POINT
  8
1
  6
CONTINUOUS
  62
  7
 10
2.92888
 20
4.00970
 30
1.42883
  0
POINT
  8
1
  6
CONTINUOUS
  62
  7
 10
2.92883
 20
4.01512
 30
1.42883
  0
POINT
  8
1
  6
CONTINUOUS
  62
  7
 10
2.92744
 20
4.02051
 30
1.42883
  0
POINT
  8
1
  6
CONTINUOUS
  62
  7
 10
2.92886
 20
4.02534
 30
1.42883
  0
POINT
  8
1
  6
CONTINUOUS
  62
  7
 10
2.92845
 20
4.03084
 30
1.42883
  0
POINT
  8
1
  6
CONTINUOUS
  62
  7
 10
2.92887
 20
4.03626
 30
1.42883
  0
POINT
  8
1
  6
CONTINUOUS
  62
  7
 10
2.92876
 20
4.04165
 30
1.42883
  0
POINT
  8
1
  6
CONTINUOUS
  62
  7
 10
2.92874
 20
4.04710
 30
1.42883
  0
POINT
  8
1
  6
CONTINUOUS
  62
  7
 10
2.92918
 20
4.05249
 30
1.42883
  0
POINT
  8
1
  6
CONTINUOUS
  62
  7
 10
2.92904
 20
4.05786
 30
1.42883
  0
POINT
  8
1
  6
CONTINUOUS
  62
  7
 10
2.92894
 20
4.06331
 30
1.42883
  0
POINT
  8
1
  6
CONTINUOUS
  62
  7
 10
2.92886
 20
4.06927
 30
1.42883
  0
POINT
  8
1
  6
CONTINUOUS
  62
  7
 10
2.92892
 20
4.07469
 30
1.42883
  0
POINT
  8
1
  6
CONTINUOUS
  62
  7
 10
2.92895
 20
4.07957
 30
1.42883
  0
POINT
  8
1
  6
CONTINUOUS
  62
  7
 10
2.92915
 20
4.08552
 30
1.42883
  0
POINT
  8
1
  6
CONTINUOUS
  62
  7
 10
2.92918
 20
4.09092
 30
1.42883
  0
POINT
  8
1
  6
CONTINUOUS
  62
  7
 10
2.92902
 20
4.09579
 30
1.42883
  0
POINT
  8
1
  6
CONTINUOUS
  62
  7
 10
2.92831
 20
4.10117
 30
1.42883
  0
POINT
  8
1
  6
CONTINUOUS
  62
  7
 10
2.92846
 20
4.10717
 30
1.42883
  0
POINT
  8
1
  6
CONTINUOUS
  62
  7
 10
2.92860
 20
4.11210
 30
1.42883
  0
POINT
  8
1
  6
CONTINUOUS
  62
  7
 10
2.92928
 20
4.11746
 30
1.42883
  0
POINT
  8
1
  6
CONTINUOUS
  62
  7
 10
2.92901
 20
4.12287
 30
1.42883
  0
POINT
  8
1
  6
CONTINUOUS
  62
  7
 10
2.92859
 20
4.12826
 30
1.42883
  0
POINT
  8
1
  6
CONTINUOUS
  62
  7
 10
2.92845
 20
4.13373
 30
1.42883
  0
POINT
  8
1
  6
CONTINUOUS
  62
  7
 10
2.92897
 20
4.13969
 30
1.42883
  0
POINT
  8
1
  6
CONTINUOUS
  62
  7
 10
2.92950
 20
4.14458
 30
1.42883
  0
POINT
  8
1
  6
CONTINUOUS
  62
  7
 10
2.92940
 20
4.14943
 30
1.42883
  0
POINT
  8
1
  6
CONTINUOUS
  62
  7
 10
2.92902
 20
4.15652
 30
1.42883
  0
POINT
  8
1
  6
CONTINUOUS
  62
  7
 10
2.92755
 20
4.16411
 30
1.42883
  0
POINT
  8
1
  6
CONTINUOUS
  62
  7
 10
2.92962
 20
4.17057
 30
1.42883
  0
POINT
  8
1
  6
CONTINUOUS
  62
  7
 10
2.92973
 20
4.17595
 30
1.42883
  0
POINT
  8
1
  6
CONTINUOUS
  62
  7
 10
2.93027
 20
4.18136
 30
1.42883
  0
POINT
  8
1
  6
CONTINUOUS
  62
  7
 10
2.93058
 20
4.18677
 30
1.42883
  0
POINT
  8
1
  6
CONTINUOUS
  62
  7
 10
2.93044
 20
4.19219
 30
1.42883
  0
POINT
  8
1
  6
CONTINUOUS
  62
  7
 10
2.93060
 20
4.19761
 30
1.42883
  0
POINT
  8
1
  6
CONTINUOUS
  62
  7
 10
2.93071
 20
4.20304
 30
1.42883
  0
POINT
  8
1
  6
CONTINUOUS
  62
  7
 10
2.93047
 20
4.20796
 30
1.42885
  0
POINT
  8
1
  6
CONTINUOUS
  62
  7
 10
2.93066
 20
4.21337
 30
1.42885
  0
POINT
  8
1
  6
CONTINUOUS
  62
  7
 10
2.93100
 20
4.21882
 30
1.42885
  0
POINT
  8
1
  6
CONTINUOUS
  62
  7
 10
2.93101
 20
4.22421
 30
1.42885
  0
POINT
  8
1
  6
CONTINUOUS
  62
  7
 10
2.93104
 20
4.23018
 30
1.42885
  0
POINT
  8
1
  6
CONTINUOUS
  62
  7
 10
2.93111
 20
4.23507
 30
1.42885
  0
POINT
  8
1
  6
CONTINUOUS
  62
  7
 10
2.93185
 20
4.23929
 30
1.42885
  0
POINT
  8
1
  6
CONTINUOUS
  62
  7
 10
2.93662
 20
4.24713
 30
1.42885
  0
POINT
  8
1
  6
CONTINUOUS
  62
  7
 10
2.94109
 20
4.24590
 30
1.42885
  0
POINT
  8
1
  6
CONTINUOUS
  62
  7
 10
2.94766
 20
4.24594
 30
1.42885
  0
POINT
  8
1
  6
CONTINUOUS
  62
  7
 10
2.95197
 20
4.24633
 30
1.42885
  0
POINT
  8
1
  6
CONTINUOUS
  62
  7
 10
2.95742
 20
4.24649
 30
1.42885
  0
POINT
  8
1
  6
CONTINUOUS
  62
  7
 10
2.96391
 20
4.24653
 30
1.42885
  0
POINT
  8
1
  6
CONTINUOUS
  62
  7
 10
2.96934
 20
4.24683
 30
1.42885
  0
POINT
  8
1
  6
CONTINUOUS
  62
  7
 10
2.97367
 20
4.24696
 30
1.42885
  0
POINT
  8
1
  6
CONTINUOUS
  62
  7
 10
2.97908
 20
4.24703
 30
1.42885
  0
POINT
  8
1
  6
CONTINUOUS
  62
  7
 10
2.98450
 20
4.24723
 30
1.42885
  0
POINT
  8
1
  6
CONTINUOUS
  62
  7
 10
2.98990
 20
4.24731
 30
1.42885
  0
POINT
  8
1
  6
CONTINUOUS
  62
  7
 10
2.99533
 20
4.24754
 30
1.42885
  0
POINT
  8
1
  6
CONTINUOUS
  62
  7
 10
3.00184
 20
4.24748
 30
1.42885
  0
POINT
  8
1
  6
CONTINUOUS
  62
  7
 10
3.00723
 20
4.24765
 30
1.42885
  0
POINT
  8
1
  6
CONTINUOUS
  62
  7
 10
3.01158
 20
4.24772
 30
1.42885
  0
POINT
  8
1
  6
CONTINUOUS
  62
  7
 10
3.01702
 20
4.24787
 30
1.42885
  0
POINT
  8
1
  6
CONTINUOUS
  62
  7
 10
3.02351
 20
4.24836
 30
1.42885
  0
POINT
  8
1
  6
CONTINUOUS
  62
  7
 10
3.02784
 20
4.24805
 30
1.42885
  0
POINT
  8
1
  6
CONTINUOUS
  62
  7
 10
3.03326
 20
4.24805
 30
1.42885
  0
POINT
  8
1
  6
CONTINUOUS
  62
  7
 10
3.03975
 20
4.24807
 30
1.42885
  0
POINT
  8
1
  6
CONTINUOUS
  62
  7
 10
3.04518
 20
4.24797
 30
1.42885
  0
POINT
  8
1
  6
CONTINUOUS
  62
  7
 10
3.04951
 20
4.24808
 30
1.42885
  0
POINT
  8
1
  6
CONTINUOUS
  62
  7
 10
3.05493
 20
4.24807
 30
1.42885
  0
POINT
  8
1
  6
CONTINUOUS
  62
  7
 10
3.06143
 20
4.24802
 30
1.42885
  0
POINT
  8
1
  6
CONTINUOUS
  62
  7
 10
3.06576
 20
4.24796
 30
1.42885
  0
ENDSEC
0
EOF
